<svg id="svg" version="1.1" xmlns="http://www.w3.org/2000/svg" xmlns:xlink="http://www.w3.org/1999/xlink" width="400" height="402.56410256410254" viewBox="0, 0, 400,402.56410256410254"><g id="svgg"><path id="path0" d="M292.098 4.271 C 293.670 4.457,293.847 4.735,294.090 7.400 C 294.187 8.455,294.369 8.616,295.600 8.729 C 297.740 8.925,298.060 9.600,296.013 9.600 C 295.053 9.600,294.361 9.694,294.476 9.810 C 294.591 9.925,295.974 10.031,297.548 10.046 C 299.306 10.062,301.216 10.367,302.499 10.836 C 303.649 11.256,304.636 11.600,304.694 11.600 C 304.752 11.600,304.800 11.870,304.800 12.200 C 304.800 12.530,304.959 12.800,305.154 12.800 C 305.349 12.800,305.821 13.278,306.204 13.862 C 306.906 14.933,307.210 105.013,306.516 106.136 C 306.356 106.394,282.695 106.433,237.907 106.250 C 186.752 106.040,169.221 106.086,168.270 106.430 C 165.489 107.438,165.714 102.858,165.524 162.226 C 165.430 191.708,165.218 216.047,165.053 216.314 C 164.822 216.689,157.289 216.800,132.150 216.800 C 97.589 216.800,98.460 216.750,97.404 218.792 C 96.150 221.217,96.709 222.208,103.972 230.426 C 105.638 232.310,107.990 235.079,109.200 236.578 C 110.410 238.078,111.584 239.507,111.809 239.753 C 112.033 239.999,112.617 240.718,113.107 241.352 C 113.596 241.985,114.852 243.447,115.898 244.600 C 118.295 247.242,121.560 251.037,122.586 252.375 C 123.019 252.939,123.476 253.490,123.604 253.600 C 123.731 253.710,125.169 255.420,126.800 257.400 C 128.431 259.380,129.866 261.090,129.988 261.200 C 130.111 261.310,131.289 262.660,132.606 264.200 C 133.923 265.740,135.199 267.180,135.443 267.400 C 135.686 267.620,137.114 269.330,138.616 271.200 C 141.677 275.010,147.276 281.616,148.800 283.214 C 149.350 283.791,150.520 285.143,151.400 286.218 C 156.945 292.994,160.494 297.220,163.137 300.194 C 165.782 303.173,166.197 303.660,168.417 306.400 C 170.454 308.914,176.206 315.640,180.390 320.400 C 181.067 321.170,182.644 323.060,183.896 324.600 C 185.147 326.140,186.898 328.218,187.786 329.218 C 190.424 332.188,191.435 333.373,196.600 339.550 C 197.040 340.076,197.580 340.709,197.800 340.956 C 198.020 341.203,199.096 342.484,200.191 343.803 C 201.286 345.121,202.282 346.290,202.405 346.400 C 203.825 347.677,213.600 359.704,213.600 360.174 C 213.600 360.749,204.545 360.797,114.069 360.703 L 14.538 360.600 13.044 359.461 C 10.841 357.781,10.960 359.895,10.449 313.000 C 10.188 289.020,9.949 268.320,9.918 267.000 L 9.861 264.600 9.710 266.700 L 9.560 268.800 7.380 268.800 C 5.224 268.800,5.200 268.787,5.200 267.600 C 5.200 266.481,4.415 265.805,4.387 266.900 C 4.380 267.175,4.097 269.290,3.757 271.600 C 2.716 278.673,2.424 356.371,3.428 359.059 C 5.321 364.126,9.177 367.409,14.397 368.400 C 15.773 368.660,52.265 368.800,119.009 368.800 L 221.508 368.800 222.126 369.744 C 222.467 370.263,222.987 370.938,223.282 371.244 C 223.577 371.550,226.872 375.400,230.603 379.800 C 234.334 384.200,237.570 388.008,237.793 388.261 C 238.017 388.515,239.438 390.168,240.951 391.934 C 246.104 397.950,246.851 397.744,254.912 388.084 C 258.163 384.188,261.313 380.438,261.912 379.751 C 262.510 379.063,264.849 376.331,267.109 373.679 L 271.217 368.856 287.509 368.728 L 303.800 368.600 306.400 367.339 C 309.244 365.959,311.259 364.030,313.043 360.979 L 314.200 359.000 314.317 338.415 L 314.434 317.830 315.492 316.415 C 316.073 315.637,317.998 313.290,319.769 311.200 C 321.541 309.110,323.352 306.967,323.795 306.438 C 324.238 305.909,325.082 304.971,325.672 304.353 C 326.261 303.736,326.891 302.980,327.072 302.674 C 327.355 302.193,330.191 298.777,331.411 297.448 C 331.777 297.049,335.501 292.660,337.731 290.000 C 338.192 289.450,341.994 284.950,346.180 280.000 C 350.367 275.050,354.154 270.571,354.596 270.047 C 355.038 269.523,355.580 268.891,355.800 268.644 C 356.020 268.397,357.096 267.116,358.191 265.797 C 359.286 264.479,360.276 263.310,360.391 263.200 C 360.506 263.090,361.500 261.922,362.600 260.603 C 365.871 256.683,366.182 256.314,366.600 255.844 C 366.820 255.597,367.896 254.316,368.991 252.997 C 370.086 251.679,371.076 250.510,371.191 250.400 C 371.455 250.147,375.588 245.333,376.685 244.000 C 377.137 243.450,378.652 241.650,380.051 240.000 C 381.450 238.350,382.956 236.571,383.397 236.047 C 383.839 235.523,384.380 234.891,384.600 234.644 C 384.820 234.397,385.896 233.116,386.991 231.797 C 388.086 230.479,389.080 229.310,389.200 229.200 C 393.594 225.166,395.042 221.148,392.856 219.054 L 391.713 217.958 359.556 217.668 C 341.870 217.508,327.190 217.246,326.934 217.086 C 326.581 216.865,326.523 203.972,326.697 163.994 C 326.972 100.567,327.731 106.714,319.600 106.509 C 317.290 106.451,315.175 106.318,314.900 106.214 C 314.504 106.064,314.400 96.625,314.400 60.863 C 314.400 21.587,314.321 15.472,313.795 13.950 C 311.196 6.432,307.556 4.229,297.600 4.149 C 293.750 4.118,291.274 4.173,292.098 4.271 M316.866 114.645 L 318.332 114.859 318.377 156.929 C 318.402 180.068,318.509 203.140,318.615 208.200 C 318.720 213.260,318.838 219.047,318.876 221.059 C 318.931 223.919,319.063 224.674,319.478 224.515 C 319.771 224.402,320.250 224.509,320.543 224.753 C 320.919 225.065,329.938 225.225,351.238 225.297 C 373.671 225.374,381.400 225.518,381.400 225.861 C 381.400 226.114,380.860 226.928,380.200 227.669 C 379.122 228.880,376.347 232.160,374.200 234.763 C 373.760 235.296,372.680 236.566,371.800 237.586 C 370.920 238.606,369.390 240.416,368.400 241.610 C 367.410 242.803,365.962 244.504,365.182 245.390 C 363.955 246.784,358.306 253.439,356.346 255.800 C 355.094 257.307,350.604 262.600,350.202 263.041 C 349.981 263.283,349.080 264.350,348.200 265.412 C 347.320 266.473,346.415 267.535,346.190 267.771 C 345.964 268.007,341.378 273.420,335.997 279.800 C 325.086 292.739,324.780 293.099,322.770 295.378 C 321.689 296.605,302.133 319.770,296.609 326.366 C 296.164 326.898,294.540 328.804,293.000 330.601 C 291.460 332.398,289.030 335.279,287.600 337.001 C 286.170 338.724,284.354 340.869,283.565 341.767 C 282.776 342.665,281.066 344.671,279.765 346.226 C 277.492 348.941,261.331 368.036,255.276 375.160 C 253.668 377.052,251.064 380.162,249.490 382.072 C 247.802 384.119,246.444 385.432,246.180 385.272 C 245.933 385.122,244.220 383.200,242.372 381.000 C 238.430 376.306,237.488 375.201,235.580 373.022 C 234.799 372.130,232.190 369.060,229.783 366.200 C 224.165 359.526,224.372 359.770,219.940 354.600 C 213.681 347.299,205.488 337.654,204.000 335.834 C 203.230 334.893,199.180 330.112,195.000 325.211 C 190.820 320.310,186.860 315.643,186.200 314.839 C 185.540 314.036,182.306 310.234,179.014 306.389 C 170.531 296.485,161.709 286.143,159.600 283.631 C 157.811 281.500,145.548 267.081,139.673 260.201 C 137.106 257.195,125.851 243.930,122.388 239.830 C 121.845 239.187,120.590 237.742,119.600 236.619 C 115.868 232.388,110.451 225.786,110.426 225.439 C 110.411 225.228,123.379 225.062,141.700 225.039 L 173.000 225.000 173.104 170.000 C 173.161 139.750,173.299 114.752,173.411 114.449 C 173.615 113.896,313.042 114.087,316.866 114.645 M181.941 124.668 C 181.909 125.731,181.774 150.630,181.641 180.000 L 181.400 233.400 155.417 233.503 C 141.126 233.560,129.279 233.761,129.090 233.950 C 128.897 234.143,129.859 235.612,131.272 237.284 C 134.153 240.691,140.769 248.408,142.346 250.200 C 142.926 250.860,144.301 252.476,145.401 253.791 C 146.500 255.107,147.874 256.727,148.454 257.391 C 149.034 258.056,152.802 262.470,156.828 267.200 C 160.854 271.930,167.380 279.580,171.331 284.200 C 175.282 288.820,179.344 293.577,180.358 294.771 C 181.371 295.964,183.293 298.214,184.630 299.771 C 188.076 303.783,200.693 318.524,210.334 329.800 C 214.848 335.080,219.275 340.218,220.171 341.218 C 221.067 342.218,222.250 343.569,222.800 344.221 C 228.319 350.760,245.328 370.408,245.833 370.827 C 246.537 371.412,247.563 370.502,250.800 366.422 C 252.936 363.730,256.645 359.298,257.361 358.582 C 257.712 358.230,258.002 357.821,258.003 357.671 C 258.005 357.522,258.594 356.770,259.311 356.000 C 260.028 355.230,261.241 353.791,262.007 352.801 C 263.382 351.026,263.764 350.559,265.776 348.200 C 266.339 347.540,266.799 346.865,266.800 346.701 C 266.800 346.536,267.791 345.366,269.002 344.101 C 270.214 342.835,271.318 341.350,271.456 340.800 C 271.759 339.594,272.781 338.341,273.234 338.621 C 273.414 338.732,273.790 338.057,274.071 337.121 C 274.358 336.162,275.251 334.749,276.117 333.883 C 277.437 332.563,277.579 332.256,277.127 331.708 C 276.711 331.205,276.706 331.034,277.100 330.902 C 277.788 330.670,277.733 329.600,277.033 329.600 C 276.722 329.600,276.407 329.774,276.333 329.987 C 276.109 330.639,275.164 329.782,275.095 328.864 C 275.059 328.389,274.933 328.000,274.815 328.001 C 274.697 328.001,274.657 326.201,274.727 324.001 C 274.810 321.355,274.709 320.000,274.427 320.000 C 274.129 320.000,274.000 313.080,274.000 297.200 C 274.000 284.660,274.153 274.400,274.340 274.400 C 274.526 274.400,274.805 271.565,274.958 268.100 C 275.112 264.635,275.409 261.740,275.619 261.667 C 275.828 261.593,276.000 260.489,276.000 259.213 C 276.000 257.230,276.116 256.863,276.800 256.684 C 277.518 256.496,277.601 256.132,277.614 253.137 C 277.638 247.598,278.342 239.019,278.786 238.871 C 279.014 238.795,279.200 238.208,279.200 237.567 C 279.200 236.807,279.405 236.400,279.787 236.400 C 280.145 236.400,280.285 236.165,280.145 235.800 C 280.018 235.470,280.114 235.200,280.357 235.200 C 280.601 235.200,280.800 234.876,280.800 234.480 C 280.800 234.084,281.009 233.551,281.264 233.296 C 281.519 233.041,281.715 232.015,281.700 231.016 C 281.685 230.017,281.836 229.200,282.036 229.200 C 282.236 229.200,282.401 228.795,282.402 228.300 C 282.404 227.805,282.674 226.884,283.002 226.254 C 283.331 225.624,283.600 224.359,283.600 223.443 C 283.600 221.661,284.479 220.000,285.423 220.000 C 286.102 220.000,286.193 218.753,285.560 218.120 C 284.774 217.334,287.539 213.200,288.850 213.200 C 289.070 213.200,289.194 212.849,289.125 212.419 C 289.056 211.989,289.325 211.400,289.722 211.108 C 290.120 210.817,290.494 210.245,290.553 209.838 C 290.613 209.430,291.293 208.445,292.064 207.649 C 292.836 206.852,293.992 205.480,294.633 204.600 C 295.275 203.720,296.205 202.672,296.700 202.271 C 297.195 201.870,297.606 201.330,297.613 201.071 C 297.620 200.812,298.259 199.970,299.034 199.200 C 300.826 197.419,307.794 187.386,308.656 185.345 C 309.208 184.041,309.224 123.767,308.673 123.358 C 308.633 123.328,280.115 123.176,245.300 123.020 L 182.000 122.736 181.941 124.668 M276.493 324.800 C 276.493 325.570,276.575 325.885,276.676 325.500 C 276.776 325.115,276.776 324.485,276.676 324.100 C 276.575 323.715,276.493 324.030,276.493 324.800 M306.800 342.120 L 306.800 356.240 305.761 357.843 C 303.932 360.663,303.211 360.800,290.197 360.800 C 278.290 360.800,277.776 360.721,279.309 359.129 C 279.588 358.838,280.233 358.062,280.741 357.404 C 281.250 356.746,282.506 355.231,283.533 354.036 C 284.560 352.841,286.120 351.018,287.000 349.984 C 287.880 348.950,289.431 347.135,290.447 345.952 C 291.462 344.768,294.856 340.740,297.989 337.000 C 305.605 327.907,305.521 328.000,306.203 328.000 C 306.721 328.000,306.800 329.868,306.800 342.120 " stroke="none" fill="#619632" fill-rule="evenodd"></path><path id="path1" d="M0.000 168.849 C 0.000 343.742,-0.025 340.815,1.417 335.688 C 1.586 335.090,1.831 262.420,1.962 174.200 L 2.200 13.800 3.363 11.427 C 5.541 6.985,9.274 4.088,13.955 3.206 C 17.218 2.591,301.829 2.648,304.323 3.264 C 307.771 4.115,311.749 7.234,313.559 10.504 C 315.585 14.166,315.599 14.523,315.600 61.700 L 315.600 105.600 319.440 105.600 C 323.723 105.600,325.476 106.165,326.677 107.934 C 327.367 108.952,327.393 111.413,327.247 162.700 L 327.094 216.400 333.447 216.392 C 356.455 216.363,391.826 217.302,392.800 217.968 C 395.622 219.897,395.568 223.295,392.665 226.411 C 391.954 227.175,386.062 234.100,379.573 241.800 C 373.084 249.500,367.394 256.250,366.928 256.800 C 366.462 257.350,365.387 258.619,364.540 259.620 C 363.693 260.621,362.163 262.421,361.140 263.620 C 357.171 268.272,348.858 278.107,335.944 293.432 C 328.543 302.215,321.860 310.120,321.093 311.000 C 320.325 311.880,318.777 313.680,317.652 315.000 L 315.607 317.400 315.606 325.000 C 315.604 333.542,315.871 335.058,317.598 336.335 C 318.259 336.824,318.800 337.453,318.800 337.734 C 318.800 338.014,319.309 339.045,319.930 340.025 C 320.552 341.006,321.381 342.706,321.772 343.804 C 322.164 344.902,322.691 346.234,322.942 346.765 C 323.553 348.052,323.540 355.143,322.926 355.522 C 322.672 355.679,322.333 356.329,322.173 356.966 C 322.013 357.604,321.282 359.297,320.548 360.730 C 319.593 362.595,319.331 363.476,319.626 363.832 C 320.634 365.046,319.479 380.654,318.294 381.840 C 318.132 382.001,318.000 382.441,318.000 382.818 C 318.000 383.194,317.721 383.734,317.380 384.017 C 316.126 385.057,316.817 386.575,318.600 386.696 C 320.070 386.795,321.025 387.096,322.895 388.047 C 323.277 388.241,324.020 388.400,324.546 388.400 C 325.072 388.400,325.726 388.670,326.000 389.000 C 326.274 389.330,326.842 389.600,327.262 389.600 C 327.681 389.600,328.129 389.870,328.255 390.200 C 328.382 390.530,328.816 390.800,329.219 390.800 C 329.623 390.800,330.064 390.980,330.200 391.200 C 330.336 391.420,330.752 391.601,331.124 391.602 C 331.496 391.604,332.316 391.874,332.946 392.202 C 333.576 392.531,334.304 392.800,334.565 392.800 C 334.825 392.800,335.741 393.520,336.600 394.400 C 337.459 395.280,338.331 396.000,338.538 396.000 C 339.030 396.000,341.200 398.277,341.200 398.793 C 341.200 399.013,341.560 399.418,342.000 399.693 C 342.486 399.996,342.800 400.626,342.800 401.296 L 342.800 402.400 371.400 402.400 L 400.000 402.400 400.000 201.200 L 400.000 0.000 200.000 0.000 L 0.000 0.000 0.000 168.849 M13.917 12.715 C 13.101 13.312,12.201 14.340,11.917 15.000 C 11.497 15.974,11.400 48.181,11.400 186.200 L 11.400 356.200 12.332 357.506 C 14.267 360.220,5.443 360.012,114.133 359.901 L 212.702 359.800 206.051 351.957 C 202.393 347.643,194.462 338.283,188.426 331.157 C 182.390 324.031,177.026 317.795,176.505 317.300 L 175.559 316.400 132.009 316.400 C 92.267 316.400,88.447 316.344,88.329 315.755 C 88.258 315.400,88.290 313.465,88.400 311.455 L 88.600 307.800 128.300 307.698 C 150.135 307.642,168.000 307.493,168.000 307.366 C 168.000 307.163,162.571 300.592,161.335 299.300 C 160.960 298.907,153.183 298.799,125.129 298.794 C 105.478 298.791,89.168 298.641,88.885 298.461 C 88.507 298.221,88.400 297.071,88.485 294.167 L 88.600 290.200 120.700 290.098 C 140.690 290.034,152.800 289.852,152.800 289.614 C 152.800 289.050,146.139 281.339,145.410 281.059 C 145.067 280.927,132.168 280.813,116.747 280.805 C 101.327 280.798,88.550 280.693,88.355 280.572 C 88.160 280.451,88.000 278.563,88.000 276.376 L 88.000 272.400 113.000 272.400 C 126.750 272.400,138.000 272.284,138.000 272.141 C 138.000 271.880,135.893 269.204,133.952 267.000 C 133.370 266.340,132.468 265.298,131.947 264.683 L 131.000 263.567 110.000 263.581 C 98.450 263.589,88.768 263.446,88.485 263.264 C 88.108 263.023,88.000 261.870,88.085 258.967 L 88.200 255.000 105.500 254.896 C 124.063 254.784,123.730 254.827,121.900 252.790 C 121.405 252.239,120.104 250.711,119.009 249.394 C 116.192 246.006,117.271 246.221,102.000 246.000 L 88.200 245.800 88.085 241.833 C 87.940 236.840,87.099 237.213,98.500 237.206 C 104.099 237.203,108.000 237.047,108.000 236.827 C 108.000 235.574,101.505 228.799,100.282 228.777 C 99.577 228.765,97.010 228.774,94.579 228.797 C 88.000 228.861,88.000 228.861,88.000 224.224 C 88.000 219.716,88.031 219.684,92.298 219.782 C 95.556 219.858,95.425 219.909,96.848 218.000 C 98.757 215.438,98.006 215.483,132.991 215.814 L 164.400 216.111 164.400 213.655 L 164.400 211.200 126.700 211.194 C 105.965 211.191,88.768 211.041,88.485 210.861 C 88.107 210.621,88.000 209.471,88.085 206.567 L 88.200 202.600 126.300 202.498 L 164.400 202.396 164.400 198.000 L 164.400 193.604 126.300 193.502 L 88.200 193.400 88.087 189.350 C 87.977 185.427,88.002 185.293,88.887 185.056 C 89.389 184.921,106.585 184.808,127.100 184.805 L 164.400 184.800 164.400 167.600 L 164.400 150.400 127.300 150.395 C 106.895 150.392,89.789 150.279,89.287 150.144 C 88.402 149.907,88.377 149.773,88.487 145.850 L 88.600 141.800 126.500 141.698 L 164.400 141.596 164.400 137.200 L 164.400 132.804 126.500 132.702 L 88.600 132.600 88.600 128.400 L 88.600 124.200 126.500 124.098 L 164.400 123.996 164.400 119.594 L 164.400 115.192 126.775 115.204 C 106.081 115.210,88.981 115.112,88.775 114.984 C 88.210 114.636,88.304 107.456,88.880 106.880 C 89.247 106.513,98.415 106.400,127.706 106.400 C 154.836 106.400,166.293 106.271,166.875 105.960 C 167.465 105.644,187.210 105.536,236.857 105.579 L 306.017 105.637 305.908 60.519 L 305.800 15.400 304.800 14.064 C 304.250 13.330,303.193 12.475,302.451 12.164 C 301.298 11.682,280.350 11.602,158.251 11.615 L 15.400 11.630 13.917 12.715 M262.167 54.243 C 262.688 54.443,262.800 55.221,262.800 58.643 L 262.800 62.800 175.600 62.800 L 88.400 62.800 88.400 58.633 C 88.400 55.674,88.545 54.408,88.900 54.265 C 89.620 53.974,261.410 53.952,262.167 54.243 M262.600 76.000 L 262.600 80.200 175.600 80.200 L 88.600 80.200 88.484 76.430 C 88.420 74.357,88.460 72.421,88.572 72.129 C 88.740 71.690,103.758 71.616,175.688 71.699 L 262.600 71.800 262.600 76.000 M204.500 89.195 L 262.800 89.200 262.800 93.357 C 262.800 96.779,262.688 97.557,262.167 97.757 C 261.340 98.075,89.860 98.075,89.033 97.757 C 88.049 97.380,88.108 89.823,89.100 89.200 C 89.600 88.886,97.855 88.822,118.000 88.975 C 133.510 89.094,172.435 89.193,204.500 89.195 M38.262 130.215 C 40.904 131.763,42.441 135.864,41.153 137.927 C 40.737 138.594,40.627 138.565,39.583 137.522 C 36.475 134.413,32.136 137.903,34.198 141.854 C 35.532 144.411,30.720 143.387,28.773 140.699 C 24.139 134.302,31.450 126.223,38.262 130.215 M363.500 226.693 C 364.435 226.777,365.965 226.777,366.900 226.693 C 367.835 226.609,367.070 226.540,365.200 226.540 C 363.330 226.540,362.565 226.609,363.500 226.693 M369.113 226.738 C 369.395 226.917,371.229 227.004,373.190 226.933 C 375.273 226.857,376.857 226.969,377.001 227.201 C 377.136 227.421,377.027 227.600,376.757 227.600 C 376.487 227.600,376.382 227.716,376.524 227.857 C 376.665 227.998,377.069 227.875,377.421 227.583 C 377.956 227.139,378.121 227.146,378.424 227.626 C 378.677 228.024,378.790 228.047,378.794 227.700 C 378.797 227.425,379.070 227.200,379.400 227.200 C 379.730 227.200,380.000 227.020,380.000 226.800 C 380.000 226.552,377.837 226.402,374.300 226.406 C 371.165 226.409,368.831 226.559,369.113 226.738 M376.800 228.800 C 376.483 228.996,376.356 229.289,376.518 229.452 C 376.681 229.614,377.023 229.537,377.280 229.280 C 377.884 228.676,377.547 228.338,376.800 228.800 M36.440 229.661 C 39.591 230.730,41.587 233.348,41.578 236.400 C 41.574 238.163,40.608 239.684,40.236 238.514 C 39.864 237.342,37.769 236.299,36.394 236.601 C 34.036 237.119,32.804 240.285,34.189 242.263 C 35.074 243.527,32.923 243.883,30.836 242.818 C 25.494 240.093,26.714 231.264,32.648 229.693 C 34.756 229.136,34.887 229.134,36.440 229.661 M372.400 233.800 C 372.400 234.130,372.692 234.400,373.049 234.400 C 373.580 234.400,373.608 234.291,373.200 233.800 C 372.926 233.470,372.634 233.200,372.551 233.200 C 372.468 233.200,372.400 233.470,372.400 233.800 M299.516 336.500 C 296.308 340.295,293.294 343.850,292.818 344.400 C 291.804 345.571,291.286 346.184,288.600 349.403 C 287.500 350.722,286.508 351.890,286.395 352.000 C 286.221 352.169,283.135 355.801,280.362 359.100 L 279.605 360.000 290.770 360.000 C 306.942 360.000,305.754 361.341,305.920 342.900 C 305.986 335.585,305.884 329.600,305.694 329.600 C 305.504 329.600,302.724 332.705,299.516 336.500 M0.000 382.600 L 0.000 402.400 74.400 402.400 L 148.800 402.400 148.800 400.390 C 148.800 398.674,148.932 398.330,149.700 398.036 C 152.445 396.986,153.087 393.870,150.600 393.673 C 149.720 393.604,148.829 393.379,148.620 393.173 C 148.411 392.968,147.862 392.800,147.400 392.800 C 146.938 392.800,146.374 392.614,146.146 392.386 C 145.919 392.159,144.848 391.805,143.766 391.600 C 139.441 390.781,137.367 390.298,136.705 389.958 C 136.323 389.761,135.579 389.600,135.051 389.600 C 134.523 389.600,133.576 389.331,132.946 389.002 C 132.316 388.674,131.316 388.404,130.724 388.402 C 130.132 388.401,129.536 388.220,129.400 388.000 C 129.264 387.780,128.606 387.600,127.937 387.600 C 127.268 387.600,126.154 387.346,125.460 387.036 C 124.090 386.424,123.151 386.189,119.200 385.472 C 117.770 385.212,116.420 384.883,116.200 384.740 C 115.980 384.597,114.763 384.351,113.495 384.193 C 112.227 384.036,111.091 383.748,110.971 383.553 C 110.851 383.359,110.144 383.200,109.400 383.200 C 108.656 383.200,107.949 383.041,107.829 382.847 C 107.709 382.652,106.573 382.364,105.305 382.207 C 104.037 382.049,102.820 381.803,102.600 381.660 C 102.380 381.517,100.760 381.172,99.000 380.893 C 97.240 380.614,94.900 380.222,93.800 380.022 C 92.700 379.822,79.537 379.645,64.549 379.629 C 40.838 379.604,37.233 379.522,36.800 379.000 C 36.432 378.557,35.452 378.400,33.051 378.399 C 25.316 378.398,15.347 375.431,8.800 371.181 C 7.810 370.539,6.730 369.893,6.400 369.747 C 5.513 369.355,1.607 365.081,1.603 364.500 C 1.601 364.225,1.420 364.000,1.200 364.000 C 0.980 364.000,0.800 363.730,0.800 363.400 C 0.800 363.070,0.620 362.800,0.400 362.800 C 0.139 362.800,0.000 369.667,0.000 382.600 " stroke="none" fill="#ededec" fill-rule="evenodd"></path><path id="path2" d="M173.847 115.022 C 173.711 115.376,173.575 135.136,173.545 158.933 C 173.515 182.730,173.380 207.330,173.245 213.600 L 173.000 225.000 142.100 225.102 C 121.352 225.171,111.200 225.339,111.200 225.615 C 111.200 225.976,113.626 229.027,116.752 232.597 C 117.329 233.255,118.851 235.055,120.136 236.597 C 121.421 238.138,123.242 240.300,124.182 241.400 C 133.591 252.407,136.697 256.059,142.384 262.800 C 146.003 267.090,149.071 270.690,149.202 270.800 C 149.333 270.910,153.385 275.680,158.208 281.400 C 163.030 287.120,167.071 291.890,167.188 292.000 C 167.305 292.110,168.298 293.280,169.396 294.600 C 170.493 295.920,171.573 297.201,171.796 297.447 C 172.433 298.151,173.669 299.608,181.766 309.200 C 185.945 314.150,189.464 318.290,189.587 318.400 C 189.792 318.583,193.993 323.522,195.541 325.400 C 196.936 327.092,207.502 339.546,209.988 342.428 C 211.425 344.094,212.960 345.897,213.400 346.436 C 213.840 346.974,215.662 349.122,217.450 351.208 C 223.526 358.297,239.387 377.017,242.600 380.889 C 246.358 385.420,246.235 385.380,248.464 382.758 C 250.561 380.292,250.454 380.417,255.254 374.750 C 265.861 362.228,267.117 360.645,266.924 360.034 C 266.783 359.584,266.828 359.543,267.081 359.892 C 267.549 360.538,273.450 353.506,273.283 352.501 C 273.205 352.031,273.275 351.958,273.495 352.280 C 273.850 352.800,284.133 341.063,284.133 340.139 C 284.133 339.862,284.258 339.712,284.410 339.806 C 284.783 340.037,296.933 325.637,296.933 324.964 C 296.933 324.673,297.063 324.515,297.222 324.613 C 297.380 324.711,298.354 323.803,299.386 322.596 C 300.418 321.388,301.121 320.400,300.948 320.400 C 300.575 320.400,298.019 323.268,298.008 323.700 C 298.003 323.865,297.820 324.000,297.600 324.000 C 297.030 324.000,297.104 322.901,297.700 322.520 C 298.892 321.757,299.665 320.435,299.402 319.607 C 299.139 318.777,299.109 318.783,298.158 319.878 C 297.623 320.495,296.809 321.384,296.350 321.854 C 295.587 322.634,295.560 322.834,296.040 324.160 C 296.527 325.508,296.499 325.677,295.648 326.506 L 294.731 327.400 294.117 326.500 C 293.779 326.005,293.254 325.600,292.951 325.600 C 292.648 325.600,292.400 325.336,292.400 325.013 C 292.400 324.619,292.631 324.512,293.100 324.690 C 293.767 324.943,293.767 324.922,293.100 324.249 C 292.107 323.247,292.200 322.888,294.011 320.741 C 295.293 319.221,295.570 318.622,295.368 317.815 C 295.210 317.186,295.282 316.800,295.557 316.800 C 295.800 316.800,296.000 316.575,296.001 316.300 C 296.002 315.584,298.312 312.978,298.647 313.314 C 298.802 313.469,298.630 313.925,298.264 314.329 C 297.571 315.095,297.341 317.200,297.951 317.200 C 298.662 317.200,299.377 315.940,299.569 314.347 C 299.586 314.207,299.960 313.999,300.400 313.884 C 300.887 313.757,301.200 313.338,301.200 312.814 C 301.200 312.338,301.020 312.064,300.797 312.202 C 299.836 312.796,299.956 311.090,300.948 310.054 C 301.527 309.450,302.000 308.832,302.000 308.681 C 302.000 308.320,303.360 306.717,305.663 304.366 C 306.687 303.320,307.644 302.090,307.790 301.633 C 307.935 301.176,308.491 300.692,309.027 300.558 C 309.562 300.423,310.000 300.178,310.000 300.012 C 310.000 299.847,310.435 299.071,310.966 298.288 C 311.497 297.506,311.842 296.775,311.732 296.665 C 311.622 296.555,311.888 296.274,312.324 296.041 C 313.035 295.660,317.192 290.563,318.200 288.836 C 318.420 288.459,319.236 287.592,320.014 286.909 C 320.792 286.226,321.690 285.157,322.009 284.534 C 322.662 283.260,327.432 277.574,328.262 277.080 C 328.558 276.904,328.800 276.511,328.800 276.207 C 328.800 275.903,329.151 275.543,329.580 275.406 C 330.008 275.270,330.479 274.782,330.625 274.321 C 330.771 273.861,331.555 272.745,332.366 271.842 C 333.178 270.939,334.452 269.390,335.197 268.400 C 335.943 267.410,337.464 265.584,338.577 264.341 C 341.970 260.553,344.000 258.090,344.000 257.759 C 344.000 257.586,344.557 256.894,345.237 256.222 C 345.918 255.550,347.493 253.727,348.737 252.171 C 353.034 246.800,353.810 245.849,356.528 242.631 C 358.028 240.854,359.738 238.814,360.328 238.097 C 360.917 237.380,361.805 236.369,362.300 235.851 C 364.749 233.286,366.651 233.462,331.000 232.964 C 312.032 232.698,312.469 232.777,311.691 229.504 C 311.429 228.401,311.329 227.315,311.468 227.090 C 311.607 226.865,311.758 221.443,311.803 215.040 C 311.851 208.245,312.055 202.984,312.293 202.400 C 312.853 201.028,313.377 207.898,313.107 213.070 C 312.968 215.729,313.040 216.787,313.355 216.683 C 313.877 216.511,314.291 211.223,314.355 203.900 C 314.380 201.095,314.560 198.800,314.757 198.800 C 314.953 198.800,315.235 198.314,315.384 197.721 C 315.736 196.320,316.385 197.214,316.394 199.113 C 316.397 199.835,316.661 201.050,316.980 201.814 C 317.783 203.735,317.995 222.132,317.230 223.550 C 316.873 224.213,316.836 224.756,317.109 225.350 C 317.324 225.818,317.707 226.713,317.960 227.341 C 318.287 228.152,318.561 228.372,318.910 228.102 C 319.179 227.893,320.615 227.382,322.100 226.966 C 325.068 226.135,325.572 225.600,323.387 225.600 C 322.610 225.600,321.365 225.345,320.620 225.034 C 319.875 224.723,319.191 224.543,319.099 224.634 C 318.386 225.348,318.080 206.921,318.050 161.443 C 318.033 135.947,317.970 115.047,317.910 114.998 C 317.219 114.445,174.059 114.469,173.847 115.022 M308.673 123.358 C 309.224 123.767,309.208 184.041,308.656 185.345 C 307.794 187.386,300.826 197.419,299.034 199.200 C 298.259 199.970,297.620 200.812,297.613 201.071 C 297.606 201.330,297.195 201.870,296.700 202.271 C 296.205 202.672,295.275 203.720,294.633 204.600 C 293.992 205.480,292.836 206.852,292.064 207.649 C 291.293 208.445,290.613 209.430,290.553 209.838 C 290.494 210.245,290.120 210.817,289.722 211.108 C 289.325 211.400,289.056 211.989,289.125 212.419 C 289.194 212.849,289.070 213.200,288.850 213.200 C 287.539 213.200,284.774 217.334,285.560 218.120 C 286.193 218.753,286.102 220.000,285.423 220.000 C 284.479 220.000,283.600 221.661,283.600 223.443 C 283.600 224.359,283.331 225.624,283.002 226.254 C 282.674 226.884,282.404 227.805,282.402 228.300 C 282.401 228.795,282.236 229.200,282.036 229.200 C 281.836 229.200,281.685 230.017,281.700 231.016 C 281.715 232.015,281.519 233.041,281.264 233.296 C 281.009 233.551,280.800 234.084,280.800 234.480 C 280.800 234.876,280.601 235.200,280.357 235.200 C 280.114 235.200,280.018 235.470,280.145 235.800 C 280.285 236.165,280.145 236.400,279.787 236.400 C 279.405 236.400,279.200 236.807,279.200 237.567 C 279.200 238.208,279.014 238.795,278.786 238.871 C 278.342 239.019,277.638 247.598,277.614 253.137 C 277.601 256.132,277.518 256.496,276.800 256.684 C 276.116 256.863,276.000 257.230,276.000 259.213 C 276.000 260.489,275.828 261.593,275.619 261.667 C 275.409 261.740,275.112 264.635,274.958 268.100 C 274.805 271.565,274.526 274.400,274.340 274.400 C 274.153 274.400,274.000 284.660,274.000 297.200 C 274.000 313.080,274.129 320.000,274.427 320.000 C 274.709 320.000,274.810 321.355,274.727 324.001 C 274.657 326.201,274.697 328.001,274.815 328.001 C 274.933 328.000,275.059 328.389,275.095 328.864 C 275.164 329.782,276.109 330.639,276.333 329.987 C 276.407 329.774,276.722 329.600,277.033 329.600 C 277.733 329.600,277.788 330.670,277.100 330.902 C 276.706 331.034,276.711 331.205,277.127 331.708 C 277.579 332.256,277.437 332.563,276.117 333.883 C 275.251 334.749,274.358 336.162,274.071 337.121 C 273.790 338.057,273.414 338.732,273.234 338.621 C 272.781 338.341,271.759 339.594,271.456 340.800 C 271.318 341.350,270.214 342.835,269.002 344.101 C 267.791 345.366,266.800 346.536,266.800 346.701 C 266.799 346.865,266.339 347.540,265.776 348.200 C 263.764 350.559,263.382 351.026,262.007 352.801 C 261.241 353.791,260.028 355.230,259.311 356.000 C 258.594 356.770,258.005 357.522,258.003 357.671 C 258.002 357.821,257.712 358.230,257.361 358.582 C 256.645 359.298,252.936 363.730,250.800 366.422 C 247.563 370.502,246.537 371.412,245.833 370.827 C 245.328 370.408,228.319 350.760,222.800 344.221 C 222.250 343.569,221.067 342.218,220.171 341.218 C 219.275 340.218,214.848 335.080,210.334 329.800 C 200.693 318.524,188.076 303.783,184.630 299.771 C 183.293 298.214,181.371 295.964,180.358 294.771 C 179.344 293.577,175.282 288.820,171.331 284.200 C 167.380 279.580,160.854 271.930,156.828 267.200 C 152.802 262.470,149.034 258.056,148.454 257.391 C 147.874 256.727,146.500 255.107,145.401 253.791 C 144.301 252.476,142.926 250.860,142.346 250.200 C 140.769 248.408,134.153 240.691,131.272 237.284 C 129.859 235.612,128.897 234.143,129.090 233.950 C 129.279 233.761,141.126 233.560,155.417 233.503 L 181.400 233.400 181.641 180.000 C 181.774 150.630,181.909 125.731,181.941 124.668 L 182.000 122.736 245.300 123.020 C 280.115 123.176,308.633 123.328,308.673 123.358 M315.784 180.900 C 315.193 185.354,315.148 185.502,314.734 184.409 C 314.349 183.393,314.498 182.234,315.262 180.300 C 315.878 178.742,316.045 178.934,315.784 180.900 M312.794 189.700 C 312.781 190.754,312.122 191.311,311.899 190.457 C 311.782 190.011,311.787 189.546,311.910 189.423 C 312.304 189.029,312.800 189.185,312.794 189.700 M316.154 194.577 C 315.907 195.219,315.846 195.225,315.519 194.641 C 315.087 193.868,315.517 192.957,316.058 193.498 C 316.261 193.701,316.304 194.186,316.154 194.577 M312.287 198.700 C 312.195 199.305,312.120 198.810,312.120 197.600 C 312.120 196.390,312.195 195.895,312.287 196.500 C 312.378 197.105,312.378 198.095,312.287 198.700 M312.848 225.742 C 312.500 226.162,312.522 226.403,312.942 226.752 C 313.362 227.100,313.603 227.078,313.952 226.658 C 314.300 226.238,314.278 225.997,313.858 225.648 C 313.438 225.300,313.197 225.322,312.848 225.742 M362.434 247.753 L 361.469 249.000 362.613 247.912 C 363.243 247.314,363.677 246.753,363.579 246.665 C 363.480 246.577,362.965 247.067,362.434 247.753 M343.468 270.054 C 342.406 271.344,341.619 272.400,341.720 272.400 C 342.005 272.400,345.713 267.977,345.547 267.834 C 345.466 267.764,344.531 268.763,343.468 270.054 M338.362 276.005 C 337.188 277.240,337.077 277.814,338.225 276.712 C 338.848 276.114,339.277 275.559,339.179 275.479 C 339.080 275.399,338.713 275.636,338.362 276.005 M335.429 279.562 L 334.258 281.000 335.609 279.713 C 336.351 279.005,336.878 278.358,336.779 278.275 C 336.681 278.192,336.073 278.771,335.429 279.562 M332.000 283.600 C 330.856 284.920,330.011 286.000,330.121 286.000 C 330.231 286.000,331.256 284.920,332.400 283.600 C 333.544 282.280,334.389 281.200,334.279 281.200 C 334.169 281.200,333.144 282.280,332.000 283.600 M327.162 289.300 C 323.720 293.259,323.445 293.600,323.688 293.600 C 323.804 293.600,325.285 291.980,326.978 290.000 C 328.672 288.020,329.973 286.400,329.870 286.400 C 329.767 286.400,328.548 287.705,327.162 289.300 M321.068 296.423 C 318.560 299.509,318.920 299.494,321.600 296.400 C 322.744 295.080,323.526 294.010,323.340 294.023 C 323.153 294.035,322.131 295.115,321.068 296.423 M317.996 300.154 C 317.448 300.679,316.552 301.669,316.004 302.354 C 315.094 303.493,314.018 304.141,314.600 303.200 C 314.736 302.980,314.644 302.800,314.397 302.800 C 314.133 302.800,314.048 303.121,314.192 303.575 C 314.370 304.136,313.908 304.949,312.519 306.520 C 310.758 308.511,308.383 311.298,307.400 312.525 C 307.180 312.800,306.657 313.424,306.238 313.912 C 305.819 314.401,305.584 314.800,305.716 314.800 C 305.848 314.800,308.939 311.290,312.585 307.000 C 316.231 302.710,319.164 299.200,319.103 299.200 C 319.042 299.200,318.544 299.629,317.996 300.154 M303.400 310.071 C 302.294 310.689,302.289 310.696,302.574 311.158 C 302.918 311.715,304.800 310.851,304.800 310.136 C 304.800 309.492,304.465 309.477,303.400 310.071 M304.520 315.741 C 303.680 317.161,301.963 318.824,301.580 318.588 C 301.305 318.417,301.396 318.145,301.837 317.822 C 302.237 317.530,302.396 317.117,302.219 316.831 C 301.996 316.470,301.661 316.579,300.958 317.240 C 299.745 318.379,299.700 319.204,300.867 318.898 C 301.556 318.718,301.682 318.809,301.480 319.336 C 301.068 320.410,301.404 320.135,303.600 317.600 C 304.744 316.280,305.490 315.200,305.259 315.200 C 305.029 315.200,304.696 315.443,304.520 315.741 M276.676 325.500 C 276.575 325.885,276.493 325.570,276.493 324.800 C 276.493 324.030,276.575 323.715,276.676 324.100 C 276.776 324.485,276.776 325.115,276.676 325.500 M292.308 327.125 C 292.405 327.414,292.042 327.600,291.384 327.600 C 290.457 327.600,290.375 327.512,290.811 326.987 C 291.368 326.316,292.060 326.379,292.308 327.125 M293.230 328.911 L 292.304 329.800 293.006 328.688 C 293.392 328.076,293.809 327.676,293.932 327.799 C 294.055 327.922,293.739 328.422,293.230 328.911 M291.745 331.000 C 291.618 331.330,291.384 331.600,291.224 331.600 C 291.064 331.600,290.933 331.330,290.933 331.000 C 290.933 330.670,291.168 330.400,291.454 330.400 C 291.753 330.400,291.877 330.656,291.745 331.000 M288.167 332.657 C 288.501 333.530,288.057 333.936,287.584 333.188 C 287.111 332.440,287.101 332.000,287.557 332.000 C 287.754 332.000,288.028 332.296,288.167 332.657 M287.879 335.503 C 287.152 336.230,286.802 336.389,286.806 335.991 C 286.814 335.202,287.268 334.565,288.000 334.315 C 289.039 333.959,288.995 334.387,287.879 335.503 M284.800 335.000 C 285.208 335.491,285.180 335.600,284.649 335.600 C 284.292 335.600,284.000 335.330,284.000 335.000 C 284.000 334.670,284.068 334.400,284.151 334.400 C 284.234 334.400,284.526 334.670,284.800 335.000 M275.600 349.551 C 275.600 349.744,275.330 350.126,275.000 350.400 C 274.349 350.941,274.267 350.811,274.643 349.833 C 274.900 349.163,275.600 348.957,275.600 349.551 " stroke="none" fill="#afd68a" fill-rule="evenodd"></path><path id="path3" d="M13.079 3.824 C 7.479 5.353,3.480 9.917,2.782 15.576 C 2.605 17.019,2.414 94.700,2.360 188.200 L 2.260 358.200 3.317 360.400 C 5.315 364.563,8.118 367.087,12.260 368.453 C 14.447 369.175,18.043 369.200,117.616 369.200 L 220.708 369.200 226.038 375.500 C 228.969 378.965,231.469 381.890,231.593 382.000 C 231.716 382.110,232.714 383.280,233.809 384.600 C 234.904 385.920,235.893 387.090,236.006 387.200 C 236.120 387.310,237.707 389.152,239.535 391.293 C 246.263 399.177,246.584 399.106,256.236 387.600 C 259.466 383.750,262.939 379.632,263.954 378.449 C 264.969 377.266,266.070 375.980,266.400 375.591 C 266.730 375.202,267.810 373.935,268.800 372.776 C 269.790 371.617,270.835 370.338,271.123 369.934 C 271.615 369.243,272.571 369.200,287.351 369.200 C 300.944 369.200,303.323 369.110,305.029 368.534 C 309.051 367.176,312.079 364.431,313.946 360.448 L 315.000 358.200 315.200 337.728 L 315.400 317.257 333.250 296.128 C 343.067 284.508,353.693 271.940,356.862 268.200 C 396.678 221.217,395.045 223.256,394.591 221.110 C 393.782 217.287,393.336 217.215,370.000 217.147 C 359.110 217.115,344.980 216.979,338.600 216.844 L 327.000 216.600 326.792 203.000 L 326.584 189.400 326.492 203.076 C 326.421 213.665,326.513 216.823,326.900 217.065 C 327.175 217.237,341.870 217.508,359.556 217.668 L 391.713 217.958 392.856 219.054 C 395.042 221.148,393.594 225.166,389.200 229.200 C 389.010 229.375,386.680 232.142,384.200 235.140 C 383.760 235.671,383.215 236.307,382.989 236.553 C 382.529 237.054,377.955 242.456,376.685 244.000 C 375.588 245.333,371.455 250.147,371.191 250.400 C 371.007 250.576,368.509 253.549,366.200 256.340 C 365.760 256.871,365.218 257.507,364.996 257.753 C 364.773 257.999,363.693 259.280,362.596 260.600 C 361.498 261.920,360.506 263.090,360.391 263.200 C 360.207 263.376,357.709 266.349,355.400 269.140 C 354.960 269.671,354.415 270.307,354.188 270.553 C 353.849 270.921,340.627 286.545,337.731 290.000 C 335.501 292.660,331.777 297.049,331.411 297.448 C 330.191 298.777,327.355 302.193,327.072 302.674 C 326.891 302.980,326.261 303.736,325.672 304.353 C 325.082 304.971,324.238 305.909,323.795 306.438 C 323.352 306.967,321.541 309.110,319.769 311.200 C 317.998 313.290,316.073 315.637,315.492 316.415 L 314.434 317.830 314.317 338.415 L 314.200 359.000 313.043 360.979 C 311.259 364.030,309.244 365.959,306.400 367.339 L 303.800 368.600 287.509 368.728 L 271.217 368.856 267.109 373.679 C 264.849 376.331,262.510 379.063,261.912 379.751 C 261.313 380.438,258.163 384.188,254.912 388.084 C 246.851 397.744,246.104 397.950,240.951 391.934 C 239.438 390.168,238.017 388.515,237.793 388.261 C 237.570 388.008,234.334 384.200,230.603 379.800 C 226.872 375.400,223.577 371.550,223.282 371.244 C 222.987 370.938,222.467 370.263,222.126 369.744 L 221.508 368.800 119.009 368.800 C 52.265 368.800,15.773 368.660,14.397 368.400 C 9.177 367.409,5.321 364.126,3.428 359.059 C 2.424 356.371,2.716 278.673,3.757 271.600 C 4.097 269.290,4.380 267.175,4.387 266.900 C 4.415 265.805,5.200 266.481,5.200 267.600 C 5.200 268.787,5.224 268.800,7.380 268.800 L 9.560 268.800 9.695 266.500 C 9.875 263.441,10.017 270.058,10.364 297.600 C 10.532 310.910,10.685 256.515,10.727 168.487 C 10.788 41.042,10.888 16.163,11.346 15.068 C 12.064 13.349,14.039 11.728,16.086 11.177 C 17.291 10.852,56.037 10.823,159.999 11.066 L 302.263 11.400 303.696 12.493 C 306.580 14.693,306.429 11.883,306.308 61.400 L 306.200 105.800 237.400 105.651 L 168.600 105.501 167.206 106.463 C 164.833 108.099,164.944 106.193,164.818 147.492 C 164.755 168.561,164.679 192.640,164.651 201.000 L 164.600 216.200 132.200 216.200 C 96.192 216.200,98.150 216.047,96.730 218.970 C 95.630 221.234,96.144 222.599,99.452 226.200 C 102.634 229.663,108.206 236.201,111.087 239.850 C 112.454 241.582,114.669 244.170,116.008 245.600 C 117.347 247.030,119.738 249.792,121.321 251.738 C 122.905 253.683,125.820 257.161,127.800 259.465 C 136.290 269.346,137.930 271.291,140.281 274.263 C 141.646 275.989,143.855 278.570,145.191 280.000 C 146.527 281.430,149.010 284.284,150.710 286.341 C 157.175 294.169,159.980 297.471,161.975 299.600 C 163.109 300.810,165.153 303.209,166.518 304.932 C 169.526 308.728,173.584 313.550,177.557 318.051 C 179.183 319.893,180.988 321.940,181.569 322.600 C 182.149 323.260,187.953 330.100,194.467 337.800 C 200.981 345.500,207.843 353.600,209.715 355.800 C 211.587 358.000,213.036 359.935,212.936 360.100 C 212.683 360.514,17.818 360.446,15.673 360.031 C 13.486 359.609,11.743 357.966,11.221 355.835 L 10.820 354.200 10.981 356.000 C 11.168 358.075,13.088 360.118,15.261 360.552 C 18.461 361.192,213.600 360.817,213.600 360.171 C 213.600 359.703,203.819 347.672,202.405 346.400 C 202.211 346.226,199.955 343.549,197.400 340.460 C 196.960 339.929,196.418 339.293,196.196 339.047 C 195.973 338.801,194.893 337.524,193.796 336.209 C 191.452 333.400,189.997 331.708,187.786 329.218 C 186.898 328.218,185.147 326.140,183.896 324.600 C 182.644 323.060,181.067 321.170,180.390 320.400 C 176.206 315.640,170.454 308.914,168.417 306.400 C 166.197 303.660,165.782 303.173,163.137 300.194 C 160.494 297.220,156.945 292.994,151.400 286.218 C 150.520 285.143,149.350 283.791,148.800 283.214 C 147.276 281.616,141.677 275.010,138.616 271.200 C 137.114 269.330,135.686 267.620,135.443 267.400 C 135.199 267.180,133.923 265.740,132.606 264.200 C 131.289 262.660,130.111 261.310,129.988 261.200 C 129.866 261.090,128.431 259.380,126.800 257.400 C 125.169 255.420,123.731 253.710,123.604 253.600 C 123.476 253.490,123.019 252.939,122.586 252.375 C 121.560 251.037,118.295 247.242,115.898 244.600 C 114.852 243.447,113.596 241.985,113.107 241.352 C 112.617 240.718,112.033 239.999,111.809 239.753 C 111.584 239.507,110.410 238.078,109.200 236.578 C 107.990 235.079,105.638 232.310,103.972 230.426 C 96.709 222.208,96.150 221.217,97.404 218.792 C 98.460 216.750,97.589 216.800,132.150 216.800 C 157.289 216.800,164.822 216.689,165.053 216.314 C 165.218 216.047,165.430 191.708,165.524 162.226 C 165.714 102.858,165.489 107.438,168.270 106.430 C 169.221 106.086,186.752 106.040,237.907 106.250 C 282.695 106.433,306.356 106.394,306.516 106.136 C 307.210 105.013,306.906 14.933,306.204 13.862 C 305.821 13.278,305.349 12.800,305.154 12.800 C 304.959 12.800,304.800 12.530,304.800 12.200 C 304.800 11.870,304.752 11.600,304.694 11.600 C 304.636 11.600,303.649 11.256,302.499 10.836 C 301.216 10.367,299.306 10.062,297.548 10.046 C 295.974 10.031,294.591 9.925,294.476 9.810 C 294.361 9.694,295.053 9.600,296.013 9.600 C 298.060 9.600,297.740 8.925,295.600 8.729 C 294.369 8.616,294.187 8.455,294.090 7.400 C 293.847 4.735,293.670 4.457,292.098 4.271 C 291.274 4.173,293.750 4.118,297.600 4.149 C 307.556 4.229,311.196 6.432,313.795 13.950 C 314.321 15.472,314.400 21.587,314.400 60.863 C 314.400 96.625,314.504 106.064,314.900 106.214 C 315.175 106.318,317.290 106.452,319.600 106.513 C 327.175 106.711,326.775 105.435,326.896 129.749 L 326.992 149.000 327.110 130.000 C 327.263 105.168,327.633 106.349,319.600 106.000 L 315.000 105.800 314.800 59.800 C 314.657 26.994,314.470 13.446,314.147 12.566 C 312.687 8.591,309.192 5.254,305.029 3.860 C 302.348 2.963,16.363 2.927,13.079 3.824 M173.500 114.222 C 173.335 114.393,173.243 134.888,173.297 159.767 L 173.393 205.000 173.601 159.800 C 173.715 134.940,173.852 114.550,173.904 114.489 C 173.957 114.427,206.175 114.497,245.500 114.644 C 284.825 114.790,316.910 114.815,316.800 114.699 C 316.476 114.356,173.829 113.882,173.500 114.222 M318.115 164.600 C 318.101 189.020,318.204 210.710,318.345 212.800 C 318.485 214.890,318.550 195.630,318.490 170.000 C 318.429 144.370,318.325 122.680,318.259 121.800 C 318.194 120.920,318.128 140.180,318.115 164.600 M32.159 130.363 C 29.846 131.413,28.523 132.987,28.213 135.055 C 27.852 137.462,28.344 138.004,29.197 136.138 C 30.419 133.461,33.609 131.200,36.164 131.200 C 36.708 131.200,37.264 131.020,37.400 130.800 C 37.536 130.580,37.287 130.400,36.847 130.400 C 36.407 130.400,35.936 130.220,35.800 130.000 C 35.424 129.391,33.981 129.535,32.159 130.363 M318.540 220.000 C 318.540 221.870,318.609 222.635,318.693 221.700 C 318.777 220.765,318.777 219.235,318.693 218.300 C 318.609 217.365,318.540 218.130,318.540 220.000 M110.262 225.100 C 110.087 225.384,113.406 229.477,119.016 235.894 C 120.407 237.485,121.824 239.184,122.164 239.670 C 122.504 240.155,122.863 240.470,122.963 240.370 C 123.142 240.191,121.321 237.885,117.615 233.600 C 110.237 225.068,110.347 225.293,113.500 225.096 L 115.800 224.951 113.124 224.876 C 111.652 224.834,110.364 224.935,110.262 225.100 M351.100 225.500 C 383.020 225.613,381.793 225.520,379.725 227.678 C 379.134 228.295,378.819 228.787,379.025 228.771 C 379.660 228.722,381.676 226.046,381.407 225.611 C 381.236 225.334,371.379 225.232,351.276 225.297 L 321.400 225.395 351.100 225.500 M376.433 231.600 C 375.284 232.920,374.492 233.990,374.673 233.977 C 375.006 233.954,379.006 229.200,378.692 229.200 C 378.597 229.200,377.581 230.280,376.433 231.600 M32.956 230.379 C 30.433 230.981,28.653 232.905,28.216 235.500 C 27.888 237.446,28.389 237.743,29.224 236.100 C 30.476 233.637,33.413 231.638,35.995 231.491 C 36.876 231.441,37.597 231.273,37.598 231.119 C 37.600 230.865,34.881 229.950,34.400 230.043 C 34.290 230.064,33.640 230.216,32.956 230.379 M371.022 238.000 C 369.328 239.980,368.091 241.590,368.271 241.578 C 368.452 241.565,369.410 240.557,370.400 239.337 C 371.390 238.117,372.712 236.507,373.339 235.759 C 373.965 235.012,374.393 234.400,374.289 234.400 C 374.186 234.400,372.715 236.020,371.022 238.000 M129.871 248.658 C 133.572 253.027,137.983 258.222,139.673 260.201 C 144.970 266.405,158.041 281.763,158.736 282.600 C 162.991 287.723,170.527 296.431,170.909 296.666 C 171.302 296.907,167.996 292.762,167.188 292.000 C 167.071 291.890,163.030 287.120,158.208 281.400 C 153.385 275.680,149.331 270.910,149.199 270.800 C 149.066 270.690,145.610 266.640,141.518 261.800 C 126.550 244.097,123.886 240.997,123.517 240.857 C 123.310 240.778,126.169 244.289,129.871 248.658 M365.540 244.500 C 364.364 245.875,363.722 246.748,364.113 246.441 C 364.962 245.774,368.160 242.000,367.877 242.000 C 367.768 242.000,366.717 243.125,365.540 244.500 M359.820 251.200 C 357.915 253.400,356.501 255.190,356.678 255.177 C 357.017 255.153,363.786 247.200,363.468 247.200 C 363.366 247.200,361.725 249.000,359.820 251.200 M353.022 259.200 C 351.328 261.180,350.091 262.790,350.271 262.777 C 350.674 262.749,356.658 255.600,356.279 255.600 C 356.181 255.600,354.715 257.220,353.022 259.200 M348.800 264.200 C 348.283 264.750,348.027 265.194,348.230 265.187 C 348.572 265.176,350.221 263.200,349.888 263.200 C 349.806 263.200,349.317 263.650,348.800 264.200 M346.600 266.800 C 345.968 267.460,345.619 267.990,345.825 267.978 C 346.178 267.957,348.239 265.600,347.905 265.600 C 347.820 265.600,347.232 266.140,346.600 266.800 M341.200 273.200 C 340.056 274.520,339.211 275.600,339.321 275.600 C 339.431 275.600,340.456 274.520,341.600 273.200 C 342.744 271.880,343.589 270.800,343.479 270.800 C 343.369 270.800,342.344 271.880,341.200 273.200 M332.215 283.800 C 328.569 288.090,325.724 291.588,325.893 291.573 C 326.062 291.558,327.115 290.433,328.234 289.073 C 329.353 287.713,332.285 284.215,334.750 281.300 C 337.215 278.385,339.144 276.000,339.038 276.000 C 338.931 276.000,335.861 279.510,332.215 283.800 M323.349 294.284 C 322.277 295.540,321.609 296.439,321.864 296.283 C 322.423 295.939,325.754 292.000,325.486 292.000 C 325.382 292.000,324.420 293.028,323.349 294.284 M172.000 298.200 C 172.517 298.750,173.006 299.200,173.088 299.200 C 173.421 299.200,171.772 297.224,171.430 297.213 C 171.227 297.206,171.483 297.650,172.000 298.200 M178.648 306.013 C 181.657 309.540,184.313 312.547,184.552 312.694 C 184.790 312.841,182.939 310.540,180.437 307.581 C 174.374 300.406,173.663 299.600,173.401 299.600 C 173.278 299.600,175.639 302.486,178.648 306.013 M317.775 300.900 L 316.600 302.200 317.900 301.025 C 318.615 300.379,319.200 299.794,319.200 299.725 C 319.200 299.416,318.870 299.688,317.775 300.900 M312.400 307.200 C 311.256 308.520,310.411 309.600,310.521 309.600 C 310.631 309.600,311.656 308.520,312.800 307.200 C 313.944 305.880,314.789 304.800,314.679 304.800 C 314.569 304.800,313.544 305.880,312.400 307.200 M303.415 317.800 C 299.769 322.090,296.924 325.588,297.093 325.573 C 297.262 325.558,298.390 324.347,299.600 322.881 C 300.810 321.416,303.746 317.918,306.124 315.108 C 308.502 312.299,310.357 310.000,310.246 310.000 C 310.135 310.000,307.061 313.510,303.415 317.800 M186.799 315.599 C 187.719 316.698,188.681 317.726,188.936 317.883 C 189.191 318.039,188.523 317.140,187.451 315.884 C 186.380 314.628,185.418 313.600,185.314 313.600 C 185.210 313.600,185.879 314.499,186.799 315.599 M189.600 318.614 C 189.600 318.936,195.233 325.600,195.505 325.600 C 195.625 325.600,195.456 325.285,195.129 324.900 C 194.803 324.515,193.425 322.890,192.067 321.290 C 190.710 319.689,189.600 318.485,189.600 318.614 M196.000 326.230 C 196.000 326.575,202.411 334.000,202.709 334.000 C 202.842 334.000,202.495 333.505,201.940 332.900 C 201.384 332.295,199.821 330.490,198.465 328.890 C 197.109 327.289,196.000 326.092,196.000 326.230 M293.429 329.700 C 291.738 331.735,291.279 332.410,292.411 331.200 C 294.706 328.746,296.963 326.000,296.686 326.000 C 296.587 326.000,295.121 327.665,293.429 329.700 M304.646 329.100 C 304.117 329.705,301.122 333.260,297.989 337.000 C 294.856 340.740,291.462 344.768,290.447 345.952 C 289.431 347.135,287.880 348.950,287.000 349.984 C 286.120 351.018,284.560 352.841,283.533 354.036 C 282.506 355.231,281.250 356.746,280.741 357.404 C 280.233 358.062,279.588 358.838,279.309 359.129 C 277.776 360.721,278.290 360.800,290.197 360.800 C 303.211 360.800,303.932 360.663,305.761 357.843 L 306.800 356.240 306.800 342.120 C 306.800 326.737,306.786 326.649,304.646 329.100 M306.191 355.117 C 305.882 357.280,304.058 359.435,302.067 359.988 C 300.047 360.549,279.600 360.539,279.600 359.977 C 279.600 359.561,304.967 329.273,305.783 328.714 C 306.250 328.395,306.617 352.132,306.191 355.117 M287.968 336.100 C 286.784 337.475,286.132 338.348,286.520 338.041 C 287.334 337.394,290.562 333.600,290.297 333.600 C 290.200 333.600,289.151 334.725,287.968 336.100 M204.322 336.300 C 204.977 337.125,205.929 338.160,206.440 338.600 C 206.950 339.040,206.498 338.365,205.435 337.100 C 203.289 334.546,202.456 333.947,204.322 336.300 M272.571 354.300 C 265.367 362.825,259.007 370.323,258.437 370.962 C 257.866 371.601,257.629 371.993,257.908 371.833 C 258.188 371.673,262.688 366.483,267.908 360.298 C 273.129 354.114,278.840 347.361,280.600 345.292 C 285.507 339.522,286.094 338.800,285.874 338.800 C 285.761 338.800,279.775 345.775,272.571 354.300 M210.414 343.300 C 211.994 345.225,213.372 346.800,213.477 346.800 C 213.745 346.800,211.600 344.170,209.400 341.800 C 208.378 340.700,208.835 341.375,210.414 343.300 M214.000 347.450 C 214.000 347.800,220.792 355.600,221.097 355.600 C 221.236 355.600,220.894 355.105,220.338 354.500 C 219.782 353.895,218.128 352.006,216.663 350.302 C 215.198 348.598,214.000 347.315,214.000 347.450 M224.001 359.400 C 224.551 360.060,225.045 360.675,225.100 360.767 C 225.155 360.858,225.288 360.845,225.396 360.738 C 225.504 360.630,225.009 360.015,224.297 359.371 L 223.003 358.200 224.001 359.400 M227.600 363.600 C 228.744 364.920,229.769 366.000,229.879 366.000 C 229.989 366.000,229.144 364.920,228.000 363.600 C 226.856 362.280,225.831 361.200,225.721 361.200 C 225.611 361.200,226.456 362.280,227.600 363.600 M233.065 369.948 C 234.789 372.010,236.740 374.388,237.400 375.233 C 238.060 376.079,238.748 376.777,238.929 376.785 C 239.256 376.800,234.378 370.954,231.465 367.840 C 230.621 366.938,231.341 367.887,233.065 369.948 M253.968 376.300 C 251.830 378.695,251.021 379.717,251.464 379.463 C 251.719 379.317,252.681 378.298,253.601 377.199 C 255.368 375.088,255.637 374.430,253.968 376.300 M241.200 379.725 C 241.200 379.794,241.785 380.379,242.500 381.025 L 243.800 382.200 242.625 380.900 C 241.530 379.688,241.200 379.416,241.200 379.725 M244.604 383.600 C 246.220 385.666,246.479 385.695,247.929 383.968 C 248.653 383.105,249.133 382.400,248.997 382.400 C 248.860 382.400,248.294 382.940,247.739 383.600 C 246.474 385.103,246.271 385.096,244.749 383.500 L 243.509 382.200 244.604 383.600 " stroke="none" fill="#787a77" fill-rule="evenodd"></path><path id="path4" d="M87.100 3.100 C 126.755 3.156,191.645 3.156,231.300 3.100 C 270.955 3.044,238.510 2.998,159.200 2.998 C 79.890 2.998,47.445 3.044,87.100 3.100 M12.400 3.468 C 8.428 4.823,5.213 7.655,3.363 11.427 L 2.200 13.800 1.962 174.200 C 1.728 331.492,1.687 336.298,0.556 337.237 C -0.132 337.807,-0.284 362.800,0.400 362.800 C 0.620 362.800,0.800 363.070,0.800 363.400 C 0.800 363.730,0.980 364.000,1.200 364.000 C 1.420 364.000,1.601 364.225,1.603 364.500 C 1.607 365.081,5.513 369.355,6.400 369.747 C 6.730 369.893,7.810 370.539,8.800 371.181 C 15.347 375.431,25.316 378.398,33.051 378.399 C 35.452 378.400,36.432 378.557,36.800 379.000 C 37.233 379.522,40.838 379.604,64.549 379.629 C 79.537 379.645,92.700 379.822,93.800 380.022 C 94.900 380.222,97.240 380.614,99.000 380.893 C 100.760 381.172,102.380 381.517,102.600 381.660 C 102.820 381.803,104.037 382.049,105.305 382.207 C 106.573 382.364,107.709 382.652,107.829 382.847 C 107.949 383.041,108.656 383.200,109.400 383.200 C 110.144 383.200,110.851 383.359,110.971 383.553 C 111.091 383.748,112.227 384.036,113.495 384.193 C 114.763 384.351,115.980 384.597,116.200 384.740 C 116.420 384.883,117.770 385.212,119.200 385.472 C 123.151 386.189,124.090 386.424,125.460 387.036 C 126.154 387.346,127.268 387.600,127.937 387.600 C 128.606 387.600,129.264 387.780,129.400 388.000 C 129.536 388.220,130.132 388.401,130.724 388.402 C 131.316 388.404,132.316 388.674,132.946 389.002 C 133.576 389.331,134.523 389.600,135.051 389.600 C 135.579 389.600,136.323 389.761,136.705 389.958 C 137.367 390.298,139.441 390.781,143.766 391.600 C 144.848 391.805,145.919 392.159,146.146 392.386 C 146.374 392.614,146.938 392.800,147.400 392.800 C 147.862 392.800,148.411 392.968,148.620 393.173 C 148.829 393.379,149.720 393.604,150.600 393.673 C 153.087 393.870,152.445 396.986,149.700 398.036 C 148.932 398.330,148.800 398.674,148.800 400.390 L 148.800 402.400 245.800 402.400 L 342.800 402.400 342.800 401.296 C 342.800 400.626,342.486 399.996,342.000 399.693 C 341.560 399.418,341.200 399.013,341.200 398.793 C 341.200 398.277,339.030 396.000,338.538 396.000 C 338.331 396.000,337.459 395.280,336.600 394.400 C 335.741 393.520,334.825 392.800,334.565 392.800 C 334.304 392.800,333.576 392.531,332.946 392.202 C 332.316 391.874,331.496 391.604,331.124 391.602 C 330.752 391.601,330.336 391.420,330.200 391.200 C 330.064 390.980,329.623 390.800,329.219 390.800 C 328.816 390.800,328.382 390.530,328.255 390.200 C 328.129 389.870,327.681 389.600,327.262 389.600 C 326.842 389.600,326.274 389.330,326.000 389.000 C 325.726 388.670,325.072 388.400,324.546 388.400 C 324.020 388.400,323.277 388.241,322.895 388.047 C 321.025 387.096,320.070 386.795,318.600 386.696 C 316.817 386.575,316.126 385.057,317.380 384.017 C 317.721 383.734,318.000 383.194,318.000 382.818 C 318.000 382.441,318.132 382.001,318.294 381.840 C 319.479 380.654,320.634 365.046,319.626 363.832 C 319.331 363.476,319.593 362.595,320.548 360.730 C 321.282 359.297,322.013 357.604,322.173 356.966 C 322.333 356.329,322.672 355.679,322.926 355.522 C 323.540 355.143,323.553 348.052,322.942 346.765 C 322.691 346.234,322.164 344.902,321.772 343.804 C 321.381 342.706,320.552 341.006,319.930 340.025 C 319.309 339.045,318.800 338.014,318.800 337.734 C 318.800 337.453,318.259 336.824,317.598 336.335 C 315.872 335.059,315.605 333.543,315.602 325.031 C 315.600 318.405,315.687 317.360,316.300 316.631 C 316.997 315.804,316.996 315.804,316.120 316.544 L 315.240 317.288 315.120 337.744 L 315.000 358.200 313.946 360.448 C 312.079 364.431,309.051 367.176,305.029 368.534 C 303.323 369.110,300.944 369.200,287.351 369.200 C 272.571 369.200,271.615 369.243,271.123 369.934 C 270.835 370.338,269.790 371.617,268.800 372.776 C 267.810 373.935,266.730 375.202,266.400 375.591 C 266.070 375.980,264.969 377.266,263.954 378.449 C 262.939 379.632,259.466 383.750,256.236 387.600 C 246.584 399.106,246.263 399.177,239.535 391.293 C 237.707 389.152,236.120 387.310,236.006 387.200 C 235.893 387.090,234.904 385.920,233.809 384.600 C 232.714 383.280,231.716 382.110,231.593 382.000 C 231.469 381.890,228.969 378.965,226.038 375.500 L 220.708 369.200 117.616 369.200 C 18.043 369.200,14.447 369.175,12.260 368.453 C 8.118 367.087,5.315 364.563,3.317 360.400 L 2.260 358.200 2.360 188.200 C 2.414 94.700,2.605 17.019,2.782 15.576 C 3.494 9.809,7.579 5.311,13.600 3.664 C 14.719 3.358,14.800 3.280,14.000 3.272 C 13.450 3.267,12.730 3.355,12.400 3.468 M304.800 3.773 C 306.474 4.450,307.116 4.547,306.580 4.042 C 306.371 3.845,305.570 3.577,304.800 3.446 L 303.400 3.207 304.800 3.773 M308.000 5.067 C 309.311 5.988,312.471 9.183,313.076 10.200 C 313.339 10.640,313.564 10.790,313.576 10.532 C 313.613 9.809,309.845 5.886,308.342 5.083 C 307.120 4.429,307.090 4.428,308.000 5.067 M15.462 11.366 C 13.545 12.071,12.062 13.413,11.348 15.087 C 10.886 16.172,10.816 42.960,10.899 185.487 L 10.997 354.600 11.199 185.200 C 11.363 46.784,11.496 15.617,11.923 14.800 C 12.211 14.250,13.139 13.305,13.987 12.700 L 15.528 11.600 158.231 11.600 C 236.717 11.600,300.858 11.533,300.767 11.452 C 300.177 10.928,16.885 10.843,15.462 11.366 M313.995 12.381 C 314.204 13.111,314.496 13.819,314.644 13.954 C 315.049 14.325,314.399 11.857,313.979 11.427 C 313.768 11.212,313.775 11.615,313.995 12.381 M304.343 13.500 C 304.844 14.215,305.339 14.800,305.441 14.800 C 305.787 14.800,304.850 13.340,304.137 12.767 C 303.636 12.365,303.696 12.578,304.343 13.500 M305.908 60.420 L 306.017 105.593 285.308 105.702 L 264.600 105.811 285.400 105.805 L 306.200 105.800 306.302 61.340 C 306.358 36.886,306.268 16.512,306.102 16.063 C 305.936 15.614,305.849 35.575,305.908 60.420 M314.939 60.400 L 315.000 105.800 319.659 106.000 C 323.502 106.165,324.466 106.334,325.161 106.964 C 325.625 107.385,326.099 107.634,326.215 107.518 C 327.032 106.701,323.934 105.792,319.900 105.665 L 315.600 105.529 315.560 61.265 C 315.538 36.919,315.376 16.550,315.199 16.000 C 315.022 15.450,314.905 35.430,314.939 60.400 M88.900 54.265 C 88.545 54.408,88.400 55.674,88.400 58.633 L 88.400 62.800 175.600 62.800 L 262.800 62.800 262.800 58.643 C 262.800 55.221,262.688 54.443,262.167 54.243 C 261.410 53.952,89.620 53.974,88.900 54.265 M88.572 72.129 C 88.460 72.421,88.420 74.357,88.484 76.430 L 88.600 80.200 175.600 80.200 L 262.600 80.200 262.600 76.000 L 262.600 71.800 175.688 71.699 C 103.758 71.616,88.740 71.690,88.572 72.129 M89.100 89.200 C 88.108 89.823,88.049 97.380,89.033 97.757 C 89.860 98.075,261.340 98.075,262.167 97.757 C 262.688 97.557,262.800 96.779,262.800 93.357 L 262.800 89.200 204.500 89.195 C 172.435 89.193,133.510 89.094,118.000 88.975 C 97.855 88.822,89.600 88.886,89.100 89.200 M171.300 105.494 C 172.345 105.576,174.055 105.576,175.100 105.494 C 176.145 105.412,175.290 105.344,173.200 105.344 C 171.110 105.344,170.255 105.412,171.300 105.494 M166.800 106.000 C 166.423 106.243,151.894 106.390,127.780 106.394 C 98.438 106.399,89.247 106.513,88.880 106.880 C 88.304 107.456,88.210 114.636,88.775 114.984 C 88.981 115.112,106.081 115.210,126.775 115.204 L 164.400 115.192 164.400 119.594 L 164.400 123.996 126.500 124.098 L 88.600 124.200 88.600 128.400 L 88.600 132.600 126.500 132.702 L 164.400 132.804 164.400 137.200 L 164.400 141.596 126.500 141.698 L 88.600 141.800 88.487 145.850 C 88.377 149.773,88.402 149.907,89.287 150.144 C 89.789 150.279,106.895 150.392,127.300 150.395 L 164.400 150.400 164.400 167.600 L 164.400 184.800 127.100 184.805 C 106.585 184.808,89.389 184.921,88.887 185.056 C 88.002 185.293,87.977 185.427,88.087 189.350 L 88.200 193.400 126.300 193.502 L 164.400 193.604 164.400 198.000 L 164.400 202.396 126.300 202.498 L 88.200 202.600 88.085 206.567 C 88.000 209.471,88.107 210.621,88.485 210.861 C 88.768 211.041,105.965 211.191,126.700 211.194 L 164.400 211.200 164.400 213.654 L 164.400 216.107 132.500 215.835 C 114.955 215.685,100.394 215.706,100.142 215.881 C 99.890 216.057,114.290 216.200,132.142 216.200 L 164.600 216.200 164.651 201.000 C 164.679 192.640,164.755 168.561,164.818 147.492 C 164.944 106.273,164.840 108.079,167.165 106.512 C 168.438 105.654,168.090 105.166,166.800 106.000 M326.428 108.276 C 326.518 109.315,327.144 110.196,327.172 109.324 C 327.187 108.842,327.020 108.336,326.800 108.200 C 326.580 108.064,326.413 108.098,326.428 108.276 M327.377 121.800 C 327.377 128.180,327.432 130.734,327.499 127.476 C 327.567 124.217,327.566 118.997,327.499 115.876 C 327.431 112.754,327.376 115.420,327.377 121.800 M31.200 129.907 C 27.116 132.622,26.123 137.041,28.773 140.699 C 30.720 143.387,35.532 144.411,34.198 141.854 C 32.136 137.903,36.475 134.413,39.583 137.522 C 41.558 139.496,42.373 136.453,40.797 132.993 C 39.296 129.698,34.051 128.011,31.200 129.907 M35.800 130.000 C 35.936 130.220,36.407 130.400,36.847 130.400 C 37.287 130.400,37.536 130.580,37.400 130.800 C 37.264 131.020,36.708 131.200,36.164 131.200 C 33.609 131.200,30.419 133.461,29.197 136.138 C 28.344 138.004,27.852 137.462,28.213 135.055 C 28.693 131.850,34.537 127.956,35.800 130.000 M326.898 182.476 C 326.844 201.108,326.936 216.437,327.103 216.540 C 327.269 216.643,337.574 216.811,350.003 216.914 C 365.305 217.041,368.791 217.007,360.800 216.808 C 354.310 216.646,344.096 216.488,338.102 216.457 L 327.205 216.400 327.100 182.500 L 326.995 148.600 326.898 182.476 M315.262 180.300 C 314.498 182.234,314.349 183.393,314.734 184.409 C 315.100 185.374,315.116 185.363,315.334 184.000 C 316.096 179.243,316.076 178.240,315.262 180.300 M311.910 189.423 C 311.787 189.546,311.782 190.011,311.899 190.457 C 312.061 191.076,312.191 191.142,312.449 190.734 C 313.096 189.714,312.665 188.668,311.910 189.423 M315.423 193.562 C 315.277 193.799,315.320 194.285,315.519 194.641 C 315.846 195.225,315.907 195.219,316.154 194.577 C 316.466 193.762,315.839 192.890,315.423 193.562 M312.120 197.600 C 312.120 198.810,312.195 199.305,312.287 198.700 C 312.378 198.095,312.378 197.105,312.287 196.500 C 312.195 195.895,312.120 196.390,312.120 197.600 M315.384 197.721 C 315.235 198.314,314.953 198.800,314.757 198.800 C 314.560 198.800,314.380 201.095,314.355 203.900 C 314.291 211.223,313.877 216.511,313.355 216.683 C 313.040 216.787,312.968 215.729,313.107 213.070 C 313.377 207.898,312.853 201.028,312.293 202.400 C 312.055 202.984,311.851 208.245,311.803 215.040 C 311.758 221.443,311.607 226.865,311.468 227.090 C 311.329 227.315,311.429 228.401,311.691 229.504 C 312.469 232.777,312.032 232.698,331.000 232.964 C 366.651 233.462,364.749 233.286,362.300 235.851 C 361.805 236.369,360.917 237.380,360.328 238.097 C 359.738 238.814,358.028 240.854,356.528 242.631 C 353.810 245.849,353.034 246.800,348.737 252.171 C 347.493 253.727,345.918 255.550,345.237 256.222 C 344.557 256.894,344.000 257.586,344.000 257.759 C 344.000 258.090,341.970 260.553,338.577 264.341 C 337.464 265.584,335.943 267.410,335.197 268.400 C 334.452 269.390,333.178 270.939,332.366 271.842 C 331.555 272.745,330.771 273.861,330.625 274.321 C 330.479 274.782,330.008 275.270,329.580 275.406 C 329.151 275.543,328.800 275.903,328.800 276.207 C 328.800 276.511,328.558 276.904,328.262 277.080 C 327.432 277.574,322.662 283.260,322.009 284.534 C 321.690 285.157,320.792 286.226,320.014 286.909 C 319.236 287.592,318.420 288.459,318.200 288.836 C 317.192 290.563,313.035 295.660,312.324 296.041 C 311.888 296.274,311.622 296.555,311.732 296.665 C 311.842 296.775,311.497 297.506,310.966 298.288 C 310.435 299.071,310.000 299.847,310.000 300.012 C 310.000 300.178,309.562 300.423,309.027 300.558 C 308.491 300.692,307.935 301.176,307.790 301.633 C 307.644 302.090,306.687 303.320,305.663 304.366 C 303.360 306.717,302.000 308.320,302.000 308.681 C 302.000 308.832,301.527 309.450,300.948 310.054 C 299.956 311.090,299.836 312.796,300.797 312.202 C 301.020 312.064,301.200 312.338,301.200 312.814 C 301.200 313.338,300.887 313.757,300.400 313.884 C 299.960 313.999,299.586 314.207,299.569 314.347 C 299.377 315.940,298.662 317.200,297.951 317.200 C 297.341 317.200,297.571 315.095,298.264 314.329 C 298.630 313.925,298.802 313.469,298.647 313.314 C 298.312 312.978,296.002 315.584,296.001 316.300 C 296.000 316.575,295.800 316.800,295.557 316.800 C 295.282 316.800,295.210 317.186,295.368 317.815 C 295.570 318.622,295.293 319.221,294.011 320.741 C 292.200 322.888,292.107 323.247,293.100 324.249 C 293.767 324.922,293.767 324.943,293.100 324.690 C 292.631 324.512,292.400 324.619,292.400 325.013 C 292.400 325.336,292.648 325.600,292.951 325.600 C 293.254 325.600,293.779 326.005,294.117 326.500 L 294.731 327.400 295.648 326.506 C 296.499 325.677,296.527 325.508,296.040 324.160 C 295.560 322.834,295.587 322.634,296.350 321.854 C 296.809 321.384,297.623 320.495,298.158 319.878 C 299.109 318.783,299.139 318.777,299.402 319.607 C 299.665 320.435,298.892 321.757,297.700 322.520 C 297.104 322.901,297.030 324.000,297.600 324.000 C 297.820 324.000,298.000 323.861,298.000 323.691 C 298.000 323.521,298.810 322.500,299.800 321.422 C 301.761 319.286,302.038 318.592,300.800 318.916 C 299.699 319.204,299.780 318.346,300.958 317.240 C 301.661 316.579,301.996 316.470,302.219 316.831 C 302.396 317.117,302.237 317.530,301.837 317.822 C 301.348 318.180,301.286 318.406,301.621 318.613 C 301.879 318.772,302.204 318.722,302.345 318.501 C 302.485 318.280,303.443 317.132,304.474 315.949 C 305.504 314.767,306.714 313.350,307.163 312.800 C 308.659 310.965,310.581 308.711,312.519 306.520 C 313.908 304.949,314.370 304.136,314.192 303.575 C 314.048 303.121,314.133 302.800,314.397 302.800 C 314.644 302.800,314.736 302.980,314.600 303.200 C 314.018 304.141,315.094 303.493,316.004 302.354 C 316.552 301.669,317.386 300.724,317.858 300.254 C 318.330 299.784,319.677 298.230,320.852 296.800 C 323.650 293.394,323.494 293.578,329.619 286.400 C 332.528 282.990,335.519 279.480,336.265 278.600 C 338.009 276.544,340.486 273.641,341.000 273.052 C 341.220 272.801,342.296 271.516,343.391 270.197 C 344.486 268.879,345.479 267.710,345.596 267.600 C 345.811 267.400,349.028 263.603,352.400 259.570 C 353.390 258.386,355.010 256.500,356.000 255.379 C 356.990 254.257,358.160 252.902,358.600 252.367 C 360.206 250.413,363.405 246.595,363.600 246.400 C 365.981 244.019,368.363 240.750,368.164 240.137 C 367.999 239.629,368.038 239.557,368.289 239.905 C 368.628 240.375,376.192 232.120,378.120 229.178 C 378.944 227.921,378.429 226.746,377.421 227.583 C 377.069 227.875,376.665 227.998,376.524 227.857 C 376.382 227.716,376.487 227.600,376.757 227.600 C 377.027 227.600,377.136 227.421,377.001 227.201 C 376.857 226.969,375.273 226.857,373.190 226.933 C 371.229 227.004,369.395 226.911,369.113 226.726 C 368.825 226.537,371.226 226.410,374.586 226.436 C 378.628 226.467,380.621 226.338,380.720 226.041 C 380.826 225.723,373.072 225.600,352.833 225.600 C 337.415 225.600,324.800 225.737,324.800 225.905 C 324.800 226.073,323.585 226.550,322.100 226.966 C 320.615 227.382,319.179 227.893,318.910 228.102 C 318.561 228.372,318.287 228.152,317.960 227.341 C 317.707 226.713,317.324 225.818,317.109 225.350 C 316.836 224.756,316.873 224.213,317.230 223.550 C 317.995 222.132,317.783 203.735,316.980 201.814 C 316.661 201.050,316.397 199.835,316.394 199.113 C 316.385 197.214,315.736 196.320,315.384 197.721 M96.923 217.900 C 95.415 219.923,95.574 219.858,92.298 219.782 C 88.031 219.684,88.000 219.716,88.000 224.224 C 88.000 228.861,88.000 228.861,94.579 228.797 C 97.010 228.774,99.577 228.765,100.282 228.777 C 101.505 228.799,108.000 235.574,108.000 236.827 C 108.000 237.047,104.099 237.203,98.500 237.206 C 87.099 237.213,87.940 236.840,88.085 241.833 L 88.200 245.800 101.985 245.905 C 110.370 245.969,115.925 246.165,116.165 246.405 C 117.538 247.778,116.854 246.453,115.414 244.950 C 114.440 243.933,112.508 241.661,111.121 239.900 C 108.229 236.229,102.676 229.709,99.452 226.200 C 95.602 222.009,95.209 218.135,98.501 216.812 C 99.159 216.548,99.217 216.444,98.720 216.425 C 98.347 216.411,97.538 217.075,96.923 217.900 M391.352 217.614 C 391.986 217.804,392.895 218.283,393.372 218.679 C 393.848 219.076,393.732 218.905,393.113 218.300 C 392.494 217.695,391.585 217.215,391.094 217.234 C 390.339 217.263,390.379 217.322,391.352 217.614 M394.456 220.400 C 394.456 220.730,394.611 221.360,394.800 221.800 C 395.017 222.304,395.144 222.378,395.144 222.000 C 395.144 221.670,394.989 221.040,394.800 220.600 C 394.583 220.096,394.456 220.022,394.456 220.400 M394.000 223.861 C 394.000 224.078,393.356 225.008,392.569 225.928 C 391.782 226.848,391.253 227.600,391.395 227.600 C 392.048 227.600,394.614 224.081,394.237 223.703 C 394.106 223.573,394.000 223.644,394.000 223.861 M313.952 226.658 C 313.603 227.078,313.362 227.100,312.942 226.752 C 312.522 226.403,312.500 226.162,312.848 225.742 C 313.197 225.322,313.438 225.300,313.858 225.648 C 314.278 225.997,314.300 226.238,313.952 226.658 M366.900 226.693 C 365.965 226.777,364.435 226.777,363.500 226.693 C 362.565 226.609,363.330 226.540,365.200 226.540 C 367.070 226.540,367.835 226.609,366.900 226.693 M377.280 229.280 C 377.023 229.537,376.681 229.614,376.518 229.452 C 376.356 229.289,376.483 228.996,376.800 228.800 C 377.547 228.338,377.884 228.676,377.280 229.280 M32.648 229.693 C 26.714 231.264,25.494 240.093,30.836 242.818 C 32.923 243.883,35.074 243.527,34.189 242.263 C 32.804 240.285,34.036 237.119,36.394 236.601 C 37.769 236.299,39.864 237.342,40.236 238.514 C 40.463 239.230,40.491 239.230,41.023 238.528 C 42.316 236.822,41.118 232.435,38.947 230.922 C 36.654 229.324,35.152 229.031,32.648 229.693 M36.100 230.421 C 38.044 230.961,38.004 231.377,35.995 231.491 C 33.413 231.638,30.476 233.637,29.224 236.100 C 28.389 237.743,27.888 237.446,28.216 235.500 C 28.732 232.434,30.610 230.777,34.400 230.043 C 34.510 230.022,35.275 230.192,36.100 230.421 M386.800 232.800 C 385.656 234.120,384.811 235.200,384.921 235.200 C 385.031 235.200,386.056 234.120,387.200 232.800 C 388.344 231.480,389.189 230.400,389.079 230.400 C 388.969 230.400,387.944 231.480,386.800 232.800 M373.200 233.800 C 373.608 234.291,373.580 234.400,373.049 234.400 C 372.692 234.400,372.400 234.130,372.400 233.800 C 372.400 233.470,372.468 233.200,372.551 233.200 C 372.634 233.200,372.926 233.470,373.200 233.800 M375.815 245.768 C 371.077 251.361,367.200 256.053,367.200 256.196 C 367.200 256.338,368.779 254.597,370.708 252.327 C 379.497 241.988,384.813 235.600,384.630 235.600 C 384.520 235.600,380.554 240.176,375.815 245.768 M119.050 249.400 C 120.108 250.720,121.025 251.875,121.087 251.967 C 121.149 252.058,121.276 252.057,121.370 251.963 C 121.463 251.870,120.547 250.715,119.332 249.397 L 117.124 247.000 119.050 249.400 M122.300 253.209 C 123.498 254.776,123.381 254.788,105.500 254.896 L 88.200 255.000 88.085 258.967 C 88.000 261.870,88.108 263.023,88.485 263.264 C 88.768 263.446,98.450 263.589,110.000 263.581 L 131.000 263.567 131.800 264.498 C 132.240 265.010,133.102 266.030,133.716 266.765 C 134.330 267.499,134.907 268.027,134.997 267.936 C 135.087 267.846,133.595 266.052,131.681 263.949 C 129.766 261.846,127.210 258.907,126.000 257.416 C 123.963 254.906,121.165 251.725,122.300 253.209 M363.643 260.176 C 362.079 262.033,360.800 263.658,360.800 263.786 C 360.800 263.915,361.910 262.711,363.267 261.110 C 364.625 259.510,366.003 257.885,366.329 257.500 C 366.656 257.115,366.825 256.800,366.705 256.800 C 366.585 256.800,365.207 258.319,363.643 260.176 M358.149 266.684 C 357.077 267.940,356.409 268.839,356.664 268.683 C 357.223 268.339,360.554 264.400,360.286 264.400 C 360.182 264.400,359.220 265.428,358.149 266.684 M136.558 270.041 C 137.351 271.054,138.000 271.999,138.000 272.141 C 138.000 272.284,126.750 272.400,113.000 272.400 L 88.000 272.400 88.000 276.376 C 88.000 278.563,88.160 280.451,88.355 280.572 C 88.550 280.693,101.327 280.798,116.747 280.805 C 132.168 280.813,145.067 280.927,145.410 281.059 C 146.139 281.339,152.800 289.050,152.800 289.614 C 152.800 289.852,140.690 290.034,120.700 290.098 L 88.600 290.200 88.485 294.167 C 88.400 297.071,88.507 298.221,88.885 298.461 C 89.168 298.641,105.478 298.791,125.129 298.794 C 153.183 298.799,160.960 298.907,161.335 299.300 C 162.571 300.592,168.000 307.163,168.000 307.366 C 168.000 307.493,150.135 307.642,128.300 307.698 L 88.600 307.800 88.400 311.455 C 88.290 313.465,88.258 315.400,88.329 315.755 C 88.447 316.344,92.268 316.400,132.029 316.400 C 175.067 316.400,175.610 316.410,176.400 317.200 C 178.287 319.087,177.489 317.782,175.346 315.476 C 174.056 314.088,172.010 311.726,170.800 310.227 C 165.897 304.156,160.783 298.059,160.487 297.934 C 160.315 297.860,158.739 296.064,156.987 293.941 C 155.234 291.819,152.409 288.399,150.710 286.341 C 149.010 284.284,146.527 281.430,145.191 280.000 C 143.855 278.570,141.646 275.980,140.281 274.244 C 138.916 272.509,137.196 270.439,136.458 269.644 C 135.126 268.211,135.127 268.215,136.558 270.041 M354.975 270.500 L 353.800 271.800 355.100 270.625 C 355.815 269.979,356.400 269.394,356.400 269.325 C 356.400 269.016,356.070 269.288,354.975 270.500 M347.453 279.300 C 331.964 297.518,321.330 310.224,321.455 310.367 C 321.535 310.458,321.659 310.458,321.732 310.367 C 322.032 309.988,346.008 281.508,348.896 278.100 C 350.621 276.065,351.939 274.400,351.825 274.400 C 351.711 274.400,349.744 276.605,347.453 279.300 M304.800 310.136 C 304.800 310.851,302.918 311.715,302.574 311.158 C 302.289 310.696,302.294 310.689,303.400 310.071 C 304.465 309.477,304.800 309.492,304.800 310.136 M318.800 313.200 C 317.656 314.520,316.811 315.600,316.921 315.600 C 317.031 315.600,318.056 314.520,319.200 313.200 C 320.344 311.880,321.189 310.800,321.079 310.800 C 320.969 310.800,319.944 311.880,318.800 313.200 M177.600 318.525 C 177.600 318.594,178.185 319.179,178.900 319.825 L 180.200 321.000 179.025 319.700 C 177.930 318.488,177.600 318.216,177.600 318.525 M184.070 326.100 C 185.263 327.475,189.257 332.155,192.946 336.500 C 196.636 340.845,199.737 344.400,199.839 344.400 C 199.941 344.400,197.932 341.925,195.376 338.900 C 192.819 335.875,188.899 331.206,186.664 328.525 C 184.429 325.844,182.443 323.639,182.251 323.625 C 182.059 323.611,182.878 324.725,184.070 326.100 M290.811 326.987 C 290.375 327.512,290.457 327.600,291.384 327.600 C 292.042 327.600,292.405 327.414,292.308 327.125 C 292.060 326.379,291.368 326.316,290.811 326.987 M293.006 328.688 L 292.304 329.800 293.230 328.911 C 293.739 328.422,294.055 327.922,293.932 327.799 C 293.809 327.676,293.392 328.076,293.006 328.688 M305.791 328.714 C 305.566 328.871,303.414 331.340,301.009 334.200 C 298.605 337.060,295.662 340.525,294.470 341.900 C 293.278 343.275,292.459 344.389,292.651 344.375 C 292.843 344.362,295.778 341.032,299.174 336.975 C 302.569 332.919,305.503 329.600,305.694 329.600 C 306.455 329.600,305.866 356.129,305.076 357.418 L 304.353 358.600 305.154 357.683 C 305.595 357.178,306.064 356.008,306.196 355.083 C 306.612 352.164,306.247 328.396,305.791 328.714 M290.933 331.000 C 290.933 331.330,291.064 331.600,291.224 331.600 C 291.384 331.600,291.618 331.330,291.745 331.000 C 291.877 330.656,291.753 330.400,291.454 330.400 C 291.168 330.400,290.933 330.670,290.933 331.000 M287.206 332.300 C 287.217 332.847,287.953 333.781,288.188 333.546 C 288.503 333.231,288.001 332.000,287.557 332.000 C 287.361 332.000,287.203 332.135,287.206 332.300 M288.000 334.315 C 287.268 334.565,286.814 335.202,286.806 335.991 C 286.802 336.389,287.152 336.230,287.879 335.503 C 288.995 334.387,289.039 333.959,288.000 334.315 M284.000 335.000 C 284.000 335.330,284.292 335.600,284.649 335.600 C 285.180 335.600,285.208 335.491,284.800 335.000 C 284.526 334.670,284.234 334.400,284.151 334.400 C 284.068 334.400,284.000 334.670,284.000 335.000 M200.000 344.925 C 200.000 344.994,200.585 345.579,201.300 346.225 L 202.600 347.400 201.425 346.100 C 200.330 344.888,200.000 344.616,200.000 344.925 M291.200 345.800 C 290.683 346.350,290.427 346.794,290.630 346.787 C 290.972 346.776,292.621 344.800,292.288 344.800 C 292.206 344.800,291.717 345.250,291.200 345.800 M288.000 349.600 C 286.856 350.920,286.074 351.988,286.260 351.972 C 286.604 351.944,290.573 347.200,290.253 347.200 C 290.157 347.200,289.144 348.280,288.000 349.600 M274.643 349.833 C 274.267 350.811,274.349 350.941,275.000 350.400 C 275.665 349.848,275.796 349.200,275.243 349.200 C 275.046 349.200,274.776 349.485,274.643 349.833 M207.471 353.644 C 209.192 355.649,211.108 357.899,211.729 358.644 L 212.858 360.000 114.729 360.099 L 16.600 360.198 114.579 360.300 C 168.468 360.356,212.691 360.266,212.853 360.101 C 213.122 359.825,205.056 350.000,204.560 350.000 C 204.441 350.000,205.751 351.640,207.471 353.644 M283.600 354.800 C 282.456 356.120,281.611 357.200,281.721 357.200 C 281.831 357.200,282.856 356.120,284.000 354.800 C 285.144 353.480,285.989 352.400,285.879 352.400 C 285.769 352.400,284.744 353.480,283.600 354.800 M11.600 357.074 C 11.600 357.648,14.279 360.004,14.914 359.988 C 15.181 359.981,15.040 359.784,14.600 359.550 C 14.160 359.316,13.305 358.563,12.700 357.877 C 12.095 357.191,11.600 356.830,11.600 357.074 M280.400 358.600 C 279.883 359.150,279.627 359.594,279.830 359.587 C 280.172 359.576,281.821 357.600,281.488 357.600 C 281.406 357.600,280.917 358.050,280.400 358.600 M284.900 360.299 C 287.925 360.367,292.875 360.367,295.900 360.299 C 298.925 360.231,296.450 360.175,290.400 360.175 C 284.350 360.175,281.875 360.231,284.900 360.299 " stroke="none" fill="#bec2b7" fill-rule="evenodd"></path></g></svg>