<svg id="svg" version="1.1" xmlns="http://www.w3.org/2000/svg" xmlns:xlink="http://www.w3.org/1999/xlink" width="400" height="438.09523809523813" viewBox="0, 0, 400,438.09523809523813"><g id="svgg"><path id="path0" d="M0.000 219.000 L 0.000 438.000 200.000 438.000 L 400.000 438.000 400.000 219.000 L 400.000 0.000 200.000 0.000 L 0.000 0.000 0.000 219.000 M320.076 23.962 C 320.888 24.269,322.096 25.016,322.760 25.622 C 323.424 26.229,324.872 27.025,325.978 27.393 C 327.254 27.817,328.320 28.503,328.895 29.271 C 329.393 29.937,330.640 31.332,331.666 32.372 C 335.643 36.400,335.549 34.681,335.753 107.200 C 335.940 173.218,335.915 172.391,337.876 176.778 C 338.380 177.906,344.139 183.964,356.813 196.699 C 369.470 209.418,375.183 215.427,375.542 216.400 C 375.826 217.170,376.405 218.703,376.829 219.808 C 377.880 222.544,377.800 224.395,376.454 228.504 C 375.062 232.750,376.408 231.234,355.096 252.570 C 345.273 262.404,338.419 269.578,337.929 270.539 C 335.932 274.453,335.941 274.183,335.740 340.600 C 335.521 413.142,335.557 412.478,331.719 414.850 C 330.980 415.307,330.013 416.391,329.570 417.258 C 328.902 418.568,328.276 419.059,325.883 420.152 C 324.297 420.876,322.761 421.758,322.469 422.112 C 320.628 424.346,330.173 424.200,186.000 424.200 C 42.911 424.200,51.417 424.337,48.792 421.993 C 48.087 421.363,46.607 420.523,45.505 420.127 C 44.313 419.698,43.156 418.937,42.650 418.248 C 42.183 417.611,40.953 416.259,39.919 415.245 C 37.623 412.994,37.396 412.408,36.395 406.166 C 35.293 399.303,35.126 49.725,36.221 42.370 C 37.290 35.183,37.782 33.826,39.792 32.513 C 40.539 32.024,41.462 30.968,41.843 30.165 C 42.403 28.986,43.042 28.479,45.168 27.527 C 46.616 26.879,48.255 25.916,48.810 25.386 C 51.166 23.139,43.271 23.257,186.600 23.334 C 298.353 23.394,318.826 23.490,320.076 23.962 " stroke="none" fill="#fbe7ec" fill-rule="evenodd"></path><path id="path1" d="M55.392 25.563 C 52.259 26.082,44.780 29.316,43.859 30.550 C 43.386 31.183,42.153 32.580,41.117 33.655 C 39.044 35.808,38.573 37.030,37.978 41.800 C 37.130 48.588,37.680 407.045,38.542 409.600 C 39.004 410.969,39.986 412.573,41.142 413.847 C 42.164 414.973,43.307 416.346,43.682 416.898 C 44.161 417.604,45.941 418.540,49.682 420.051 L 55.000 422.200 185.800 422.200 L 316.600 422.200 321.600 420.123 C 325.321 418.577,326.856 417.724,327.600 416.785 C 328.150 416.092,329.298 414.807,330.151 413.930 C 334.061 409.910,333.985 411.339,333.993 341.626 C 334.001 276.835,334.073 278.935,331.773 276.775 L 330.837 275.895 321.064 285.748 C 315.689 291.166,311.101 295.600,310.868 295.600 C 310.636 295.600,310.150 296.095,309.789 296.700 C 308.037 299.637,303.772 300.793,299.869 299.389 C 296.211 298.073,296.417 299.368,296.377 277.400 C 296.337 255.913,296.235 254.453,294.660 252.878 L 293.582 251.800 228.691 251.600 L 163.800 251.400 161.885 250.516 C 160.236 249.755,159.833 249.322,158.985 247.404 L 158.000 245.177 158.000 223.797 C 158.000 200.722,158.038 200.275,160.156 198.156 C 162.432 195.880,158.624 196.000,228.802 196.000 L 293.187 196.000 294.457 194.866 C 296.258 193.256,296.337 192.241,296.371 170.360 C 296.389 158.580,296.555 150.875,296.806 150.154 C 297.435 148.349,301.658 147.107,305.000 147.743 L 307.400 148.200 319.179 159.949 L 330.957 171.698 331.872 170.635 C 334.117 168.024,334.036 170.748,333.894 103.356 C 333.746 33.360,333.924 37.327,330.807 34.400 C 329.987 33.630,328.857 32.266,328.296 31.369 C 327.362 29.874,326.831 29.556,321.938 27.569 L 316.600 25.400 186.800 25.348 C 115.410 25.320,56.276 25.416,55.392 25.563 M316.000 28.799 C 321.039 29.427,326.400 30.858,326.401 31.574 C 326.404 32.520,327.879 34.747,329.600 36.400 C 332.081 38.784,331.970 35.711,332.018 103.068 C 332.062 163.842,332.027 165.922,330.954 167.158 C 330.879 167.245,326.358 162.862,320.909 157.417 C 306.762 143.284,303.698 141.416,299.738 144.504 C 298.823 145.217,297.531 146.099,296.866 146.465 C 294.194 147.935,294.232 147.616,293.991 170.200 C 293.789 189.107,293.616 192.162,292.710 192.888 C 292.649 192.937,263.710 193.072,228.400 193.188 L 164.200 193.400 161.656 194.272 C 155.502 196.381,155.400 196.860,155.400 223.800 C 155.400 250.915,155.447 251.133,161.800 253.261 L 164.600 254.199 228.600 254.409 C 263.800 254.525,292.649 254.661,292.710 254.710 C 293.623 255.457,293.793 258.460,293.995 277.400 C 294.236 299.982,294.198 299.668,296.867 301.135 C 297.532 301.501,298.719 302.299,299.505 302.909 C 303.650 306.128,306.326 304.532,320.648 290.304 L 331.095 279.924 331.572 281.262 C 332.235 283.123,332.184 406.141,331.519 408.086 C 331.272 408.809,330.143 410.409,329.010 411.642 C 327.876 412.876,326.777 414.485,326.566 415.218 C 326.146 416.683,325.765 416.839,319.000 418.306 C 314.754 419.227,57.804 419.398,53.200 418.483 C 46.187 417.090,45.347 416.763,44.801 415.225 C 44.524 414.441,43.343 412.792,42.178 411.561 C 40.727 410.027,39.955 408.829,39.729 407.761 C 39.303 405.739,39.297 41.888,39.724 39.871 C 39.938 38.857,40.764 37.562,42.173 36.029 C 43.343 34.757,44.508 33.085,44.762 32.314 C 45.313 30.647,49.477 29.341,56.400 28.665 C 59.873 28.326,313.255 28.456,316.000 28.799 " stroke="none" fill="#d46484" fill-rule="evenodd"></path><path id="path2" d="M56.400 28.665 C 49.477 29.341,45.313 30.647,44.762 32.314 C 44.508 33.085,43.343 34.757,42.173 36.029 C 40.764 37.562,39.938 38.857,39.724 39.871 C 39.297 41.888,39.303 405.739,39.729 407.761 C 39.955 408.829,40.727 410.027,42.178 411.561 C 43.343 412.792,44.524 414.441,44.801 415.225 C 45.347 416.763,46.187 417.090,53.200 418.483 C 57.804 419.398,314.754 419.227,319.000 418.306 C 325.765 416.839,326.146 416.683,326.566 415.218 C 326.777 414.485,327.876 412.876,329.010 411.642 C 330.143 410.409,331.272 408.809,331.519 408.086 C 332.184 406.141,332.235 283.123,331.572 281.262 L 331.095 279.924 320.648 290.304 C 306.326 304.532,303.650 306.128,299.505 302.909 C 298.719 302.299,297.532 301.501,296.867 301.135 C 294.198 299.668,294.236 299.982,293.995 277.400 C 293.793 258.460,293.623 255.457,292.710 254.710 C 292.649 254.661,263.800 254.525,228.600 254.409 L 164.600 254.199 161.800 253.261 C 155.447 251.133,155.400 250.915,155.400 223.800 C 155.400 196.860,155.502 196.381,161.656 194.272 L 164.200 193.400 228.400 193.188 C 263.710 193.072,292.649 192.937,292.710 192.888 C 293.616 192.162,293.789 189.107,293.991 170.200 C 294.232 147.616,294.194 147.935,296.866 146.465 C 297.531 146.099,298.823 145.217,299.738 144.504 C 303.698 141.416,306.762 143.284,320.909 157.417 C 326.358 162.862,330.879 167.245,330.954 167.158 C 332.027 165.922,332.062 163.842,332.018 103.068 C 331.970 35.711,332.081 38.784,329.600 36.400 C 327.879 34.747,326.404 32.520,326.401 31.574 C 326.400 30.858,321.039 29.427,316.000 28.799 C 313.255 28.456,59.873 28.326,56.400 28.665 M298.523 123.979 C 299.445 124.187,300.852 124.461,301.649 124.587 C 303.608 124.898,307.216 128.099,320.356 141.185 L 330.984 151.771 331.140 158.574 C 331.304 165.721,330.884 166.929,329.658 162.836 C 329.257 161.497,328.939 161.180,327.522 160.707 C 325.810 160.137,325.602 159.909,324.793 157.720 C 324.433 156.746,323.930 156.310,322.688 155.896 C 321.011 155.337,320.800 155.105,319.995 152.926 C 319.636 151.954,319.140 151.528,317.899 151.126 C 316.275 150.601,316.076 150.388,315.241 148.277 C 314.926 147.481,314.212 146.911,312.792 146.321 C 311.424 145.753,310.715 145.200,310.560 144.582 C 309.493 140.333,299.909 139.987,295.947 144.054 C 293.048 147.030,293.098 146.627,292.904 168.638 L 292.730 188.276 290.630 188.938 C 288.715 189.542,283.268 189.600,228.798 189.600 C 163.657 189.600,165.008 189.555,162.612 191.814 C 161.619 192.751,160.651 193.233,159.383 193.424 C 156.913 193.794,156.098 194.595,155.390 197.346 C 154.990 198.900,154.396 200.057,153.629 200.773 C 151.915 202.374,151.800 203.820,151.800 223.800 C 151.800 243.854,151.896 245.060,153.631 246.687 C 154.714 247.704,155.040 248.469,155.766 251.693 C 156.046 252.938,157.417 253.775,159.835 254.177 C 160.941 254.360,161.870 254.873,162.708 255.761 C 164.855 258.038,163.740 258.000,229.015 258.000 C 281.432 258.000,288.729 258.073,290.601 258.617 L 292.725 259.235 292.902 278.917 C 293.091 299.984,293.108 300.158,295.221 302.826 C 298.725 307.251,308.282 307.576,310.284 303.339 C 310.844 302.154,311.383 301.690,312.757 301.212 C 314.517 300.599,314.709 300.403,315.679 298.237 C 315.966 297.597,316.470 296.951,316.800 296.802 C 319.329 295.654,319.768 295.292,320.200 294.000 C 320.631 292.711,321.054 292.361,323.573 291.209 C 324.179 290.932,324.436 290.540,325.282 288.600 C 325.665 287.723,326.261 287.256,327.498 286.864 C 328.952 286.403,329.256 286.107,329.660 284.759 C 330.885 280.669,331.305 281.883,331.130 289.011 L 330.963 295.800 320.660 306.081 C 314.993 311.735,309.421 317.135,308.278 318.081 C 307.135 319.026,305.658 320.365,304.995 321.055 C 301.160 325.050,285.637 324.177,282.881 319.812 C 282.330 318.939,281.031 317.319,279.994 316.212 C 276.822 312.825,277.022 314.203,276.800 294.200 C 276.587 274.991,276.534 274.488,274.534 272.710 C 272.958 271.308,269.085 271.216,211.144 271.208 C 162.963 271.201,153.599 271.110,150.944 270.618 C 149.215 270.299,147.172 269.984,146.403 269.918 C 145.183 269.815,144.898 269.571,144.152 267.993 C 143.626 266.884,142.853 265.979,142.148 265.647 C 141.517 265.350,140.737 264.978,140.415 264.819 C 138.528 263.891,138.210 257.941,138.216 223.600 C 138.223 186.785,138.435 183.670,141.028 182.447 C 142.719 181.649,143.597 180.790,144.346 179.200 C 144.934 177.952,145.223 177.770,147.003 177.524 C 148.101 177.372,149.990 177.025,151.200 176.753 C 152.869 176.377,167.886 176.202,213.458 176.029 C 272.786 175.803,273.527 175.790,274.413 175.000 C 276.550 173.095,276.585 172.781,276.800 153.400 C 277.018 133.763,276.957 134.264,279.405 132.000 C 280.000 131.450,281.288 129.882,282.268 128.515 C 284.884 124.864,292.739 122.672,298.523 123.979 " stroke="none" fill="#bc1c4c" fill-rule="evenodd"></path><path id="path3" d="M291.200 124.065 C 285.422 125.251,284.154 125.883,282.268 128.515 C 281.288 129.882,280.000 131.450,279.405 132.000 C 276.957 134.264,277.018 133.763,276.800 153.400 C 276.585 172.781,276.550 173.095,274.413 175.000 C 273.527 175.790,272.786 175.803,213.458 176.029 C 167.886 176.202,152.869 176.377,151.200 176.753 C 149.990 177.025,148.101 177.372,147.003 177.524 C 145.223 177.770,144.934 177.952,144.346 179.200 C 143.597 180.790,142.719 181.649,141.028 182.447 C 138.435 183.670,138.223 186.785,138.216 223.600 C 138.210 257.941,138.528 263.891,140.415 264.819 C 140.737 264.978,141.517 265.350,142.148 265.647 C 142.853 265.979,143.626 266.884,144.152 267.993 C 144.898 269.571,145.183 269.815,146.403 269.918 C 147.172 269.984,149.215 270.299,150.944 270.618 C 153.599 271.110,162.963 271.201,211.144 271.208 C 269.085 271.216,272.958 271.308,274.534 272.710 C 276.534 274.488,276.587 274.991,276.800 294.200 C 277.022 314.203,276.822 312.825,279.994 316.212 C 281.031 317.319,282.330 318.939,282.881 319.812 C 285.637 324.177,301.160 325.050,304.995 321.055 C 305.658 320.365,307.135 319.026,308.278 318.081 C 309.421 317.135,314.993 311.735,320.660 306.081 L 330.963 295.800 331.130 289.011 C 331.305 281.883,330.885 280.669,329.660 284.759 C 329.256 286.107,328.952 286.403,327.498 286.864 C 326.261 287.256,325.665 287.723,325.282 288.600 C 324.436 290.540,324.179 290.932,323.573 291.209 C 321.054 292.361,320.631 292.711,320.200 294.000 C 319.768 295.292,319.329 295.654,316.800 296.802 C 316.470 296.951,315.966 297.597,315.679 298.237 C 314.709 300.403,314.517 300.599,312.757 301.212 C 311.383 301.690,310.844 302.154,310.284 303.339 C 308.282 307.576,298.725 307.251,295.221 302.826 C 293.108 300.158,293.091 299.984,292.902 278.917 L 292.725 259.235 290.601 258.617 C 288.729 258.073,281.432 258.000,229.015 258.000 C 163.740 258.000,164.855 258.038,162.708 255.761 C 161.870 254.873,160.941 254.360,159.835 254.177 C 157.417 253.775,156.046 252.938,155.766 251.693 C 155.040 248.469,154.714 247.704,153.631 246.687 C 151.896 245.060,151.800 243.854,151.800 223.800 C 151.800 203.820,151.915 202.374,153.629 200.773 C 154.396 200.057,154.990 198.900,155.390 197.346 C 156.098 194.595,156.913 193.794,159.383 193.424 C 160.651 193.233,161.619 192.751,162.612 191.814 C 165.008 189.555,163.657 189.600,228.798 189.600 C 283.268 189.600,288.715 189.542,290.630 188.938 L 292.730 188.276 292.904 168.638 C 293.098 146.627,293.048 147.030,295.947 144.054 C 299.909 139.987,309.493 140.333,310.560 144.582 C 310.715 145.200,311.424 145.753,312.792 146.321 C 314.212 146.911,314.926 147.481,315.241 148.277 C 316.076 150.388,316.275 150.601,317.899 151.126 C 319.140 151.528,319.636 151.954,319.995 152.926 C 320.800 155.105,321.011 155.337,322.688 155.896 C 323.930 156.310,324.433 156.746,324.793 157.720 C 325.602 159.909,325.810 160.137,327.522 160.707 C 328.939 161.180,329.257 161.497,329.658 162.836 C 330.884 166.929,331.304 165.721,331.140 158.574 L 330.984 151.771 320.356 141.185 C 307.216 128.099,303.608 124.898,301.649 124.587 C 300.852 124.461,299.445 124.187,298.523 123.979 C 296.517 123.526,293.665 123.560,291.200 124.065 " stroke="none" fill="#ac1744" fill-rule="evenodd"></path><path id="path4" d="M52.210 23.843 C 50.859 24.170,49.382 24.841,48.810 25.386 C 48.255 25.916,46.616 26.879,45.168 27.527 C 43.042 28.479,42.403 28.986,41.843 30.165 C 41.462 30.968,40.539 32.024,39.792 32.513 C 37.782 33.826,37.290 35.183,36.221 42.370 C 35.126 49.725,35.293 399.303,36.395 406.166 C 37.396 412.408,37.623 412.994,39.919 415.245 C 40.953 416.259,42.183 417.611,42.650 418.248 C 43.156 418.937,44.313 419.698,45.505 420.127 C 46.607 420.523,48.087 421.363,48.792 421.993 C 51.417 424.337,42.911 424.200,186.000 424.200 C 330.173 424.200,320.628 424.346,322.469 422.112 C 322.761 421.758,324.297 420.876,325.883 420.152 C 328.276 419.059,328.902 418.568,329.570 417.258 C 330.013 416.391,330.980 415.307,331.719 414.850 C 335.557 412.478,335.521 413.142,335.740 340.600 C 335.941 274.183,335.932 274.453,337.929 270.539 C 338.419 269.578,345.273 262.404,355.096 252.570 C 376.408 231.234,375.062 232.750,376.454 228.504 C 377.800 224.395,377.880 222.544,376.829 219.808 C 376.405 218.703,375.826 217.170,375.542 216.400 C 375.183 215.427,369.470 209.418,356.813 196.699 C 344.139 183.964,338.380 177.906,337.876 176.778 C 335.915 172.391,335.940 173.218,335.753 107.200 C 335.549 34.681,335.643 36.400,331.666 32.372 C 330.640 31.332,329.393 29.937,328.895 29.271 C 328.320 28.503,327.254 27.817,325.978 27.393 C 324.872 27.025,323.424 26.229,322.760 25.622 C 320.154 23.242,330.220 23.411,186.600 23.334 C 72.529 23.273,54.275 23.342,52.210 23.843 M321.938 27.569 C 326.831 29.556,327.362 29.874,328.296 31.369 C 328.857 32.266,329.987 33.630,330.807 34.400 C 333.924 37.327,333.746 33.360,333.894 103.356 C 334.036 170.748,334.117 168.024,331.872 170.635 L 330.957 171.698 319.179 159.949 L 307.400 148.200 305.000 147.743 C 301.658 147.107,297.435 148.349,296.806 150.154 C 296.555 150.875,296.389 158.580,296.371 170.360 C 296.337 192.241,296.258 193.256,294.457 194.866 L 293.187 196.000 228.802 196.000 C 158.624 196.000,162.432 195.880,160.156 198.156 C 158.038 200.275,158.000 200.722,158.000 223.797 L 158.000 245.177 158.985 247.404 C 159.833 249.322,160.236 249.755,161.885 250.516 L 163.800 251.400 228.691 251.600 L 293.582 251.800 294.660 252.878 C 296.235 254.453,296.337 255.913,296.377 277.400 C 296.417 299.368,296.211 298.073,299.869 299.389 C 303.772 300.793,308.037 299.637,309.789 296.700 C 310.150 296.095,310.636 295.600,310.868 295.600 C 311.101 295.600,315.689 291.166,321.064 285.748 L 330.837 275.895 331.773 276.775 C 334.073 278.935,334.001 276.835,333.993 341.626 C 333.985 411.339,334.061 409.910,330.151 413.930 C 329.298 414.807,328.150 416.092,327.600 416.785 C 326.856 417.724,325.321 418.577,321.600 420.123 L 316.600 422.200 185.800 422.200 L 55.000 422.200 49.682 420.051 C 45.941 418.540,44.161 417.604,43.682 416.898 C 43.307 416.346,42.164 414.973,41.142 413.847 C 39.986 412.573,39.004 410.969,38.542 409.600 C 37.680 407.045,37.130 48.588,37.978 41.800 C 38.573 37.030,39.044 35.808,41.117 33.655 C 42.153 32.580,43.386 31.183,43.859 30.550 C 44.780 29.316,52.259 26.082,55.392 25.563 C 56.276 25.416,115.410 25.320,186.800 25.348 L 316.600 25.400 321.938 27.569 " stroke="none" fill="#eca0b4" fill-rule="evenodd"></path></g></svg>