<svg id="svg" version="1.1" xmlns="http://www.w3.org/2000/svg" xmlns:xlink="http://www.w3.org/1999/xlink" width="400" height="446.51162790697674" viewBox="0, 0, 400,446.51162790697674"><g id="svgg"><path id="path0" d="M281.470 125.863 C 281.322 126.012,281.200 140.484,281.200 158.024 C 281.200 186.735,281.137 189.939,280.567 190.157 C 280.219 190.291,235.399 190.400,180.967 190.400 L 82.000 190.400 82.000 223.200 L 82.000 256.000 180.967 256.000 C 235.399 256.000,280.219 256.109,280.567 256.243 C 281.137 256.461,281.200 259.683,281.200 288.576 C 281.200 306.226,281.309 320.776,281.443 320.910 C 281.577 321.043,282.342 320.554,283.143 319.821 C 283.944 319.089,288.650 315.102,293.600 310.960 C 298.550 306.819,302.841 303.196,303.135 302.909 C 303.429 302.622,304.329 301.897,305.135 301.296 C 305.941 300.696,306.690 300.105,306.800 299.983 C 306.910 299.860,308.800 298.242,311.000 296.386 C 313.200 294.530,315.090 292.917,315.200 292.800 C 315.310 292.684,316.390 291.789,317.600 290.812 C 318.810 289.834,320.522 288.397,321.405 287.617 C 322.288 286.838,323.889 285.480,324.964 284.600 C 326.039 283.720,327.117 282.820,327.359 282.600 C 328.204 281.834,330.651 279.791,332.389 278.400 C 333.352 277.630,334.423 276.718,334.770 276.373 C 335.116 276.028,339.900 271.986,345.400 267.390 C 350.900 262.794,355.602 258.837,355.849 258.596 C 356.097 258.355,357.070 257.538,358.012 256.779 C 358.955 256.021,360.020 255.130,360.379 254.800 C 360.739 254.470,361.876 253.517,362.906 252.681 C 363.937 251.846,365.010 250.944,365.290 250.677 C 365.571 250.410,366.877 249.293,368.194 248.196 C 369.510 247.098,370.950 245.871,371.394 245.470 C 371.837 245.068,373.460 243.719,375.000 242.471 C 376.540 241.223,377.890 240.107,378.000 239.992 C 378.208 239.774,382.411 236.252,383.718 235.200 C 384.128 234.870,384.867 234.233,385.360 233.785 C 385.854 233.337,387.144 232.257,388.228 231.385 C 389.313 230.513,390.290 229.708,390.400 229.595 C 391.096 228.880,396.524 224.366,397.099 224.023 C 397.723 223.652,397.598 223.419,395.959 221.903 C 394.062 220.149,393.714 219.851,389.994 216.802 C 388.787 215.812,387.620 214.810,387.400 214.575 C 387.180 214.339,386.013 213.349,384.806 212.373 C 382.359 210.395,381.463 209.650,380.000 208.380 C 379.450 207.902,378.197 206.856,377.216 206.055 C 376.235 205.255,375.144 204.330,374.791 204.000 C 374.119 203.371,373.541 202.884,364.800 195.578 C 361.830 193.096,359.310 190.960,359.200 190.832 C 359.090 190.705,358.149 189.917,357.110 189.081 C 356.070 188.246,354.990 187.342,354.710 187.073 C 354.429 186.803,353.660 186.167,353.000 185.659 C 352.340 185.151,351.169 184.165,350.398 183.467 C 349.627 182.770,347.737 181.173,346.198 179.918 C 344.659 178.663,342.927 177.223,342.349 176.718 C 341.771 176.213,340.435 175.080,339.378 174.200 C 338.322 173.320,337.265 172.409,337.029 172.176 C 336.793 171.942,335.504 170.862,334.165 169.776 C 332.826 168.689,329.419 165.836,326.594 163.435 C 320.768 158.485,321.559 159.150,314.400 153.173 C 311.430 150.694,308.910 148.560,308.800 148.431 C 308.690 148.303,307.340 147.177,305.800 145.929 C 304.260 144.681,302.640 143.329,302.200 142.924 C 301.760 142.519,300.860 141.771,300.200 141.261 C 299.540 140.752,298.368 139.765,297.597 139.067 C 296.825 138.370,295.385 137.145,294.397 136.345 C 293.408 135.544,292.186 134.526,291.681 134.081 C 291.175 133.636,290.008 132.671,289.087 131.936 C 288.166 131.201,286.509 129.796,285.406 128.814 C 281.961 125.746,281.748 125.586,281.470 125.863 " stroke="none" fill="#fc5424" fill-rule="evenodd"></path><path id="path1" d="M42.800 3.817 C 41.590 4.119,40.026 4.374,39.324 4.383 C 38.622 4.392,37.936 4.580,37.800 4.800 C 37.664 5.020,37.186 5.200,36.737 5.200 C 36.288 5.200,35.264 5.485,34.460 5.832 C 32.330 6.755,26.234 9.765,26.000 10.009 C 25.890 10.124,25.260 10.560,24.600 10.978 C 20.601 13.507,15.994 18.066,13.259 22.200 C 12.676 23.080,12.065 23.860,11.900 23.933 C 11.735 24.007,11.600 24.401,11.600 24.810 C 11.600 25.218,11.437 25.653,11.238 25.776 C 10.560 26.195,8.066 31.697,7.057 35.000 C 5.342 40.612,5.400 33.965,5.400 223.600 C 5.400 413.530,5.327 405.286,7.058 411.600 C 8.118 415.467,11.707 422.851,13.625 425.110 C 13.947 425.489,14.839 426.595,15.606 427.567 C 17.490 429.956,18.669 431.142,20.801 432.796 C 21.790 433.564,23.030 434.582,23.555 435.058 C 24.081 435.535,25.521 436.437,26.755 437.062 C 27.990 437.688,29.090 438.290,29.200 438.400 C 29.408 438.608,31.162 439.456,33.660 440.557 C 34.464 440.911,35.398 441.200,35.737 441.200 C 36.076 441.200,36.464 441.380,36.600 441.600 C 36.736 441.820,37.278 442.000,37.804 442.000 C 38.330 442.000,39.798 442.270,41.065 442.600 C 43.091 443.128,59.987 443.200,181.327 443.200 C 331.511 443.200,320.922 443.351,327.200 441.119 C 328.410 440.689,329.760 440.231,330.200 440.102 C 330.640 439.973,331.671 439.447,332.492 438.934 C 333.313 438.420,334.075 438.000,334.186 438.000 C 335.477 438.000,344.322 431.029,346.252 428.492 C 347.446 426.922,348.698 425.408,349.447 424.628 C 349.693 424.372,350.020 423.766,350.174 423.281 C 350.328 422.797,350.622 422.400,350.827 422.400 C 351.032 422.400,351.200 422.126,351.200 421.792 C 351.200 421.458,351.605 420.513,352.100 419.692 C 354.209 416.196,355.592 412.401,356.508 407.600 C 356.788 406.132,356.974 381.010,357.067 332.131 L 357.206 258.861 358.703 257.486 C 359.526 256.730,360.920 255.435,361.800 254.610 L 363.400 253.109 361.616 254.455 C 360.635 255.195,358.562 256.970,357.010 258.400 C 355.458 259.830,353.291 261.748,352.194 262.662 C 351.097 263.576,348.940 265.370,347.400 266.649 C 345.860 267.927,344.510 269.070,344.400 269.187 C 344.290 269.304,343.122 270.300,341.803 271.400 C 338.834 273.878,338.045 274.541,336.881 275.539 C 336.375 275.973,335.264 276.896,334.412 277.590 C 333.560 278.285,332.354 279.303,331.731 279.854 C 331.109 280.404,329.790 281.518,328.800 282.327 C 327.810 283.137,326.910 283.890,326.800 284.001 C 326.440 284.362,323.796 286.571,322.014 288.000 C 321.054 288.770,320.073 289.590,319.834 289.823 C 319.489 290.159,311.912 296.533,307.800 299.946 C 306.066 301.385,298.988 307.401,298.800 307.595 C 298.690 307.709,297.340 308.828,295.800 310.083 C 294.260 311.338,292.460 312.839,291.800 313.419 C 291.140 314.000,289.808 315.133,288.841 315.937 C 287.873 316.742,286.879 317.580,286.631 317.800 C 282.744 321.251,280.486 322.695,280.193 321.917 C 280.086 321.633,279.954 306.820,279.899 289.000 L 279.800 256.600 180.600 256.400 L 81.400 256.200 81.400 223.200 L 81.400 190.200 180.600 190.000 L 279.800 189.800 280.006 157.200 C 280.119 139.270,280.254 124.572,280.306 124.537 C 280.625 124.325,282.119 125.017,282.911 125.744 C 283.424 126.215,285.094 127.621,286.622 128.870 C 288.150 130.118,289.760 131.468,290.200 131.870 C 290.640 132.271,291.990 133.398,293.200 134.373 C 294.410 135.349,295.580 136.339,295.800 136.573 C 296.020 136.808,297.010 137.655,298.000 138.455 C 298.990 139.256,300.250 140.302,300.800 140.780 C 301.350 141.257,302.166 141.953,302.614 142.324 C 305.993 145.131,308.231 147.015,308.400 147.197 C 308.510 147.315,309.587 148.219,310.794 149.205 C 313.364 151.308,314.731 152.445,315.357 153.000 C 315.605 153.220,317.066 154.477,318.604 155.794 C 320.142 157.111,321.490 158.286,321.600 158.405 C 321.710 158.523,322.610 159.241,323.600 160.000 C 324.590 160.759,325.490 161.477,325.600 161.595 C 325.710 161.714,327.600 163.333,329.800 165.193 C 332.000 167.052,333.995 168.760,334.234 168.987 C 334.473 169.214,335.454 170.030,336.415 170.800 C 337.375 171.570,339.970 173.725,342.180 175.590 C 344.391 177.454,346.542 179.254,346.960 179.590 C 347.378 179.925,348.020 180.470,348.385 180.800 C 348.751 181.130,350.029 182.210,351.225 183.199 C 355.027 186.344,355.293 186.573,356.797 188.000 C 358.805 189.905,360.623 191.474,363.216 193.541 C 364.709 194.732,364.956 194.858,363.996 193.941 C 362.354 192.373,358.605 189.174,357.893 188.734 C 357.507 188.495,357.349 172.520,357.162 114.915 C 357.015 69.614,356.773 40.556,356.531 39.200 C 355.897 35.656,354.996 32.748,353.763 30.268 C 353.453 29.645,353.200 28.880,353.200 28.568 C 353.200 28.255,353.032 28.000,352.827 28.000 C 352.622 28.000,352.327 27.595,352.171 27.100 C 351.534 25.069,345.864 17.240,343.800 15.542 C 343.360 15.180,342.608 14.550,342.129 14.142 C 339.474 11.881,338.148 10.893,336.467 9.926 C 330.952 6.753,326.336 5.009,320.400 3.856 C 315.670 2.938,46.475 2.900,42.800 3.817 M366.400 196.130 C 366.400 196.239,367.885 197.549,369.700 199.041 C 371.515 200.532,373.090 201.854,373.200 201.976 C 373.725 202.564,377.600 205.623,377.600 205.451 C 377.600 205.343,375.935 203.852,373.900 202.139 C 371.865 200.425,370.110 198.924,370.000 198.801 C 369.516 198.264,366.400 195.952,366.400 196.130 M379.570 207.332 C 380.589 208.454,380.808 208.593,380.787 208.100 C 380.781 207.935,380.286 207.454,379.687 207.032 L 378.600 206.264 379.570 207.332 M382.380 209.553 C 385.417 212.392,390.000 216.183,390.000 215.856 C 390.000 215.745,388.335 214.260,386.300 212.556 C 382.354 209.252,380.712 207.993,382.380 209.553 M391.970 217.732 C 392.989 218.854,393.208 218.993,393.187 218.500 C 393.181 218.335,392.686 217.854,392.087 217.432 L 391.000 216.664 391.970 217.732 M395.705 220.862 C 398.641 223.584,398.729 223.281,393.812 227.362 C 391.509 229.274,389.492 231.052,389.330 231.314 C 389.065 231.742,390.099 230.908,396.500 225.526 C 399.121 223.323,399.021 222.951,395.000 219.927 C 393.948 219.136,394.190 219.456,395.705 220.862 M383.400 236.070 C 380.540 238.469,377.840 240.818,377.400 241.290 C 376.960 241.762,377.239 241.619,378.020 240.974 C 378.801 240.328,380.225 239.170,381.186 238.400 C 382.146 237.630,383.127 236.818,383.366 236.596 C 383.814 236.178,388.471 232.313,388.767 232.113 C 388.858 232.051,388.858 231.934,388.767 231.854 C 388.675 231.774,386.260 233.671,383.400 236.070 M371.000 246.470 C 368.140 248.869,365.440 251.223,365.000 251.701 L 364.200 252.570 365.200 251.785 C 365.750 251.353,366.290 250.910,366.400 250.800 C 366.510 250.690,367.451 249.917,368.490 249.081 C 369.530 248.246,370.610 247.342,370.890 247.073 C 371.171 246.803,371.890 246.205,372.489 245.742 C 374.360 244.299,376.490 242.356,376.342 242.229 C 376.264 242.163,373.860 244.071,371.000 246.470 " stroke="none" fill="#fccbbc" fill-rule="evenodd"></path><path id="path2" d="M0.000 223.200 L 0.000 446.400 200.000 446.400 L 400.000 446.400 400.000 223.200 L 400.000 0.000 200.000 0.000 L 0.000 0.000 0.000 223.200 M323.000 3.531 C 323.880 3.820,325.500 4.329,326.600 4.662 C 328.688 5.295,330.091 5.831,331.338 6.474 C 337.002 9.394,338.708 10.460,341.656 12.918 C 343.557 14.503,345.769 16.610,346.572 17.600 C 347.375 18.590,348.394 19.795,348.836 20.277 C 350.954 22.588,355.051 30.723,356.150 34.800 C 356.476 36.010,356.976 37.720,357.260 38.600 C 357.673 39.878,357.803 55.140,357.906 114.400 L 358.036 188.600 360.770 190.732 C 362.274 191.905,364.214 193.525,365.081 194.332 C 365.948 195.140,367.364 196.324,368.228 196.965 C 369.093 197.606,370.464 198.802,371.275 199.623 C 372.086 200.445,372.920 201.180,373.128 201.258 C 373.600 201.435,376.600 203.865,377.995 205.200 C 378.570 205.750,379.751 206.724,380.620 207.364 C 381.489 208.004,382.581 208.949,383.047 209.464 C 383.512 209.979,384.001 210.400,384.133 210.400 C 384.265 210.400,384.899 210.895,385.543 211.500 C 386.186 212.105,387.227 212.990,387.856 213.466 C 388.485 213.942,389.450 214.727,390.000 215.211 C 390.550 215.694,391.806 216.744,392.791 217.545 C 393.776 218.345,394.967 219.405,395.437 219.900 C 395.907 220.395,396.406 220.800,396.546 220.800 C 396.998 220.800,398.314 222.298,398.570 223.104 C 398.762 223.712,398.300 224.325,396.509 225.839 C 395.239 226.913,394.000 227.973,393.756 228.196 C 392.010 229.785,390.774 230.800,390.584 230.800 C 390.462 230.800,389.965 231.208,389.481 231.707 C 388.531 232.684,386.787 234.180,384.008 236.400 C 383.044 237.170,381.433 238.560,380.428 239.489 C 379.423 240.417,378.441 241.182,378.246 241.189 C 378.051 241.195,377.507 241.605,377.037 242.100 C 376.087 243.101,374.250 244.691,371.605 246.800 C 370.640 247.570,369.358 248.675,368.757 249.255 C 368.156 249.836,366.984 250.826,366.152 251.455 C 365.320 252.085,364.170 253.050,363.595 253.600 C 362.656 254.499,359.996 256.712,358.561 257.789 C 358.103 258.134,357.993 270.175,357.884 332.200 C 357.780 390.765,357.647 406.575,357.242 408.000 C 356.960 408.990,356.463 410.790,356.137 412.000 C 353.602 421.397,345.187 432.493,337.060 437.152 C 332.820 439.583,329.619 441.150,327.600 441.782 C 326.390 442.161,324.770 442.667,324.000 442.906 C 323.230 443.145,320.980 443.519,319.000 443.738 C 313.418 444.356,48.523 444.312,43.600 443.693 C 38.263 443.022,32.770 441.348,29.600 439.426 C 28.830 438.959,27.480 438.222,26.600 437.789 C 25.720 437.355,24.910 436.902,24.800 436.781 C 24.690 436.661,23.502 435.727,22.161 434.705 C 13.703 428.262,7.904 419.155,5.538 408.600 C 4.806 405.333,4.729 40.744,5.460 38.200 C 7.115 32.442,7.773 30.584,8.955 28.333 C 10.867 24.691,12.484 21.831,12.761 21.600 C 12.894 21.490,14.048 20.106,15.326 18.525 C 16.604 16.944,18.944 14.604,20.525 13.326 C 22.106 12.048,23.490 10.893,23.600 10.761 C 23.862 10.445,28.061 8.123,30.600 6.890 C 31.700 6.356,32.870 5.786,33.200 5.624 C 34.060 5.201,39.939 3.523,42.200 3.055 C 44.582 2.561,321.478 3.031,323.000 3.531 " stroke="none" fill="#fcfbfb" fill-rule="evenodd"></path><path id="path3" d="M280.306 124.537 C 280.254 124.572,280.119 139.270,280.006 157.200 L 279.800 189.800 180.600 190.000 L 81.400 190.200 81.400 223.200 L 81.400 256.200 180.600 256.400 L 279.800 256.600 279.899 289.000 C 279.954 306.820,280.086 321.633,280.193 321.917 C 280.486 322.695,282.744 321.251,286.631 317.800 C 286.879 317.580,287.873 316.742,288.841 315.937 C 289.808 315.133,291.140 314.000,291.800 313.419 C 292.460 312.839,294.260 311.338,295.800 310.083 C 297.340 308.828,298.690 307.709,298.800 307.595 C 298.988 307.401,306.066 301.385,307.800 299.946 C 311.912 296.533,319.489 290.159,319.834 289.823 C 320.073 289.590,321.054 288.770,322.014 288.000 C 323.796 286.571,326.440 284.362,326.800 284.001 C 326.910 283.890,327.810 283.137,328.800 282.327 C 329.790 281.518,331.109 280.404,331.731 279.854 C 332.354 279.303,333.560 278.285,334.412 277.590 C 335.264 276.896,336.375 275.973,336.881 275.539 C 338.045 274.541,338.834 273.878,341.803 271.400 C 343.122 270.300,344.290 269.304,344.400 269.187 C 344.510 269.070,345.860 267.927,347.400 266.649 C 348.940 265.370,351.100 263.576,352.200 262.662 C 353.300 261.748,355.370 259.918,356.800 258.595 C 358.230 257.272,360.298 255.472,361.396 254.595 C 362.494 253.718,363.754 252.671,364.196 252.269 C 364.638 251.867,372.425 245.312,381.500 237.702 C 390.575 230.092,398.000 223.649,398.000 223.383 C 398.000 223.118,396.335 221.488,394.300 219.761 C 392.265 218.034,390.510 216.526,390.400 216.410 C 390.290 216.295,389.349 215.517,388.310 214.681 C 387.270 213.846,386.190 212.944,385.910 212.677 C 385.629 212.410,384.322 211.293,383.004 210.196 C 381.686 209.098,379.334 207.120,377.778 205.800 C 376.222 204.480,374.509 203.040,373.971 202.600 C 372.396 201.311,368.428 197.987,365.377 195.400 C 363.821 194.080,361.578 192.190,360.393 191.200 C 359.208 190.210,357.582 188.770,356.780 188.000 C 355.296 186.575,355.048 186.361,351.225 183.199 C 350.029 182.210,348.751 181.130,348.385 180.800 C 348.020 180.470,347.378 179.925,346.960 179.590 C 346.542 179.254,344.391 177.454,342.180 175.590 C 339.970 173.725,337.375 171.570,336.415 170.800 C 335.454 170.030,334.473 169.214,334.234 168.987 C 333.995 168.760,332.000 167.052,329.800 165.193 C 327.600 163.333,325.710 161.714,325.600 161.595 C 325.490 161.477,324.590 160.759,323.600 160.000 C 322.610 159.241,321.710 158.523,321.600 158.405 C 321.378 158.164,316.846 154.262,315.047 152.762 C 314.413 152.233,313.693 151.619,313.447 151.398 C 313.201 151.177,312.010 150.190,310.800 149.204 C 309.590 148.218,308.510 147.315,308.400 147.197 C 308.231 147.015,305.993 145.131,302.614 142.324 C 302.166 141.953,301.350 141.257,300.800 140.780 C 300.250 140.302,298.990 139.256,298.000 138.455 C 297.010 137.655,296.020 136.808,295.800 136.573 C 295.580 136.339,294.410 135.349,293.200 134.373 C 291.990 133.398,290.640 132.271,290.200 131.870 C 289.760 131.468,288.150 130.118,286.622 128.870 C 285.094 127.621,283.424 126.215,282.911 125.744 C 282.119 125.017,280.625 124.325,280.306 124.537 M285.406 128.814 C 286.509 129.796,288.166 131.201,289.087 131.936 C 290.008 132.671,291.175 133.636,291.681 134.081 C 292.186 134.526,293.408 135.544,294.397 136.345 C 295.385 137.145,296.825 138.370,297.597 139.067 C 298.368 139.765,299.540 140.752,300.200 141.261 C 300.860 141.771,301.760 142.519,302.200 142.924 C 302.640 143.329,304.260 144.681,305.800 145.929 C 307.340 147.177,308.690 148.303,308.800 148.431 C 308.910 148.560,311.430 150.694,314.400 153.173 C 321.559 159.150,320.768 158.485,326.594 163.435 C 329.419 165.836,332.826 168.689,334.165 169.776 C 335.504 170.862,336.793 171.942,337.029 172.176 C 337.265 172.409,338.322 173.320,339.378 174.200 C 340.435 175.080,341.771 176.213,342.349 176.718 C 342.927 177.223,344.659 178.663,346.198 179.918 C 347.737 181.173,349.627 182.770,350.398 183.467 C 351.169 184.165,352.340 185.151,353.000 185.659 C 353.660 186.167,354.429 186.803,354.710 187.073 C 354.990 187.342,356.070 188.246,357.110 189.081 C 358.149 189.917,359.090 190.705,359.200 190.832 C 359.310 190.960,361.830 193.096,364.800 195.578 C 373.541 202.884,374.119 203.371,374.791 204.000 C 375.144 204.330,376.235 205.255,377.216 206.055 C 378.197 206.856,379.450 207.902,380.000 208.380 C 381.463 209.650,382.359 210.395,384.806 212.373 C 386.013 213.349,387.180 214.339,387.400 214.575 C 387.620 214.810,388.787 215.812,389.994 216.802 C 393.714 219.851,394.062 220.149,395.959 221.903 C 397.598 223.419,397.723 223.652,397.099 224.023 C 396.524 224.366,391.096 228.880,390.400 229.595 C 390.290 229.708,389.313 230.513,388.228 231.385 C 387.144 232.257,385.854 233.337,385.360 233.785 C 384.867 234.233,384.128 234.870,383.718 235.200 C 382.411 236.252,378.208 239.774,378.000 239.992 C 377.890 240.107,376.540 241.223,375.000 242.471 C 373.460 243.719,371.837 245.068,371.394 245.470 C 370.950 245.871,369.510 247.098,368.194 248.196 C 366.877 249.293,365.571 250.410,365.290 250.677 C 365.010 250.944,363.937 251.846,362.906 252.681 C 361.876 253.517,360.739 254.470,360.379 254.800 C 360.020 255.130,358.955 256.021,358.012 256.779 C 357.070 257.538,356.097 258.355,355.849 258.596 C 355.602 258.837,350.900 262.794,345.400 267.390 C 339.900 271.986,335.116 276.028,334.770 276.373 C 334.423 276.718,333.352 277.630,332.389 278.400 C 330.651 279.791,328.204 281.834,327.359 282.600 C 327.117 282.820,326.039 283.720,324.964 284.600 C 323.889 285.480,322.288 286.838,321.405 287.617 C 320.522 288.397,318.810 289.834,317.600 290.812 C 316.390 291.789,315.310 292.684,315.200 292.800 C 315.090 292.917,313.200 294.530,311.000 296.386 C 308.800 298.242,306.910 299.860,306.800 299.983 C 306.690 300.105,305.941 300.696,305.135 301.296 C 304.329 301.897,303.429 302.622,303.135 302.909 C 302.841 303.196,298.550 306.819,293.600 310.960 C 288.650 315.102,283.944 319.089,283.143 319.821 C 282.342 320.554,281.577 321.043,281.443 320.910 C 281.309 320.776,281.200 306.226,281.200 288.576 C 281.200 259.683,281.137 256.461,280.567 256.243 C 280.219 256.109,235.399 256.000,180.967 256.000 L 82.000 256.000 82.000 223.200 L 82.000 190.400 180.967 190.400 C 235.399 190.400,280.219 190.291,280.567 190.157 C 281.137 189.939,281.200 186.735,281.200 158.024 C 281.200 140.484,281.322 126.012,281.470 125.863 C 281.748 125.586,281.961 125.746,285.406 128.814 " stroke="none" fill="#fc947a" fill-rule="evenodd"></path><path id="path4" d="M42.200 3.055 C 39.939 3.523,34.060 5.201,33.200 5.624 C 32.870 5.786,31.700 6.356,30.600 6.890 C 28.061 8.123,23.862 10.445,23.600 10.761 C 23.490 10.893,22.106 12.048,20.525 13.326 C 18.944 14.604,16.604 16.944,15.326 18.525 C 14.048 20.106,12.894 21.490,12.761 21.600 C 12.484 21.831,10.867 24.691,8.955 28.333 C 7.773 30.584,7.115 32.442,5.460 38.200 C 4.729 40.744,4.806 405.333,5.538 408.600 C 7.478 417.254,11.680 424.864,17.961 431.099 C 18.929 432.060,20.819 433.683,22.161 434.705 C 23.502 435.727,24.690 436.661,24.800 436.781 C 24.910 436.902,25.720 437.355,26.600 437.789 C 27.480 438.222,28.830 438.959,29.600 439.426 C 32.770 441.348,38.263 443.022,43.600 443.693 C 48.523 444.312,313.418 444.356,319.000 443.738 C 320.980 443.519,323.230 443.145,324.000 442.906 C 324.770 442.667,326.390 442.161,327.600 441.782 C 330.868 440.758,337.550 437.136,340.460 434.809 C 342.730 432.995,346.594 429.118,348.644 426.600 C 351.531 423.052,354.956 416.377,356.137 412.000 C 356.463 410.790,356.960 408.990,357.242 408.000 C 357.905 405.667,358.274 257.966,357.615 258.625 C 357.341 258.899,357.161 283.072,357.067 332.217 C 356.974 381.035,356.788 406.132,356.508 407.600 C 355.592 412.401,354.209 416.196,352.100 419.692 C 351.605 420.513,351.200 421.458,351.200 421.792 C 351.200 422.126,351.032 422.400,350.827 422.400 C 350.622 422.400,350.333 422.780,350.186 423.244 C 349.951 423.985,349.172 425.059,347.786 426.553 C 347.558 426.799,346.864 427.671,346.244 428.492 C 344.337 431.016,335.481 438.000,334.186 438.000 C 334.075 438.000,333.313 438.420,332.492 438.934 C 331.671 439.447,330.640 439.973,330.200 440.102 C 329.760 440.231,328.410 440.689,327.200 441.119 C 320.922 443.351,331.511 443.200,181.327 443.200 C 59.987 443.200,43.091 443.128,41.065 442.600 C 39.798 442.270,38.330 442.000,37.804 442.000 C 37.278 442.000,36.736 441.820,36.600 441.600 C 36.464 441.380,36.076 441.200,35.737 441.200 C 35.398 441.200,34.464 440.911,33.660 440.557 C 31.162 439.456,29.408 438.608,29.200 438.400 C 29.090 438.290,27.990 437.688,26.755 437.062 C 25.521 436.437,24.081 435.535,23.555 435.058 C 23.030 434.582,21.790 433.564,20.801 432.796 C 18.669 431.142,17.490 429.956,15.606 427.567 C 14.839 426.595,13.947 425.489,13.625 425.110 C 11.707 422.851,8.118 415.467,7.058 411.600 C 5.327 405.286,5.400 413.530,5.400 223.600 C 5.400 33.965,5.342 40.612,7.057 35.000 C 8.066 31.697,10.560 26.195,11.238 25.776 C 11.437 25.653,11.600 25.218,11.600 24.810 C 11.600 24.401,11.735 24.007,11.900 23.933 C 12.065 23.860,12.676 23.080,13.259 22.200 C 15.994 18.066,20.601 13.507,24.600 10.978 C 25.260 10.560,25.890 10.124,26.000 10.009 C 26.234 9.765,32.330 6.755,34.460 5.832 C 35.264 5.485,36.288 5.200,36.737 5.200 C 37.186 5.200,37.664 5.020,37.800 4.800 C 37.936 4.580,38.622 4.394,39.324 4.386 C 40.026 4.378,41.680 4.111,43.000 3.792 C 46.907 2.849,315.530 2.911,320.400 3.856 C 326.336 5.009,330.952 6.753,336.467 9.926 C 338.148 10.893,339.474 11.881,342.129 14.142 C 342.608 14.550,343.360 15.180,343.800 15.542 C 345.864 17.240,351.534 25.069,352.171 27.100 C 352.327 27.595,352.622 28.000,352.827 28.000 C 353.032 28.000,353.200 28.255,353.200 28.568 C 353.200 28.880,353.453 29.645,353.763 30.268 C 354.996 32.748,355.897 35.656,356.531 39.200 C 356.773 40.556,357.015 69.597,357.162 114.867 C 357.293 155.273,357.540 188.474,357.712 188.646 C 358.294 189.227,357.846 40.414,357.260 38.600 C 356.976 37.720,356.476 36.010,356.150 34.800 C 355.051 30.723,350.954 22.588,348.836 20.277 C 348.394 19.795,347.375 18.590,346.572 17.600 C 345.769 16.610,343.557 14.503,341.656 12.918 C 338.708 10.460,337.002 9.394,331.338 6.474 C 330.091 5.831,328.688 5.295,326.600 4.662 C 325.500 4.329,323.880 3.820,323.000 3.531 C 321.478 3.031,44.582 2.561,42.200 3.055 M362.000 192.015 C 365.444 195.207,366.400 196.011,366.400 195.716 C 366.400 195.542,365.556 194.680,364.525 193.800 C 361.953 191.605,360.287 190.428,362.000 192.015 M367.600 196.797 C 370.075 198.935,370.400 199.175,370.400 198.865 C 370.400 198.684,369.545 197.950,368.500 197.234 C 367.455 196.518,367.050 196.322,367.600 196.797 M373.970 202.132 C 374.989 203.254,375.208 203.393,375.187 202.900 C 375.181 202.735,374.686 202.254,374.087 201.832 L 373.000 201.064 373.970 202.132 M377.000 204.680 C 377.880 205.576,378.677 206.237,378.771 206.150 C 378.945 205.989,378.155 205.220,376.384 203.826 C 375.843 203.400,376.120 203.784,377.000 204.680 M380.016 207.245 C 382.038 209.146,382.800 209.717,382.800 209.330 C 382.800 209.113,381.945 208.340,380.900 207.613 C 379.714 206.787,379.382 206.649,380.016 207.245 M389.641 215.239 C 390.654 216.208,392.004 217.431,392.641 217.957 C 393.279 218.483,394.123 219.193,394.517 219.534 C 395.101 220.040,395.193 220.048,395.011 219.578 C 394.888 219.260,394.205 218.598,393.494 218.107 C 392.782 217.616,391.654 216.716,390.986 216.107 C 388.792 214.106,387.759 213.440,389.641 215.239 M397.634 224.553 L 396.669 225.800 397.813 224.712 C 398.443 224.114,398.877 223.553,398.779 223.465 C 398.680 223.377,398.165 223.867,397.634 224.553 M392.000 229.239 C 391.010 230.097,390.348 230.798,390.529 230.799 C 390.709 230.800,391.113 230.544,391.426 230.231 C 391.740 229.918,392.474 229.285,393.059 228.825 C 393.644 228.365,394.050 227.920,393.961 227.835 C 393.872 227.750,392.990 228.382,392.000 229.239 M386.375 234.108 C 384.385 235.953,384.904 235.716,387.314 233.680 C 388.147 232.976,388.687 232.404,388.514 232.408 C 388.341 232.413,387.379 233.178,386.375 234.108 M379.200 240.000 C 378.430 240.648,377.991 241.183,378.225 241.189 C 378.459 241.195,379.168 240.660,379.800 240.000 C 381.256 238.481,381.005 238.481,379.200 240.000 M374.575 244.100 L 373.400 245.400 374.798 244.200 C 375.567 243.540,376.272 242.955,376.365 242.900 C 376.457 242.845,376.357 242.800,376.142 242.800 C 375.926 242.800,375.221 243.385,374.575 244.100 M366.400 250.851 L 364.600 252.489 366.287 251.345 C 367.215 250.715,368.065 249.975,368.175 249.700 C 368.458 248.992,368.403 249.028,366.400 250.851 M362.600 254.120 C 361.720 255.016,361.443 255.400,361.984 254.974 C 363.755 253.580,364.545 252.811,364.371 252.650 C 364.277 252.563,363.480 253.224,362.600 254.120 M359.570 256.668 L 358.600 257.736 359.687 256.968 C 360.286 256.546,360.781 256.065,360.787 255.900 C 360.808 255.407,360.589 255.546,359.570 256.668 " stroke="none" fill="#fce4db" fill-rule="evenodd"></path></g></svg>