<svg id="svg" version="1.1" xmlns="http://www.w3.org/2000/svg" xmlns:xlink="http://www.w3.org/1999/xlink" width="400" height="400" viewBox="0, 0, 400,400"><g id="svgg"><path id="path0" d="M286.000 26.785 C 285.450 26.969,284.331 27.138,283.514 27.160 C 282.464 27.188,281.903 27.435,281.600 28.000 C 281.365 28.440,280.984 28.800,280.755 28.800 C 280.036 28.800,278.000 31.102,278.000 31.915 C 278.000 32.343,277.595 33.207,277.100 33.836 L 276.200 34.979 276.077 55.249 C 275.965 73.688,275.892 75.573,275.277 76.123 C 274.689 76.648,270.871 76.746,246.389 76.865 L 218.178 77.002 217.035 77.901 C 216.031 78.691,215.427 78.800,212.072 78.800 C 208.767 78.800,208.133 78.911,207.376 79.623 C 206.746 80.215,205.819 80.489,204.071 80.602 C 202.300 80.716,201.419 80.981,200.821 81.579 C 200.177 82.223,199.487 82.400,197.614 82.400 C 195.638 82.400,195.155 82.537,194.800 83.200 C 194.473 83.811,193.962 84.000,192.640 84.000 C 191.486 84.000,190.551 84.280,189.840 84.840 C 189.253 85.302,188.052 85.776,187.171 85.895 C 186.177 86.028,185.418 86.392,185.171 86.855 C 184.901 87.359,184.329 87.600,183.400 87.600 C 182.439 87.600,181.900 87.839,181.601 88.397 C 181.333 88.899,180.581 89.289,179.573 89.451 C 178.610 89.605,177.811 90.005,177.571 90.453 C 177.319 90.925,176.734 91.200,175.982 91.200 C 175.287 91.200,174.507 91.533,174.107 92.000 C 173.730 92.440,173.057 92.803,172.611 92.806 C 171.594 92.814,171.014 93.203,170.683 94.100 C 170.530 94.515,170.012 94.800,169.409 94.800 C 168.850 94.800,168.084 95.160,167.707 95.600 C 167.330 96.040,166.806 96.400,166.542 96.400 C 166.278 96.400,165.527 96.850,164.873 97.400 C 164.219 97.950,163.305 98.400,162.842 98.400 C 162.379 98.400,162.000 98.641,162.000 98.936 C 162.000 99.230,161.513 99.694,160.917 99.965 C 160.322 100.236,159.592 100.805,159.295 101.229 C 158.998 101.653,158.448 102.000,158.074 102.000 C 157.699 102.000,157.168 102.360,156.893 102.800 C 156.618 103.240,156.185 103.600,155.930 103.600 C 155.675 103.600,155.182 103.865,154.834 104.190 C 153.358 105.563,151.351 107.083,150.700 107.320 C 150.315 107.460,150.000 107.851,150.000 108.187 C 150.000 108.542,149.648 108.800,149.163 108.800 C 148.666 108.800,148.241 109.120,148.119 109.587 C 148.006 110.019,147.582 110.479,147.177 110.607 C 146.772 110.736,146.330 111.192,146.194 111.620 C 146.057 112.049,145.763 112.400,145.540 112.400 C 144.998 112.400,137.200 120.231,137.200 120.775 C 137.200 121.009,136.926 121.200,136.590 121.200 C 136.255 121.200,135.809 121.650,135.600 122.200 C 135.391 122.750,134.965 123.200,134.653 123.200 C 134.342 123.200,133.974 123.650,133.836 124.200 C 133.698 124.750,133.318 125.200,132.992 125.200 C 132.667 125.200,132.400 125.443,132.400 125.741 C 132.400 126.234,131.302 127.643,129.204 129.842 C 128.762 130.305,128.400 130.968,128.400 131.315 C 128.400 131.662,128.040 132.060,127.600 132.200 C 127.160 132.340,126.800 132.769,126.800 133.155 C 126.800 133.540,126.350 134.247,125.800 134.725 C 125.250 135.203,124.800 135.860,124.800 136.183 C 124.800 136.507,124.440 136.965,124.000 137.200 C 123.558 137.436,123.200 138.038,123.200 138.542 C 123.200 139.045,122.750 139.847,122.200 140.325 C 121.650 140.803,121.200 141.556,121.200 141.997 C 121.200 142.439,120.938 142.800,120.618 142.800 C 120.266 142.800,119.929 143.373,119.764 144.252 C 119.589 145.185,119.225 145.773,118.746 145.898 C 118.287 146.018,118.000 146.452,118.000 147.026 C 118.000 147.539,117.550 148.444,117.000 149.038 C 116.417 149.667,116.000 150.595,116.000 151.262 C 116.000 151.913,115.654 152.704,115.200 153.093 C 114.760 153.470,114.400 154.189,114.400 154.692 C 114.400 155.194,113.950 155.997,113.400 156.475 C 112.717 157.069,112.400 157.756,112.400 158.645 C 112.400 159.595,112.184 160.015,111.600 160.200 C 110.942 160.409,110.800 160.805,110.800 162.427 C 110.800 163.842,110.582 164.618,110.029 165.171 C 109.605 165.595,109.136 166.754,108.987 167.747 C 108.838 168.740,108.375 169.860,107.958 170.238 C 107.394 170.748,107.200 171.471,107.200 173.062 C 107.200 174.667,107.000 175.400,106.400 176.000 C 105.780 176.620,105.600 177.333,105.600 179.169 C 105.600 181.113,105.420 181.752,104.600 182.727 C 103.666 183.837,103.600 184.207,103.600 188.304 C 103.600 192.025,103.483 192.840,102.832 193.668 C 101.986 194.743,101.898 196.468,101.966 210.653 C 101.998 217.555,102.039 217.917,102.800 218.116 C 103.260 218.236,103.600 218.662,103.600 219.116 C 103.600 219.570,103.940 219.996,104.400 220.116 C 104.840 220.231,105.200 220.612,105.200 220.963 C 105.200 221.333,105.535 221.600,106.000 221.600 C 106.440 221.600,107.205 222.005,107.699 222.500 C 109.190 223.993,115.979 224.090,117.243 222.637 C 117.739 222.066,118.541 221.600,119.025 221.600 C 119.581 221.600,119.987 221.293,120.124 220.770 C 120.243 220.314,120.714 219.843,121.170 219.724 C 121.763 219.569,122.000 219.184,122.000 218.376 C 122.000 217.716,122.319 217.022,122.766 216.709 C 123.187 216.414,123.661 215.481,123.820 214.635 C 124.009 213.625,124.364 213.030,124.854 212.902 C 125.350 212.772,125.600 212.344,125.600 211.625 C 125.600 210.971,125.994 210.201,126.600 209.675 C 127.162 209.186,127.600 208.373,127.600 207.817 C 127.600 207.238,127.931 206.651,128.400 206.400 C 128.863 206.152,129.200 205.562,129.200 205.000 C 129.200 204.438,129.537 203.848,130.000 203.600 C 130.440 203.365,130.800 202.900,130.800 202.568 C 130.800 202.235,131.250 201.514,131.800 200.964 C 132.350 200.414,132.800 199.708,132.800 199.396 C 132.800 199.084,133.145 198.643,133.567 198.417 C 133.990 198.191,134.454 197.464,134.600 196.800 C 134.746 196.136,135.210 195.409,135.633 195.183 C 136.055 194.957,136.400 194.515,136.400 194.200 C 136.400 193.885,136.760 193.435,137.200 193.200 C 137.640 192.965,138.000 192.542,138.000 192.261 C 138.000 191.981,138.336 191.391,138.746 190.950 C 139.156 190.510,139.702 189.756,139.960 189.275 C 140.217 188.794,140.680 188.400,140.987 188.400 C 141.295 188.400,141.660 188.040,141.800 187.600 C 141.940 187.159,142.402 186.613,142.827 186.386 C 143.252 186.158,143.600 185.720,143.600 185.413 C 143.600 185.105,143.951 184.743,144.380 184.606 C 144.808 184.470,145.270 184.008,145.406 183.580 C 145.543 183.151,145.916 182.800,146.237 182.800 C 146.557 182.800,146.991 182.350,147.200 181.800 C 147.409 181.250,147.843 180.800,148.163 180.800 C 148.484 180.800,148.860 180.440,149.000 180.000 C 149.140 179.560,149.424 179.200,149.631 179.200 C 150.030 179.200,153.053 176.549,154.761 174.700 C 155.321 174.095,156.115 173.600,156.527 173.600 C 156.938 173.600,157.369 173.240,157.484 172.800 C 157.599 172.360,157.967 172.000,158.301 172.000 C 158.635 172.000,159.324 171.595,159.833 171.100 C 162.213 168.782,162.672 168.436,163.700 168.183 C 164.305 168.035,164.800 167.748,164.800 167.547 C 164.800 167.345,165.284 166.996,165.876 166.771 C 166.467 166.546,167.197 166.011,167.498 165.581 C 167.799 165.152,168.420 164.800,168.877 164.800 C 169.334 164.800,170.125 164.350,170.635 163.800 C 171.145 163.250,171.930 162.800,172.381 162.800 C 172.831 162.800,173.560 162.440,174.000 162.000 C 174.440 161.560,175.244 161.200,175.786 161.200 C 176.361 161.200,176.950 160.868,177.199 160.403 C 177.466 159.903,178.217 159.511,179.213 159.352 C 180.092 159.211,180.800 158.872,180.800 158.592 C 180.800 157.953,181.704 157.600,183.336 157.600 C 184.143 157.600,184.778 157.328,185.072 156.856 C 185.376 156.370,186.180 156.039,187.385 155.903 C 188.401 155.788,189.592 155.369,190.031 154.972 C 190.545 154.506,191.667 154.188,193.180 154.079 C 195.001 153.947,195.572 153.750,195.715 153.202 C 195.864 152.632,196.443 152.465,198.721 152.337 C 200.763 152.221,201.772 151.968,202.378 151.420 C 203.045 150.816,204.005 150.629,207.107 150.498 C 210.002 150.375,211.190 150.162,211.742 149.666 C 212.421 149.056,215.164 149.000,244.142 149.000 L 275.800 149.000 276.000 169.928 C 276.181 188.895,276.262 190.892,276.865 191.229 C 277.231 191.433,277.651 192.320,277.800 193.200 C 277.960 194.147,278.292 194.800,278.612 194.800 C 278.911 194.800,279.398 195.147,279.695 195.572 C 279.993 195.996,280.746 196.472,281.370 196.628 C 281.994 196.785,282.585 197.223,282.685 197.602 C 283.065 199.058,291.281 199.002,292.323 197.536 C 292.610 197.131,293.124 196.800,293.465 196.800 C 294.074 196.800,295.814 195.566,297.414 193.998 C 297.862 193.559,298.627 193.200,299.114 193.200 C 299.643 193.200,300.000 192.953,300.000 192.587 C 300.000 192.251,300.315 191.859,300.700 191.717 C 301.085 191.576,301.783 191.086,302.250 190.630 C 302.718 190.173,303.757 189.350,304.560 188.800 C 305.362 188.250,306.474 187.395,307.030 186.900 C 307.586 186.405,308.302 186.000,308.621 186.000 C 308.939 186.000,309.200 185.730,309.200 185.400 C 309.200 185.070,309.455 184.800,309.766 184.800 C 310.077 184.800,310.842 184.260,311.465 183.600 C 312.088 182.940,312.870 182.400,313.202 182.400 C 313.535 182.400,314.032 182.040,314.307 181.600 C 314.582 181.160,315.011 180.800,315.261 180.800 C 315.511 180.800,316.095 180.442,316.558 180.004 C 318.829 177.857,319.683 177.200,320.204 177.200 C 320.516 177.200,320.965 176.840,321.200 176.400 C 321.435 175.960,321.882 175.600,322.191 175.600 C 322.501 175.600,322.990 175.282,323.277 174.894 C 323.565 174.505,324.300 173.967,324.911 173.697 C 325.522 173.428,326.127 172.935,326.254 172.603 C 326.381 172.272,326.820 172.000,327.229 172.000 C 327.637 172.000,328.158 171.652,328.386 171.227 C 328.613 170.802,329.140 170.346,329.556 170.214 C 329.973 170.082,330.400 169.645,330.505 169.243 C 330.610 168.842,331.174 168.393,331.758 168.246 C 332.342 168.100,333.176 167.624,333.610 167.190 C 334.045 166.755,334.670 166.400,335.000 166.400 C 335.330 166.400,335.600 166.126,335.600 165.790 C 335.600 165.455,336.050 165.009,336.600 164.800 C 337.150 164.591,337.600 164.231,337.600 164.000 C 337.600 163.769,338.084 163.396,338.676 163.171 C 339.267 162.946,339.997 162.411,340.298 161.981 C 340.599 161.552,341.130 161.200,341.477 161.200 C 341.824 161.200,342.509 160.795,342.998 160.300 C 343.487 159.805,344.371 159.040,344.962 158.600 C 345.553 158.160,346.575 157.305,347.232 156.700 C 347.890 156.095,348.601 155.600,348.814 155.600 C 349.026 155.600,349.549 155.285,349.975 154.900 C 350.401 154.515,351.230 153.840,351.818 153.400 C 352.406 152.960,353.476 152.105,354.196 151.500 C 354.916 150.895,355.701 150.400,355.939 150.400 C 356.177 150.400,356.565 150.040,356.800 149.600 C 357.035 149.160,357.421 148.800,357.656 148.800 C 357.892 148.800,358.619 148.350,359.273 147.800 C 359.927 147.250,360.705 146.800,361.004 146.800 C 361.302 146.800,361.660 146.440,361.800 146.000 C 361.940 145.558,362.405 145.200,362.840 145.200 C 363.272 145.200,363.734 144.916,363.867 144.569 C 364.000 144.223,364.535 143.777,365.055 143.579 C 365.575 143.382,366.000 142.963,366.000 142.649 C 366.000 142.335,366.526 141.895,367.168 141.671 C 367.810 141.447,368.692 140.935,369.126 140.532 C 370.992 138.803,372.105 138.000,372.634 138.000 C 372.945 138.000,373.200 137.760,373.200 137.467 C 373.200 136.921,376.769 134.400,377.542 134.400 C 377.778 134.400,378.165 134.040,378.400 133.600 C 378.635 133.160,378.994 132.800,379.196 132.800 C 379.398 132.800,380.008 132.395,380.551 131.900 C 382.343 130.267,383.917 129.200,384.536 129.200 C 384.872 129.200,385.260 128.840,385.400 128.400 C 385.540 127.960,385.910 127.600,386.224 127.600 C 386.537 127.600,387.018 127.240,387.293 126.800 C 387.568 126.360,387.992 126.000,388.237 126.000 C 388.481 126.000,389.246 125.460,389.937 124.800 C 390.628 124.140,391.464 123.600,391.796 123.600 C 392.128 123.600,392.400 123.330,392.400 123.000 C 392.400 122.670,392.643 122.400,392.941 122.400 C 393.565 122.400,396.000 120.180,396.000 119.611 C 396.000 119.400,396.360 119.035,396.800 118.800 C 397.417 118.470,397.600 117.962,397.600 116.586 C 397.600 114.847,398.573 113.200,399.600 113.200 C 399.820 113.200,400.000 112.930,400.000 112.600 C 400.000 112.270,399.751 112.000,399.446 112.000 C 398.718 112.000,397.600 109.609,397.600 108.054 C 397.600 107.240,397.333 106.685,396.805 106.403 C 396.367 106.168,395.898 105.532,395.761 104.988 C 395.625 104.445,395.266 104.000,394.964 104.000 C 394.434 104.000,392.887 102.788,391.005 100.900 C 390.512 100.405,389.910 100.000,389.668 100.000 C 389.426 100.000,389.035 99.640,388.800 99.200 C 388.565 98.760,388.116 98.400,387.804 98.400 C 387.492 98.400,386.733 97.951,386.118 97.403 C 385.503 96.855,384.589 96.045,384.086 95.603 C 383.583 95.161,382.891 94.800,382.548 94.800 C 382.206 94.800,381.831 94.440,381.716 94.000 C 381.601 93.560,381.178 93.200,380.776 93.200 C 380.374 93.200,379.810 92.869,379.523 92.463 C 379.235 92.058,378.581 91.505,378.070 91.233 C 377.558 90.962,376.793 90.393,376.370 89.970 C 375.946 89.546,375.330 89.200,375.000 89.200 C 374.670 89.200,374.400 88.930,374.400 88.600 C 374.400 88.270,374.157 88.000,373.859 88.000 C 373.366 88.000,371.957 86.902,369.758 84.804 C 369.295 84.362,368.603 84.000,368.220 84.000 C 367.838 84.000,367.431 83.640,367.316 83.200 C 367.201 82.760,366.794 82.400,366.413 82.400 C 365.805 82.400,365.048 81.835,362.366 79.380 C 362.018 79.061,361.529 78.800,361.281 78.800 C 361.032 78.800,360.635 78.440,360.400 78.000 C 360.165 77.560,359.714 77.200,359.400 77.200 C 359.085 77.200,358.236 76.663,357.514 76.007 C 355.355 74.046,354.900 73.682,354.030 73.216 C 353.574 72.972,353.200 72.508,353.200 72.186 C 353.200 71.864,352.855 71.600,352.433 71.600 C 351.245 71.600,350.400 71.170,350.400 70.565 C 350.400 70.263,349.963 69.906,349.429 69.772 C 348.895 69.637,348.359 69.271,348.239 68.958 C 348.119 68.644,347.566 68.215,347.010 68.004 C 346.455 67.793,346.000 67.345,346.000 67.010 C 346.000 66.674,345.672 66.400,345.272 66.400 C 344.872 66.400,344.153 65.950,343.675 65.400 C 343.197 64.850,342.540 64.400,342.217 64.400 C 341.893 64.400,341.447 64.061,341.225 63.646 C 341.003 63.231,340.366 62.778,339.811 62.638 C 339.255 62.499,338.800 62.118,338.800 61.792 C 338.800 61.467,338.473 61.200,338.074 61.200 C 337.674 61.200,336.399 60.300,335.239 59.200 C 334.080 58.100,332.871 57.200,332.553 57.200 C 332.235 57.200,331.874 56.937,331.750 56.615 C 331.627 56.294,331.138 55.914,330.663 55.771 C 329.848 55.527,329.220 55.030,327.033 52.900 C 326.524 52.405,325.910 52.000,325.668 52.000 C 325.426 52.000,325.035 51.640,324.800 51.200 C 324.565 50.760,324.070 50.400,323.700 50.400 C 323.330 50.400,322.662 50.053,322.214 49.628 C 319.884 47.420,319.155 46.840,318.413 46.604 C 317.966 46.462,317.600 46.088,317.600 45.773 C 317.600 45.458,317.250 45.200,316.823 45.200 C 316.395 45.200,315.810 44.869,315.523 44.463 C 315.235 44.058,314.581 43.505,314.070 43.233 C 313.558 42.962,312.805 42.438,312.395 42.070 C 311.628 41.379,310.948 40.856,308.200 38.837 C 307.320 38.191,306.221 37.288,305.758 36.831 C 305.295 36.374,304.632 36.000,304.285 36.000 C 303.938 36.000,303.540 35.640,303.400 35.200 C 303.260 34.760,302.808 34.400,302.396 34.400 C 301.983 34.400,301.410 34.069,301.123 33.663 C 300.835 33.258,300.150 32.692,299.600 32.405 C 299.050 32.118,298.456 31.639,298.280 31.342 C 298.104 31.044,297.706 30.800,297.394 30.800 C 297.083 30.800,296.635 30.440,296.400 30.000 C 296.165 29.560,295.625 29.200,295.202 29.200 C 294.779 29.200,294.020 28.768,293.516 28.239 C 292.968 27.664,291.957 27.191,291.000 27.062 C 290.120 26.943,288.860 26.756,288.200 26.647 C 287.540 26.538,286.550 26.600,286.000 26.785 M17.705 52.687 C 18.314 52.779,19.214 52.777,19.705 52.682 C 20.197 52.587,19.700 52.511,18.600 52.514 C 17.500 52.517,17.097 52.595,17.705 52.687 M123.200 74.738 C 123.200 95.844,123.160 97.112,122.471 97.736 C 121.807 98.337,118.557 98.405,85.971 98.500 L 50.200 98.604 86.900 98.702 L 123.600 98.800 123.600 75.600 C 123.600 62.840,123.510 52.400,123.400 52.400 C 123.290 52.400,123.200 62.452,123.200 74.738 M48.597 212.800 C 48.597 274.510,48.643 299.755,48.700 268.900 C 48.757 238.045,48.757 187.555,48.700 156.700 C 48.643 125.845,48.597 151.090,48.597 212.800 M276.498 275.600 L 276.597 324.600 276.700 276.443 C 276.797 231.164,276.845 228.254,277.502 227.748 C 278.068 227.312,282.432 227.215,300.591 227.231 C 312.907 227.242,323.032 227.105,323.091 226.926 C 323.151 226.747,312.670 226.600,299.800 226.600 L 276.400 226.600 276.498 275.600 M50.400 326.400 C 50.400 326.902,273.031 326.902,274.200 326.400 C 274.649 326.207,225.704 326.044,162.700 326.028 C 88.081 326.009,50.400 326.134,50.400 326.400 M322.493 355.600 C 322.493 356.370,322.575 356.685,322.676 356.300 C 322.776 355.915,322.776 355.285,322.676 354.900 C 322.575 354.515,322.493 354.830,322.493 355.600 " stroke="none" fill="#4985b4" fill-rule="evenodd"></path><path id="path1" d="M0.000 34.033 C 0.000 68.921,0.101 71.120,1.455 65.813 C 1.726 64.749,2.119 63.772,2.329 63.640 C 2.539 63.508,2.977 62.770,3.302 62.000 C 3.628 61.230,4.548 59.934,5.347 59.120 C 6.146 58.306,6.808 57.496,6.819 57.320 C 6.829 57.144,7.556 56.460,8.435 55.800 C 9.314 55.140,10.341 54.300,10.717 53.932 C 11.093 53.565,11.882 53.144,12.471 52.996 C 13.059 52.849,13.852 52.384,14.233 51.964 C 14.631 51.524,15.452 51.200,16.168 51.200 C 16.852 51.200,18.084 50.840,18.904 50.400 C 20.736 49.418,123.747 49.107,124.720 50.080 C 125.323 50.683,125.408 98.651,124.809 99.600 C 124.477 100.125,119.803 100.213,87.414 100.306 L 50.399 100.412 50.499 212.506 L 50.600 324.600 161.925 324.701 C 238.209 324.770,273.494 324.671,274.025 324.387 C 274.785 323.980,274.800 323.037,274.800 275.000 C 274.800 226.992,274.815 226.020,275.574 225.614 C 276.599 225.065,323.133 225.042,324.574 225.590 L 325.600 225.980 325.582 289.690 C 325.567 344.667,325.484 353.619,324.978 355.000 C 324.655 355.880,324.207 357.390,323.982 358.355 C 323.756 359.320,323.218 360.559,322.786 361.109 C 322.354 361.658,322.000 362.337,322.000 362.617 C 322.000 363.085,318.530 367.659,317.986 367.908 C 317.856 367.968,316.951 368.753,315.975 369.652 C 314.999 370.551,313.589 371.551,312.842 371.873 C 312.095 372.196,311.243 372.700,310.950 372.993 C 310.656 373.287,309.651 373.656,308.717 373.814 C 307.782 373.972,306.571 374.393,306.026 374.751 C 305.117 375.346,293.400 375.409,164.626 375.504 C 23.877 375.609,21.452 375.587,17.400 374.177 C 14.092 373.025,14.069 373.014,10.619 370.810 C 8.297 369.326,3.200 363.885,3.200 362.891 C 3.200 362.680,2.841 362.051,2.402 361.493 C 1.963 360.935,1.463 359.799,1.290 358.969 C 1.118 358.138,0.757 357.386,0.488 357.296 C 0.108 357.169,-0.000 361.874,-0.000 378.567 L 0.000 400.000 200.000 400.000 L 400.000 400.000 400.000 258.800 C 400.000 162.660,399.869 117.600,399.590 117.600 C 399.365 117.600,398.998 118.079,398.776 118.663 C 398.194 120.193,396.170 122.384,393.845 124.000 C 392.737 124.770,391.521 125.670,391.144 126.000 C 388.980 127.891,385.665 130.400,385.330 130.400 C 385.185 130.400,384.782 130.674,384.434 131.009 C 383.874 131.547,383.188 132.080,379.800 134.610 C 379.360 134.938,378.434 135.655,377.742 136.204 C 377.050 136.752,376.349 137.200,376.184 137.200 C 376.019 137.200,375.505 137.574,375.042 138.031 C 374.579 138.488,373.480 139.391,372.600 140.037 C 370.476 141.597,369.855 142.070,366.849 144.412 C 365.446 145.505,364.160 146.400,363.991 146.400 C 363.823 146.400,363.081 146.965,362.342 147.656 C 361.084 148.834,358.932 150.392,357.075 151.471 C 356.629 151.729,356.106 152.224,355.912 152.571 C 355.719 152.917,355.373 153.200,355.144 153.200 C 354.915 153.200,353.799 153.965,352.664 154.900 C 351.529 155.835,350.297 156.780,349.926 157.000 C 349.555 157.220,347.799 158.525,346.024 159.900 C 344.248 161.275,342.707 162.400,342.598 162.400 C 342.489 162.400,342.053 162.715,341.628 163.100 C 341.203 163.485,340.348 164.191,339.728 164.668 C 339.108 165.146,338.034 166.001,337.342 166.568 C 336.650 167.136,335.892 167.600,335.656 167.600 C 335.421 167.600,335.035 167.960,334.800 168.400 C 334.565 168.840,334.206 169.200,334.004 169.200 C 333.802 169.200,332.413 170.102,330.918 171.205 C 326.898 174.170,326.421 174.535,325.596 175.279 C 325.182 175.652,323.961 176.564,322.883 177.306 C 321.805 178.047,320.670 178.868,320.361 179.130 C 319.628 179.752,315.239 183.096,313.311 184.502 C 312.480 185.109,311.440 185.880,311.000 186.216 C 310.560 186.552,309.480 187.364,308.600 188.020 C 306.236 189.782,305.650 190.230,302.849 192.412 C 301.446 193.505,300.094 194.400,299.845 194.400 C 299.596 194.400,299.168 194.760,298.893 195.200 C 298.618 195.640,298.144 196.000,297.839 196.000 C 297.535 196.000,297.181 196.272,297.054 196.603 C 296.927 196.935,296.322 197.420,295.711 197.681 C 295.100 197.941,294.313 198.392,293.962 198.683 C 291.351 200.846,283.598 200.666,280.407 198.367 C 278.673 197.119,276.800 195.197,276.800 194.666 C 276.800 194.438,276.395 193.821,275.900 193.294 L 275.000 192.336 274.879 172.116 L 274.759 151.895 273.879 151.161 C 271.833 149.453,214.415 150.406,208.285 152.250 C 207.231 152.567,204.918 153.008,203.144 153.231 C 201.370 153.453,199.532 153.883,199.059 154.186 C 198.587 154.490,197.300 154.861,196.200 155.012 C 195.100 155.163,193.794 155.542,193.298 155.854 C 192.801 156.166,191.464 156.598,190.325 156.814 C 189.187 157.030,187.973 157.455,187.628 157.759 C 187.283 158.062,186.385 158.442,185.633 158.602 C 184.882 158.762,183.712 159.231,183.033 159.645 C 182.355 160.059,181.509 160.398,181.154 160.399 C 180.799 160.399,180.064 160.749,179.522 161.175 C 178.980 161.602,178.011 162.081,177.368 162.241 C 176.726 162.401,175.750 162.824,175.200 163.182 C 173.265 164.440,172.584 164.827,170.900 165.629 C 169.965 166.073,169.200 166.609,169.200 166.819 C 169.200 167.028,168.944 167.200,168.631 167.200 C 168.318 167.200,167.553 167.625,166.931 168.145 C 166.309 168.665,165.395 169.217,164.900 169.372 C 164.405 169.527,164.000 169.804,164.000 169.987 C 164.000 170.171,163.415 170.689,162.700 171.138 C 161.985 171.588,160.680 172.503,159.800 173.171 C 158.920 173.839,157.984 174.495,157.719 174.628 C 155.786 175.603,140.800 190.614,140.800 191.576 C 140.800 191.787,140.546 192.104,140.235 192.280 C 139.925 192.456,138.996 193.590,138.172 194.800 C 137.348 196.010,136.432 197.144,136.137 197.320 C 135.842 197.496,135.600 197.903,135.600 198.224 C 135.600 198.545,135.240 199.116,134.800 199.493 C 134.360 199.870,134.000 200.394,134.000 200.658 C 134.000 200.922,133.550 201.673,133.000 202.327 C 132.450 202.981,132.000 203.702,132.000 203.929 C 132.000 204.157,131.744 204.599,131.431 204.911 C 130.866 205.477,129.827 207.327,128.576 210.000 C 128.215 210.770,127.690 211.670,127.407 212.000 C 127.125 212.330,126.759 213.050,126.592 213.600 C 126.426 214.150,125.955 215.029,125.545 215.554 C 125.135 216.079,124.800 216.773,124.800 217.096 C 124.800 217.420,124.351 218.250,123.803 218.942 C 121.429 221.938,120.641 222.800,120.276 222.800 C 120.063 222.800,119.687 223.075,119.442 223.410 C 118.941 224.095,115.472 225.200,112.922 225.488 C 110.187 225.796,104.362 223.376,103.135 221.422 C 102.989 221.190,102.489 220.562,102.024 220.026 C 101.559 219.491,101.065 218.591,100.926 218.026 C 100.787 217.462,100.387 216.556,100.037 216.014 C 99.230 214.764,99.306 204.558,100.164 199.034 C 100.474 197.035,100.852 193.977,101.004 192.237 C 101.156 190.497,101.523 188.386,101.819 187.546 C 102.116 186.705,102.482 184.889,102.633 183.509 C 102.783 182.129,103.170 180.481,103.491 179.847 C 103.812 179.213,104.243 177.509,104.448 176.061 C 104.653 174.612,105.059 173.061,105.350 172.614 C 105.641 172.166,106.012 171.080,106.174 170.200 C 106.336 169.320,106.800 167.970,107.206 167.200 C 107.612 166.430,108.052 165.143,108.183 164.340 C 108.314 163.537,108.686 162.660,109.011 162.391 C 109.335 162.122,109.600 161.501,109.600 161.011 C 109.600 160.520,110.050 159.273,110.600 158.238 C 111.150 157.204,111.600 156.097,111.600 155.779 C 111.600 155.460,111.942 154.858,112.359 154.441 C 112.777 154.023,113.238 153.136,113.385 152.468 C 113.532 151.801,113.910 151.041,114.226 150.779 C 114.542 150.517,114.800 150.138,114.800 149.938 C 114.800 149.423,115.834 147.280,116.989 145.400 C 117.529 144.520,118.238 143.246,118.563 142.568 C 118.888 141.891,119.434 141.104,119.777 140.819 C 120.120 140.535,120.400 140.054,120.400 139.751 C 120.400 139.448,120.723 138.877,121.117 138.483 C 121.512 138.088,122.073 137.188,122.366 136.483 C 122.658 135.777,123.061 135.200,123.261 135.200 C 123.462 135.200,123.755 134.879,123.913 134.487 C 124.273 133.592,125.281 132.182,127.700 129.187 C 128.745 127.893,129.600 126.737,129.600 126.618 C 129.600 126.498,129.968 125.995,130.419 125.500 C 131.657 124.138,132.146 123.577,133.992 121.400 C 136.668 118.244,140.780 114.059,144.407 110.800 C 148.950 106.719,149.407 106.320,150.597 105.400 C 151.166 104.960,152.070 104.240,152.606 103.800 C 153.142 103.360,154.223 102.550,155.007 102.000 C 157.512 100.243,159.383 98.835,160.011 98.233 C 160.347 97.911,161.067 97.454,161.611 97.216 C 162.155 96.978,163.410 96.248,164.400 95.594 C 165.390 94.939,166.650 94.177,167.200 93.900 C 168.272 93.361,169.949 92.331,171.660 91.160 C 172.243 90.762,173.180 90.320,173.743 90.178 C 174.307 90.037,174.967 89.681,175.211 89.386 C 175.455 89.092,176.228 88.726,176.928 88.574 C 177.627 88.421,178.613 87.972,179.119 87.576 C 179.624 87.179,180.557 86.741,181.191 86.602 C 181.826 86.463,182.555 86.095,182.813 85.785 C 183.070 85.475,183.937 85.105,184.740 84.962 C 185.543 84.819,186.740 84.384,187.400 83.994 C 188.060 83.604,189.365 83.160,190.300 83.007 C 191.235 82.855,192.000 82.572,192.000 82.380 C 192.000 82.188,192.765 81.839,193.700 81.605 C 194.635 81.371,195.983 80.918,196.696 80.598 C 197.409 80.278,199.202 79.823,200.681 79.587 C 202.159 79.351,203.590 78.974,203.860 78.751 C 204.129 78.527,205.756 78.089,207.475 77.778 C 209.194 77.467,211.950 76.952,213.600 76.634 C 216.488 76.076,220.855 75.483,227.200 74.786 C 228.850 74.605,239.830 74.442,251.600 74.423 C 263.370 74.404,273.397 74.283,273.883 74.152 L 274.766 73.916 274.883 53.449 L 275.000 32.983 276.479 30.755 C 280.859 24.159,291.396 22.334,295.632 27.439 C 295.888 27.747,296.337 28.000,296.629 28.000 C 296.921 28.000,297.304 28.229,297.480 28.510 C 297.656 28.790,298.340 29.358,299.000 29.773 C 299.660 30.187,300.344 30.768,300.520 31.063 C 300.696 31.358,301.099 31.600,301.416 31.600 C 301.734 31.600,302.218 31.960,302.493 32.400 C 302.768 32.840,303.146 33.200,303.333 33.200 C 303.696 33.200,304.622 33.877,308.394 36.900 C 309.698 37.945,310.913 38.800,311.094 38.800 C 311.274 38.800,311.715 39.115,312.072 39.500 C 312.430 39.885,313.388 40.650,314.202 41.200 C 315.015 41.750,316.064 42.560,316.533 43.000 C 317.002 43.440,317.680 43.980,318.040 44.200 C 319.877 45.323,324.467 48.750,326.000 50.144 C 326.330 50.444,327.050 50.923,327.600 51.208 C 328.150 51.493,328.835 52.058,329.123 52.463 C 329.410 52.869,329.896 53.200,330.203 53.200 C 330.509 53.200,330.904 53.425,331.080 53.700 C 331.256 53.975,332.300 54.817,333.400 55.571 C 334.500 56.325,335.670 57.184,336.000 57.480 C 336.590 58.010,338.453 59.427,340.625 61.000 C 342.718 62.516,344.602 63.983,345.234 64.591 C 345.582 64.926,345.998 65.200,346.157 65.200 C 346.420 65.200,348.681 66.886,350.449 68.400 C 350.834 68.730,351.566 69.313,352.075 69.696 C 358.228 74.327,359.809 75.476,360.634 75.922 C 361.165 76.209,361.600 76.602,361.600 76.795 C 361.600 76.988,361.919 77.247,362.309 77.371 C 362.932 77.569,363.870 78.289,366.500 80.588 C 366.885 80.925,367.309 81.200,367.442 81.200 C 367.575 81.200,368.193 81.605,368.815 82.100 C 369.436 82.595,370.592 83.450,371.382 84.000 C 372.172 84.550,373.258 85.360,373.794 85.800 C 374.889 86.699,375.871 87.449,378.200 89.169 C 379.080 89.818,380.157 90.676,380.593 91.075 C 381.029 91.474,381.680 91.980,382.040 92.200 C 383.395 93.028,385.069 94.229,387.200 95.902 C 388.410 96.851,389.814 97.937,390.320 98.314 C 390.826 98.691,391.839 99.495,392.573 100.100 C 393.306 100.705,394.017 101.200,394.154 101.200 C 394.679 101.200,398.264 105.054,398.712 106.100 C 399.949 108.989,400.000 106.894,400.000 53.600 L 400.000 0.000 200.000 0.000 L 0.000 0.000 0.000 34.033 " stroke="none" fill="#fbfbfb" fill-rule="evenodd"></path><path id="path2" d="M284.800 24.633 C 280.864 26.063,278.382 27.890,276.479 30.755 L 275.000 32.983 274.883 53.449 L 274.766 73.916 273.883 74.152 C 273.397 74.283,263.370 74.404,251.600 74.423 C 239.830 74.442,228.850 74.605,227.200 74.786 C 220.855 75.483,216.488 76.076,213.600 76.634 C 211.950 76.952,209.194 77.467,207.475 77.778 C 205.756 78.089,204.129 78.527,203.860 78.751 C 203.590 78.974,202.159 79.351,200.681 79.587 C 199.202 79.823,197.409 80.278,196.696 80.598 C 195.983 80.918,194.635 81.371,193.700 81.605 C 192.765 81.839,192.000 82.188,192.000 82.380 C 192.000 82.572,191.235 82.855,190.300 83.007 C 189.365 83.160,188.060 83.604,187.400 83.994 C 186.740 84.384,185.543 84.819,184.740 84.962 C 183.937 85.105,183.070 85.475,182.813 85.785 C 182.555 86.095,181.826 86.463,181.191 86.602 C 180.557 86.741,179.624 87.175,179.119 87.567 C 178.613 87.958,177.660 88.409,177.000 88.570 C 176.340 88.731,175.530 89.097,175.200 89.384 C 174.870 89.671,174.153 90.042,173.608 90.209 C 173.062 90.376,172.162 90.821,171.608 91.199 C 169.918 92.350,168.251 93.371,167.200 93.900 C 166.650 94.177,165.390 94.939,164.400 95.594 C 163.410 96.248,162.155 96.978,161.611 97.216 C 161.067 97.454,160.347 97.911,160.011 98.233 C 159.383 98.835,157.512 100.243,155.007 102.000 C 154.223 102.550,153.142 103.360,152.606 103.800 C 152.070 104.240,151.166 104.960,150.597 105.400 C 149.407 106.320,148.950 106.719,144.407 110.800 C 140.780 114.059,136.668 118.244,133.992 121.400 C 132.146 123.577,131.657 124.138,130.419 125.500 C 129.968 125.995,129.600 126.498,129.600 126.618 C 129.600 126.737,128.745 127.893,127.700 129.187 C 125.281 132.182,124.273 133.592,123.913 134.487 C 123.755 134.879,123.462 135.200,123.261 135.200 C 123.061 135.200,122.658 135.777,122.366 136.483 C 122.073 137.188,121.512 138.088,121.117 138.483 C 120.723 138.877,120.400 139.448,120.400 139.751 C 120.400 140.054,120.120 140.535,119.777 140.819 C 119.434 141.104,118.888 141.891,118.563 142.568 C 118.238 143.246,117.529 144.520,116.989 145.400 C 115.834 147.280,114.800 149.423,114.800 149.938 C 114.800 150.138,114.542 150.517,114.226 150.779 C 113.910 151.041,113.532 151.801,113.385 152.468 C 113.238 153.136,112.777 154.023,112.359 154.441 C 111.942 154.858,111.600 155.460,111.600 155.779 C 111.600 156.097,111.150 157.204,110.600 158.238 C 110.050 159.273,109.600 160.520,109.600 161.011 C 109.600 161.501,109.335 162.122,109.011 162.391 C 108.686 162.660,108.314 163.537,108.183 164.340 C 108.052 165.143,107.612 166.430,107.206 167.200 C 106.800 167.970,106.336 169.320,106.174 170.200 C 106.012 171.080,105.641 172.166,105.350 172.614 C 105.059 173.061,104.653 174.612,104.448 176.061 C 104.243 177.509,103.812 179.213,103.491 179.847 C 103.170 180.481,102.783 182.129,102.633 183.509 C 102.482 184.889,102.116 186.705,101.819 187.546 C 101.523 188.386,101.156 190.497,101.004 192.237 C 100.852 193.977,100.474 197.035,100.164 199.034 C 99.306 204.558,99.230 214.764,100.037 216.014 C 100.387 216.556,100.787 217.462,100.926 218.026 C 101.065 218.591,101.559 219.491,102.024 220.026 C 102.489 220.562,102.989 221.190,103.135 221.422 C 104.362 223.376,110.187 225.796,112.922 225.488 C 115.472 225.200,118.941 224.095,119.442 223.410 C 119.687 223.075,120.063 222.800,120.276 222.800 C 120.641 222.800,121.429 221.938,123.803 218.942 C 124.351 218.250,124.800 217.420,124.800 217.096 C 124.800 216.773,125.135 216.079,125.545 215.554 C 125.955 215.029,126.426 214.150,126.592 213.600 C 126.759 213.050,127.125 212.330,127.407 212.000 C 127.690 211.670,128.215 210.770,128.576 210.000 C 129.827 207.327,130.866 205.477,131.431 204.911 C 131.744 204.599,132.000 204.157,132.000 203.929 C 132.000 203.702,132.450 202.981,133.000 202.327 C 133.550 201.673,134.000 200.922,134.000 200.658 C 134.000 200.394,134.360 199.870,134.800 199.493 C 135.240 199.116,135.600 198.545,135.600 198.224 C 135.600 197.903,135.842 197.496,136.137 197.320 C 136.432 197.144,137.348 196.010,138.172 194.800 C 138.996 193.590,139.925 192.456,140.235 192.280 C 140.546 192.104,140.800 191.787,140.800 191.576 C 140.800 190.614,155.786 175.603,157.719 174.628 C 157.984 174.495,158.920 173.839,159.800 173.171 C 160.680 172.503,161.985 171.588,162.700 171.138 C 163.415 170.689,164.000 170.171,164.000 169.987 C 164.000 169.804,164.405 169.527,164.900 169.372 C 165.395 169.217,166.309 168.665,166.931 168.145 C 167.553 167.625,168.318 167.200,168.631 167.200 C 168.944 167.200,169.200 167.028,169.200 166.819 C 169.200 166.609,169.965 166.073,170.900 165.629 C 172.584 164.827,173.265 164.440,175.200 163.182 C 175.750 162.824,176.726 162.401,177.368 162.241 C 178.011 162.081,178.980 161.602,179.522 161.175 C 180.064 160.749,180.799 160.399,181.154 160.399 C 181.509 160.398,182.355 160.059,183.033 159.645 C 183.712 159.231,184.882 158.762,185.633 158.602 C 186.385 158.442,187.283 158.062,187.628 157.759 C 187.973 157.455,189.187 157.030,190.325 156.814 C 191.464 156.598,192.801 156.166,193.298 155.854 C 193.794 155.542,195.100 155.163,196.200 155.012 C 197.300 154.861,198.587 154.490,199.059 154.186 C 199.532 153.883,201.370 153.453,203.144 153.231 C 204.918 153.008,207.231 152.567,208.285 152.250 C 214.415 150.406,271.833 149.453,273.879 151.161 L 274.759 151.895 274.879 172.116 L 275.000 192.336 275.900 193.294 C 276.395 193.821,276.800 194.438,276.800 194.666 C 276.800 195.197,278.673 197.119,280.407 198.367 C 283.598 200.666,291.351 200.846,293.962 198.683 C 294.313 198.392,295.100 197.941,295.711 197.681 C 296.322 197.420,296.927 196.935,297.054 196.603 C 297.181 196.272,297.535 196.000,297.839 196.000 C 298.144 196.000,298.618 195.640,298.893 195.200 C 299.168 194.760,299.596 194.400,299.845 194.400 C 300.094 194.400,301.446 193.505,302.849 192.412 C 305.650 190.230,306.236 189.782,308.600 188.020 C 309.480 187.364,310.560 186.552,311.000 186.216 C 311.440 185.880,312.480 185.109,313.311 184.502 C 315.239 183.096,319.628 179.752,320.361 179.130 C 320.670 178.868,321.805 178.047,322.883 177.306 C 323.961 176.564,325.182 175.652,325.596 175.279 C 326.421 174.535,326.898 174.170,330.918 171.205 C 332.413 170.102,333.802 169.200,334.004 169.200 C 334.206 169.200,334.565 168.840,334.800 168.400 C 335.035 167.960,335.421 167.600,335.656 167.600 C 335.892 167.600,336.650 167.136,337.342 166.568 C 338.034 166.001,339.108 165.146,339.728 164.668 C 340.348 164.191,341.203 163.485,341.628 163.100 C 342.053 162.715,342.489 162.400,342.598 162.400 C 342.707 162.400,344.248 161.275,346.024 159.900 C 347.799 158.525,349.555 157.220,349.926 157.000 C 350.297 156.780,351.529 155.835,352.664 154.900 C 353.799 153.965,354.915 153.200,355.144 153.200 C 355.373 153.200,355.719 152.917,355.912 152.571 C 356.106 152.224,356.629 151.729,357.075 151.471 C 358.932 150.392,361.084 148.834,362.342 147.656 C 363.081 146.965,363.823 146.400,363.991 146.400 C 364.160 146.400,365.446 145.505,366.849 144.412 C 369.855 142.070,370.476 141.597,372.600 140.037 C 373.480 139.391,374.579 138.488,375.042 138.031 C 375.505 137.574,376.019 137.200,376.184 137.200 C 376.349 137.200,377.050 136.752,377.742 136.204 C 378.434 135.655,379.360 134.938,379.800 134.610 C 383.188 132.080,383.874 131.547,384.434 131.009 C 384.782 130.674,385.185 130.400,385.330 130.400 C 385.665 130.400,388.980 127.891,391.144 126.000 C 391.521 125.670,392.751 124.762,393.877 123.983 C 396.105 122.441,398.800 119.467,398.800 118.550 C 398.800 118.234,399.070 117.871,399.400 117.745 C 400.124 117.467,400.221 115.861,399.500 116.097 C 399.225 116.187,398.820 116.803,398.600 117.467 C 398.067 119.076,395.683 121.918,393.625 123.400 C 391.595 124.861,387.232 128.158,386.378 128.876 C 386.035 129.164,384.865 130.021,383.778 130.779 C 382.690 131.537,380.879 132.887,379.754 133.779 C 378.628 134.671,377.308 135.670,376.819 136.000 C 376.330 136.330,374.190 137.918,372.065 139.529 C 369.939 141.141,366.707 143.571,364.883 144.929 C 363.059 146.288,359.819 148.719,357.683 150.331 C 355.547 151.943,353.388 153.563,352.884 153.931 C 352.381 154.299,350.899 155.410,349.592 156.400 C 348.285 157.390,346.129 159.010,344.800 160.000 C 343.471 160.990,341.311 162.610,340.000 163.600 C 338.689 164.590,336.529 166.210,335.200 167.200 C 333.871 168.190,331.663 169.859,330.292 170.908 C 328.921 171.957,327.440 173.084,327.000 173.411 C 326.560 173.739,325.660 174.418,325.000 174.921 C 324.340 175.423,323.350 176.133,322.800 176.497 C 322.250 176.862,319.969 178.564,317.731 180.280 C 315.493 181.996,313.243 183.703,312.731 184.072 C 311.060 185.279,305.075 189.757,301.592 192.407 C 292.488 199.334,292.352 199.401,287.386 199.396 C 282.008 199.390,279.165 197.712,276.512 192.981 L 275.401 191.000 275.274 170.700 C 275.150 150.824,275.131 150.391,274.341 149.969 C 273.239 149.378,220.366 149.692,217.000 150.308 C 215.680 150.550,212.832 150.943,210.671 151.180 C 208.510 151.418,205.720 151.870,204.471 152.185 C 203.222 152.500,201.030 153.044,199.600 153.395 C 193.980 154.773,192.465 155.214,191.355 155.793 C 190.720 156.124,189.840 156.402,189.400 156.410 C 188.960 156.418,187.700 156.868,186.600 157.409 C 185.500 157.950,184.330 158.396,184.000 158.399 C 183.670 158.402,182.860 158.763,182.200 159.200 C 181.540 159.637,180.709 159.996,180.354 159.997 C 179.999 159.999,179.279 160.335,178.754 160.745 C 178.229 161.155,177.350 161.627,176.800 161.796 C 175.812 162.098,171.515 164.456,168.800 166.186 C 164.212 169.110,162.595 170.201,159.947 172.159 C 156.630 174.611,156.834 174.443,152.780 178.053 C 147.118 183.094,139.797 191.062,136.787 195.457 C 132.176 202.191,129.762 206.031,128.023 209.400 C 121.691 221.663,120.047 223.536,114.896 224.358 C 105.100 225.919,99.330 219.215,100.358 207.465 C 100.592 204.789,100.975 200.260,101.209 197.400 C 101.444 194.540,101.885 191.120,102.189 189.800 C 102.493 188.480,102.849 186.410,102.980 185.200 C 103.111 183.990,103.553 182.010,103.962 180.800 C 104.372 179.590,104.893 177.700,105.120 176.600 C 105.637 174.096,106.779 170.396,108.391 166.000 C 109.077 164.130,109.824 161.991,110.052 161.247 C 110.280 160.504,111.154 158.524,111.994 156.847 C 112.835 155.171,114.283 152.215,115.214 150.278 C 116.144 148.341,117.348 146.103,117.890 145.305 C 118.432 144.506,119.042 143.481,119.246 143.026 C 119.449 142.572,120.152 141.390,120.807 140.400 C 121.462 139.410,122.276 138.060,122.616 137.400 C 123.238 136.194,123.505 135.811,126.793 131.400 C 136.582 118.267,152.652 103.028,162.600 97.442 C 163.831 96.751,165.927 95.507,168.400 94.000 C 172.081 91.757,173.074 91.187,174.000 90.786 C 174.550 90.548,176.620 89.575,178.600 88.623 C 184.545 85.765,185.828 85.200,186.379 85.200 C 186.669 85.200,187.467 84.862,188.153 84.449 C 188.839 84.035,190.120 83.569,191.000 83.413 C 191.880 83.256,192.827 82.941,193.104 82.712 C 193.598 82.304,196.641 81.379,201.400 80.191 C 202.720 79.861,204.610 79.328,205.600 79.006 C 206.590 78.684,208.660 78.231,210.200 77.999 C 211.740 77.768,214.170 77.324,215.600 77.014 C 221.363 75.764,232.904 75.194,253.200 75.157 C 264.090 75.137,273.450 74.995,274.000 74.842 L 275.000 74.565 275.200 54.382 L 275.400 34.200 276.334 32.400 C 279.973 25.388,289.768 22.931,295.018 27.714 C 295.312 27.981,296.200 28.650,296.993 29.200 C 298.304 30.111,300.079 31.412,302.200 33.018 C 302.640 33.352,304.121 34.474,305.492 35.512 C 306.863 36.550,309.071 38.210,310.400 39.200 C 311.729 40.190,313.937 41.859,315.308 42.908 C 318.577 45.411,319.103 45.808,321.000 47.209 C 321.880 47.859,322.780 48.530,323.000 48.701 C 323.220 48.872,324.390 49.725,325.600 50.598 C 326.810 51.470,329.092 53.177,330.672 54.392 C 332.251 55.606,334.634 57.410,335.966 58.400 C 337.298 59.390,339.467 61.010,340.786 62.000 C 342.105 62.990,344.274 64.610,345.607 65.600 C 346.939 66.590,348.968 68.125,350.115 69.011 C 351.262 69.897,352.590 70.887,353.066 71.211 C 353.964 71.821,360.603 76.791,364.925 80.088 C 368.295 82.658,368.774 83.020,370.494 84.294 C 374.604 87.337,377.115 89.230,380.188 91.600 C 382.042 93.030,384.603 94.942,385.880 95.849 C 394.390 101.897,397.422 104.642,398.534 107.303 C 399.209 108.919,400.000 109.294,400.000 108.000 C 400.000 107.560,399.816 107.200,399.591 107.200 C 399.367 107.200,398.971 106.705,398.712 106.100 C 398.264 105.054,394.679 101.200,394.154 101.200 C 394.017 101.200,393.306 100.705,392.573 100.100 C 391.839 99.495,390.826 98.691,390.320 98.314 C 389.814 97.937,388.410 96.851,387.200 95.902 C 385.069 94.229,383.395 93.028,382.040 92.200 C 381.680 91.980,381.029 91.474,380.593 91.075 C 380.157 90.676,379.080 89.818,378.200 89.169 C 375.871 87.449,374.889 86.699,373.794 85.800 C 373.258 85.360,372.172 84.550,371.382 84.000 C 370.592 83.450,369.436 82.595,368.815 82.100 C 368.193 81.605,367.575 81.200,367.442 81.200 C 367.309 81.200,366.885 80.925,366.500 80.588 C 363.870 78.289,362.932 77.569,362.309 77.371 C 361.919 77.247,361.600 76.988,361.600 76.795 C 361.600 76.602,361.165 76.209,360.634 75.922 C 359.809 75.476,358.228 74.327,352.075 69.696 C 351.566 69.313,350.834 68.730,350.449 68.400 C 348.681 66.886,346.420 65.200,346.157 65.200 C 345.998 65.200,345.582 64.926,345.234 64.591 C 344.602 63.983,342.718 62.516,340.625 61.000 C 338.453 59.427,336.590 58.010,336.000 57.480 C 335.670 57.184,334.500 56.325,333.400 55.571 C 332.300 54.817,331.256 53.975,331.080 53.700 C 330.904 53.425,330.509 53.200,330.203 53.200 C 329.896 53.200,329.410 52.869,329.123 52.463 C 328.835 52.058,328.150 51.493,327.600 51.208 C 327.050 50.923,326.330 50.444,326.000 50.144 C 324.467 48.750,319.877 45.323,318.040 44.200 C 317.680 43.980,317.002 43.440,316.533 43.000 C 316.064 42.560,315.015 41.750,314.202 41.200 C 313.388 40.650,312.430 39.885,312.072 39.500 C 311.715 39.115,311.274 38.800,311.094 38.800 C 310.913 38.800,309.698 37.945,308.394 36.900 C 304.622 33.877,303.696 33.200,303.333 33.200 C 303.146 33.200,302.768 32.840,302.493 32.400 C 302.218 31.960,301.734 31.600,301.416 31.600 C 301.099 31.600,300.696 31.358,300.520 31.063 C 300.344 30.768,299.660 30.187,299.000 29.773 C 298.340 29.358,297.656 28.790,297.480 28.510 C 297.304 28.229,296.958 28.000,296.712 28.000 C 296.465 28.000,295.965 27.730,295.601 27.401 C 293.299 25.318,287.210 23.757,284.800 24.633 M18.806 50.423 C 18.040 50.850,16.853 51.200,16.168 51.200 C 15.452 51.200,14.631 51.524,14.233 51.964 C 13.852 52.384,13.059 52.849,12.471 52.996 C 11.882 53.144,11.093 53.565,10.717 53.932 C 10.341 54.300,9.314 55.140,8.435 55.800 C 7.556 56.460,6.829 57.144,6.819 57.320 C 6.808 57.496,6.146 58.306,5.347 59.120 C 4.548 59.934,3.635 61.211,3.317 61.958 C 3.000 62.705,2.500 63.557,2.207 63.850 C 1.913 64.144,1.549 65.120,1.397 66.020 C 1.245 66.920,0.868 67.752,0.560 67.871 C -0.175 68.153,-0.166 69.600,0.572 69.600 C 0.946 69.600,1.305 68.808,1.613 67.300 C 1.872 66.035,2.317 64.730,2.602 64.400 C 2.887 64.070,3.390 63.170,3.720 62.400 C 4.843 59.781,11.730 53.200,13.349 53.200 C 13.562 53.200,14.021 52.944,14.369 52.630 C 14.716 52.317,16.170 51.769,17.600 51.413 C 19.030 51.057,20.830 50.598,21.600 50.392 C 22.431 50.171,43.547 50.015,73.510 50.010 L 124.020 50.000 124.410 51.026 C 125.067 52.755,124.926 98.598,124.262 99.149 C 123.876 99.469,113.316 99.625,86.965 99.698 L 50.208 99.800 49.951 101.000 C 49.616 102.569,49.616 322.231,49.951 323.800 L 50.208 325.000 162.604 325.000 L 275.000 325.000 275.102 275.818 C 275.157 248.769,275.353 226.487,275.535 226.305 C 275.976 225.864,324.438 225.878,324.879 226.319 C 325.067 226.507,325.169 254.998,325.105 289.631 L 324.989 352.600 324.051 355.962 C 321.679 364.454,314.492 372.173,307.788 373.428 C 306.915 373.592,305.621 373.967,304.913 374.263 C 303.844 374.709,279.718 374.800,162.541 374.800 L 21.456 374.800 18.828 373.956 C 10.247 371.202,1.600 363.052,1.600 357.717 C 1.600 356.577,0.936 355.200,0.386 355.200 C -0.242 355.200,-0.053 357.094,0.600 357.345 C 0.930 357.471,1.200 357.929,1.200 358.361 C 1.200 359.271,1.681 360.412,2.921 362.439 C 5.703 366.991,7.974 369.216,13.000 372.313 C 14.888 373.476,18.826 374.785,21.809 375.241 C 26.653 375.981,304.881 375.501,306.026 374.751 C 306.571 374.393,307.782 373.972,308.717 373.814 C 309.651 373.656,310.656 373.287,310.950 372.993 C 311.243 372.700,312.095 372.196,312.842 371.873 C 313.589 371.551,314.999 370.551,315.975 369.652 C 316.951 368.753,317.856 367.968,317.986 367.908 C 318.530 367.659,322.000 363.085,322.000 362.617 C 322.000 362.337,322.354 361.658,322.786 361.109 C 323.218 360.559,323.756 359.320,323.982 358.355 C 324.207 357.390,324.655 355.880,324.978 355.000 C 325.484 353.619,325.567 344.667,325.582 289.690 L 325.600 225.980 324.574 225.590 C 323.133 225.042,276.599 225.065,275.574 225.614 C 274.815 226.020,274.800 226.992,274.800 275.000 C 274.800 323.037,274.785 323.980,274.025 324.387 C 273.494 324.671,238.209 324.770,161.925 324.701 L 50.600 324.600 50.499 212.506 L 50.399 100.412 87.414 100.306 C 119.803 100.213,124.477 100.125,124.809 99.600 C 125.408 98.651,125.323 50.683,124.720 50.080 C 123.767 49.127,20.531 49.461,18.806 50.423 " stroke="none" fill="#9acaf4" fill-rule="evenodd"></path><path id="path3" d="M21.400 50.420 C 20.740 50.607,19.030 51.052,17.600 51.410 C 16.170 51.767,14.716 52.317,14.369 52.630 C 14.021 52.944,13.562 53.200,13.349 53.200 C 11.730 53.200,4.843 59.781,3.720 62.400 C 3.390 63.170,2.887 64.070,2.602 64.400 C 2.317 64.730,1.872 66.035,1.613 67.300 C 1.305 68.808,0.946 69.600,0.572 69.600 C -0.492 69.600,-0.265 354.535,0.800 355.600 C 1.240 356.040,1.600 356.915,1.600 357.544 C 1.600 363.051,10.110 371.158,18.828 373.956 L 21.456 374.800 162.541 374.800 C 279.718 374.800,303.844 374.709,304.913 374.263 C 305.621 373.967,306.915 373.592,307.788 373.428 C 314.492 372.173,321.679 364.454,324.051 355.962 L 324.989 352.600 325.105 289.631 C 325.169 254.998,325.067 226.507,324.879 226.319 C 324.438 225.878,275.976 225.864,275.535 226.305 C 275.353 226.487,275.157 248.769,275.102 275.818 L 275.000 325.000 162.604 325.000 L 50.208 325.000 49.951 323.800 C 49.616 322.231,49.616 102.569,49.951 101.000 L 50.208 99.800 86.965 99.698 C 113.316 99.625,123.876 99.469,124.262 99.149 C 124.926 98.598,125.067 52.755,124.410 51.026 L 124.020 50.000 73.310 50.041 C 45.419 50.063,22.060 50.234,21.400 50.420 M19.705 52.682 C 19.214 52.777,18.314 52.779,17.705 52.687 C 17.097 52.595,17.500 52.517,18.600 52.514 C 19.700 52.511,20.197 52.587,19.705 52.682 M123.600 75.600 L 123.600 98.800 86.900 98.702 L 50.200 98.604 85.971 98.500 C 118.557 98.405,121.807 98.337,122.471 97.736 C 123.160 97.112,123.200 95.844,123.200 74.738 C 123.200 62.452,123.290 52.400,123.400 52.400 C 123.510 52.400,123.600 62.840,123.600 75.600 M48.700 268.900 C 48.643 299.755,48.597 274.510,48.597 212.800 C 48.597 151.090,48.643 125.845,48.700 156.700 C 48.757 187.555,48.757 238.045,48.700 268.900 M323.091 226.926 C 323.032 227.105,312.907 227.242,300.591 227.231 C 282.432 227.215,278.068 227.312,277.502 227.748 C 276.845 228.254,276.797 231.164,276.700 276.443 L 276.597 324.600 276.498 275.600 L 276.400 226.600 299.800 226.600 C 312.670 226.600,323.151 226.747,323.091 226.926 M274.200 326.400 C 273.031 326.902,50.400 326.902,50.400 326.400 C 50.400 326.134,88.081 326.009,162.700 326.028 C 225.704 326.044,274.649 326.207,274.200 326.400 M322.676 356.300 C 322.575 356.685,322.493 356.370,322.493 355.600 C 322.493 354.830,322.575 354.515,322.676 354.900 C 322.776 355.285,322.776 355.915,322.676 356.300 " stroke="none" fill="#7c949c" fill-rule="evenodd"></path><path id="path4" d="M282.600 26.383 C 279.893 27.650,277.713 29.744,276.334 32.400 L 275.400 34.200 275.200 54.382 L 275.000 74.565 274.000 74.842 C 273.450 74.995,264.090 75.137,253.200 75.157 C 232.904 75.194,221.363 75.764,215.600 77.014 C 214.170 77.324,211.740 77.768,210.200 77.999 C 208.660 78.231,206.590 78.684,205.600 79.006 C 204.610 79.328,202.720 79.861,201.400 80.191 C 196.641 81.379,193.598 82.304,193.104 82.712 C 192.827 82.941,191.880 83.256,191.000 83.413 C 190.120 83.569,188.839 84.035,188.153 84.449 C 187.467 84.862,186.669 85.200,186.379 85.200 C 185.828 85.200,184.545 85.765,178.600 88.623 C 176.620 89.575,174.550 90.548,174.000 90.786 C 173.074 91.187,172.081 91.757,168.400 94.000 C 165.927 95.507,163.831 96.751,162.600 97.442 C 152.652 103.028,136.582 118.267,126.793 131.400 C 123.505 135.811,123.238 136.194,122.616 137.400 C 122.276 138.060,121.462 139.410,120.807 140.400 C 120.152 141.390,119.449 142.572,119.246 143.026 C 119.042 143.481,118.432 144.506,117.890 145.305 C 117.348 146.103,116.144 148.341,115.214 150.278 C 114.283 152.215,112.835 155.171,111.994 156.847 C 111.154 158.524,110.280 160.504,110.052 161.247 C 109.824 161.991,109.077 164.130,108.391 166.000 C 106.779 170.396,105.637 174.096,105.120 176.600 C 104.893 177.700,104.372 179.590,103.962 180.800 C 103.553 182.010,103.111 183.990,102.980 185.200 C 102.849 186.410,102.493 188.480,102.189 189.800 C 101.885 191.120,101.444 194.540,101.209 197.400 C 100.975 200.260,100.592 204.789,100.358 207.465 C 99.330 219.215,105.100 225.919,114.896 224.358 C 120.047 223.536,121.691 221.663,128.023 209.400 C 129.762 206.031,132.176 202.191,136.787 195.457 C 139.797 191.062,147.118 183.094,152.780 178.053 C 156.834 174.443,156.630 174.611,159.947 172.159 C 162.595 170.201,164.212 169.110,168.800 166.186 C 171.515 164.456,175.812 162.098,176.800 161.796 C 177.350 161.627,178.229 161.155,178.754 160.745 C 179.279 160.335,179.999 159.999,180.354 159.997 C 180.709 159.996,181.540 159.637,182.200 159.200 C 182.860 158.763,183.670 158.402,184.000 158.399 C 184.330 158.396,185.500 157.950,186.600 157.409 C 187.700 156.868,188.960 156.418,189.400 156.410 C 189.840 156.402,190.720 156.124,191.355 155.793 C 192.465 155.214,193.980 154.773,199.600 153.395 C 201.030 153.044,203.222 152.500,204.471 152.185 C 205.720 151.870,208.510 151.418,210.671 151.180 C 212.832 150.943,215.680 150.550,217.000 150.308 C 220.366 149.692,273.239 149.378,274.341 149.969 C 275.131 150.391,275.150 150.824,275.274 170.700 L 275.401 191.000 276.512 192.981 C 279.165 197.712,282.008 199.390,287.386 199.396 C 292.352 199.401,292.488 199.334,301.592 192.407 C 305.075 189.757,311.060 185.279,312.731 184.072 C 313.243 183.703,315.493 181.996,317.731 180.280 C 319.969 178.564,322.250 176.862,322.800 176.497 C 323.350 176.133,324.340 175.423,325.000 174.921 C 325.660 174.418,326.560 173.739,327.000 173.411 C 327.440 173.084,328.921 171.957,330.292 170.908 C 331.663 169.859,333.871 168.190,335.200 167.200 C 336.529 166.210,338.689 164.590,340.000 163.600 C 341.311 162.610,343.471 160.990,344.800 160.000 C 346.129 159.010,348.285 157.390,349.592 156.400 C 350.899 155.410,352.381 154.299,352.884 153.931 C 353.388 153.563,355.547 151.943,357.683 150.331 C 359.819 148.719,363.059 146.288,364.883 144.929 C 366.707 143.571,369.939 141.141,372.065 139.529 C 374.190 137.918,376.330 136.330,376.819 136.000 C 377.308 135.670,378.628 134.671,379.754 133.779 C 380.879 132.887,382.690 131.537,383.778 130.779 C 384.865 130.021,386.035 129.164,386.378 128.876 C 387.210 128.176,391.551 124.894,393.619 123.400 C 395.634 121.945,398.400 118.731,398.400 117.844 C 398.400 117.490,398.760 116.840,399.200 116.400 C 400.022 115.578,400.319 113.200,399.600 113.200 C 398.573 113.200,397.600 114.847,397.600 116.586 C 397.600 117.962,397.417 118.470,396.800 118.800 C 396.360 119.035,396.000 119.400,396.000 119.611 C 396.000 120.180,393.565 122.400,392.941 122.400 C 392.643 122.400,392.400 122.670,392.400 123.000 C 392.400 123.330,392.128 123.600,391.796 123.600 C 391.464 123.600,390.628 124.140,389.937 124.800 C 389.246 125.460,388.481 126.000,388.237 126.000 C 387.992 126.000,387.568 126.360,387.293 126.800 C 387.018 127.240,386.537 127.600,386.224 127.600 C 385.910 127.600,385.540 127.960,385.400 128.400 C 385.260 128.840,384.872 129.200,384.536 129.200 C 383.917 129.200,382.343 130.267,380.551 131.900 C 380.008 132.395,379.398 132.800,379.196 132.800 C 378.994 132.800,378.635 133.160,378.400 133.600 C 378.165 134.040,377.778 134.400,377.542 134.400 C 376.769 134.400,373.200 136.921,373.200 137.467 C 373.200 137.760,372.945 138.000,372.634 138.000 C 372.105 138.000,370.992 138.803,369.126 140.532 C 368.692 140.935,367.810 141.447,367.168 141.671 C 366.526 141.895,366.000 142.335,366.000 142.649 C 366.000 142.963,365.575 143.382,365.055 143.579 C 364.535 143.777,364.000 144.223,363.867 144.569 C 363.734 144.916,363.272 145.200,362.840 145.200 C 362.405 145.200,361.940 145.558,361.800 146.000 C 361.660 146.440,361.302 146.800,361.004 146.800 C 360.705 146.800,359.927 147.250,359.273 147.800 C 358.619 148.350,357.892 148.800,357.656 148.800 C 357.421 148.800,357.035 149.160,356.800 149.600 C 356.565 150.040,356.177 150.400,355.939 150.400 C 355.701 150.400,354.916 150.895,354.196 151.500 C 353.476 152.105,352.406 152.960,351.818 153.400 C 351.230 153.840,350.401 154.515,349.975 154.900 C 349.549 155.285,349.026 155.600,348.814 155.600 C 348.601 155.600,347.890 156.095,347.232 156.700 C 346.575 157.305,345.553 158.160,344.962 158.600 C 344.371 159.040,343.487 159.805,342.998 160.300 C 342.509 160.795,341.824 161.200,341.477 161.200 C 341.130 161.200,340.599 161.552,340.298 161.981 C 339.997 162.411,339.267 162.946,338.676 163.171 C 338.084 163.396,337.600 163.769,337.600 164.000 C 337.600 164.231,337.150 164.591,336.600 164.800 C 336.050 165.009,335.600 165.455,335.600 165.790 C 335.600 166.126,335.330 166.400,335.000 166.400 C 334.670 166.400,334.045 166.755,333.610 167.190 C 333.176 167.624,332.342 168.100,331.758 168.246 C 331.174 168.393,330.610 168.842,330.505 169.243 C 330.400 169.645,329.973 170.082,329.556 170.214 C 329.140 170.346,328.613 170.802,328.386 171.227 C 328.158 171.652,327.637 172.000,327.229 172.000 C 326.820 172.000,326.381 172.272,326.254 172.603 C 326.127 172.935,325.522 173.428,324.911 173.697 C 324.300 173.967,323.565 174.505,323.277 174.894 C 322.990 175.282,322.501 175.600,322.191 175.600 C 321.882 175.600,321.435 175.960,321.200 176.400 C 320.965 176.840,320.516 177.200,320.204 177.200 C 319.683 177.200,318.829 177.857,316.558 180.004 C 316.095 180.442,315.511 180.800,315.261 180.800 C 315.011 180.800,314.582 181.160,314.307 181.600 C 314.032 182.040,313.535 182.400,313.202 182.400 C 312.870 182.400,312.088 182.940,311.465 183.600 C 310.842 184.260,310.077 184.800,309.766 184.800 C 309.455 184.800,309.200 185.070,309.200 185.400 C 309.200 185.730,308.939 186.000,308.621 186.000 C 308.302 186.000,307.586 186.405,307.030 186.900 C 306.474 187.395,305.362 188.250,304.560 188.800 C 303.757 189.350,302.718 190.173,302.250 190.630 C 301.783 191.086,301.085 191.576,300.700 191.717 C 300.315 191.859,300.000 192.251,300.000 192.587 C 300.000 192.953,299.643 193.200,299.114 193.200 C 298.627 193.200,297.862 193.559,297.414 193.998 C 295.814 195.566,294.074 196.800,293.465 196.800 C 293.124 196.800,292.610 197.131,292.323 197.536 C 291.281 199.002,283.065 199.058,282.685 197.602 C 282.585 197.223,281.994 196.785,281.370 196.628 C 280.746 196.472,279.993 195.996,279.695 195.572 C 279.398 195.147,278.911 194.800,278.612 194.800 C 278.292 194.800,277.960 194.147,277.800 193.200 C 277.651 192.320,277.231 191.433,276.865 191.229 C 276.262 190.892,276.181 188.895,276.000 169.928 L 275.800 149.000 244.142 149.000 C 215.164 149.000,212.421 149.056,211.742 149.666 C 211.190 150.162,210.002 150.375,207.107 150.498 C 204.005 150.629,203.045 150.816,202.378 151.420 C 201.772 151.968,200.763 152.221,198.721 152.337 C 196.443 152.465,195.864 152.632,195.715 153.202 C 195.572 153.750,195.001 153.947,193.180 154.079 C 191.667 154.188,190.545 154.506,190.031 154.972 C 189.592 155.369,188.401 155.788,187.385 155.903 C 186.180 156.039,185.376 156.370,185.072 156.856 C 184.778 157.328,184.143 157.600,183.336 157.600 C 181.704 157.600,180.800 157.953,180.800 158.592 C 180.800 158.872,180.092 159.211,179.213 159.352 C 178.217 159.511,177.466 159.903,177.199 160.403 C 176.950 160.868,176.361 161.200,175.786 161.200 C 175.244 161.200,174.440 161.560,174.000 162.000 C 173.560 162.440,172.831 162.800,172.381 162.800 C 171.930 162.800,171.145 163.250,170.635 163.800 C 170.125 164.350,169.334 164.800,168.877 164.800 C 168.420 164.800,167.799 165.152,167.498 165.581 C 167.197 166.011,166.467 166.546,165.876 166.771 C 165.284 166.996,164.800 167.345,164.800 167.547 C 164.800 167.748,164.305 168.035,163.700 168.183 C 162.672 168.436,162.213 168.782,159.833 171.100 C 159.324 171.595,158.635 172.000,158.301 172.000 C 157.967 172.000,157.599 172.360,157.484 172.800 C 157.369 173.240,156.938 173.600,156.527 173.600 C 156.115 173.600,155.321 174.095,154.761 174.700 C 153.053 176.549,150.030 179.200,149.631 179.200 C 149.424 179.200,149.140 179.560,149.000 180.000 C 148.860 180.440,148.484 180.800,148.163 180.800 C 147.843 180.800,147.409 181.250,147.200 181.800 C 146.991 182.350,146.557 182.800,146.237 182.800 C 145.916 182.800,145.543 183.151,145.406 183.580 C 145.270 184.008,144.808 184.470,144.380 184.606 C 143.951 184.743,143.600 185.105,143.600 185.413 C 143.600 185.720,143.252 186.158,142.827 186.386 C 142.402 186.613,141.940 187.159,141.800 187.600 C 141.660 188.040,141.295 188.400,140.987 188.400 C 140.680 188.400,140.217 188.794,139.960 189.275 C 139.702 189.756,139.156 190.510,138.746 190.950 C 138.336 191.391,138.000 191.981,138.000 192.261 C 138.000 192.542,137.640 192.965,137.200 193.200 C 136.760 193.435,136.400 193.885,136.400 194.200 C 136.400 194.515,136.055 194.957,135.633 195.183 C 135.210 195.409,134.746 196.136,134.600 196.800 C 134.454 197.464,133.990 198.191,133.567 198.417 C 133.145 198.643,132.800 199.084,132.800 199.396 C 132.800 199.708,132.350 200.414,131.800 200.964 C 131.250 201.514,130.800 202.235,130.800 202.568 C 130.800 202.900,130.440 203.365,130.000 203.600 C 129.537 203.848,129.200 204.438,129.200 205.000 C 129.200 205.562,128.863 206.152,128.400 206.400 C 127.931 206.651,127.600 207.238,127.600 207.817 C 127.600 208.373,127.162 209.186,126.600 209.675 C 125.994 210.201,125.600 210.971,125.600 211.625 C 125.600 212.344,125.350 212.772,124.854 212.902 C 124.364 213.030,124.009 213.625,123.820 214.635 C 123.661 215.481,123.187 216.414,122.766 216.709 C 122.319 217.022,122.000 217.716,122.000 218.376 C 122.000 219.184,121.763 219.569,121.170 219.724 C 120.714 219.843,120.243 220.314,120.124 220.770 C 119.987 221.293,119.581 221.600,119.025 221.600 C 118.541 221.600,117.739 222.066,117.243 222.637 C 115.979 224.090,109.190 223.993,107.699 222.500 C 107.205 222.005,106.461 221.600,106.047 221.600 C 105.630 221.600,105.200 221.243,105.084 220.800 C 104.969 220.360,104.588 220.000,104.237 220.000 C 103.857 220.000,103.600 219.662,103.600 219.163 C 103.600 218.662,103.279 218.241,102.800 218.116 C 102.039 217.917,101.998 217.555,101.966 210.653 C 101.898 196.468,101.986 194.743,102.832 193.668 C 103.483 192.840,103.600 192.025,103.600 188.304 C 103.600 184.207,103.666 183.837,104.600 182.727 C 105.420 181.752,105.600 181.113,105.600 179.169 C 105.600 177.333,105.780 176.620,106.400 176.000 C 107.000 175.400,107.200 174.667,107.200 173.062 C 107.200 171.471,107.394 170.748,107.958 170.238 C 108.375 169.860,108.838 168.740,108.987 167.747 C 109.136 166.754,109.605 165.595,110.029 165.171 C 110.582 164.618,110.800 163.842,110.800 162.427 C 110.800 160.805,110.942 160.409,111.600 160.200 C 112.184 160.015,112.400 159.595,112.400 158.645 C 112.400 157.756,112.717 157.069,113.400 156.475 C 113.950 155.997,114.400 155.194,114.400 154.692 C 114.400 154.189,114.760 153.470,115.200 153.093 C 115.654 152.704,116.000 151.913,116.000 151.262 C 116.000 150.595,116.417 149.667,117.000 149.038 C 117.550 148.444,118.000 147.539,118.000 147.026 C 118.000 146.452,118.287 146.018,118.746 145.898 C 119.225 145.773,119.589 145.185,119.764 144.252 C 119.929 143.373,120.266 142.800,120.618 142.800 C 120.938 142.800,121.200 142.439,121.200 141.997 C 121.200 141.556,121.650 140.803,122.200 140.325 C 122.750 139.847,123.200 139.045,123.200 138.542 C 123.200 138.038,123.558 137.436,124.000 137.200 C 124.440 136.965,124.800 136.507,124.800 136.183 C 124.800 135.860,125.250 135.203,125.800 134.725 C 126.350 134.247,126.800 133.540,126.800 133.155 C 126.800 132.769,127.160 132.340,127.600 132.200 C 128.040 132.060,128.400 131.662,128.400 131.315 C 128.400 130.968,128.762 130.305,129.204 129.842 C 131.302 127.643,132.400 126.234,132.400 125.741 C 132.400 125.443,132.667 125.200,132.992 125.200 C 133.318 125.200,133.698 124.750,133.836 124.200 C 133.974 123.650,134.342 123.200,134.653 123.200 C 134.965 123.200,135.391 122.750,135.600 122.200 C 135.809 121.650,136.255 121.200,136.590 121.200 C 136.926 121.200,137.200 121.009,137.200 120.775 C 137.200 120.231,144.998 112.400,145.540 112.400 C 145.763 112.400,146.057 112.049,146.194 111.620 C 146.330 111.192,146.772 110.736,147.177 110.607 C 147.582 110.479,148.006 110.019,148.119 109.587 C 148.241 109.120,148.666 108.800,149.163 108.800 C 149.648 108.800,150.000 108.542,150.000 108.187 C 150.000 107.851,150.315 107.460,150.700 107.320 C 151.351 107.083,153.358 105.563,154.834 104.190 C 155.182 103.865,155.675 103.600,155.930 103.600 C 156.185 103.600,156.618 103.240,156.893 102.800 C 157.168 102.360,157.699 102.000,158.074 102.000 C 158.448 102.000,158.998 101.653,159.295 101.229 C 159.592 100.805,160.322 100.236,160.917 99.965 C 161.513 99.694,162.000 99.230,162.000 98.936 C 162.000 98.641,162.379 98.400,162.842 98.400 C 163.305 98.400,164.219 97.950,164.873 97.400 C 165.527 96.850,166.278 96.400,166.542 96.400 C 166.806 96.400,167.330 96.040,167.707 95.600 C 168.084 95.160,168.850 94.800,169.409 94.800 C 170.012 94.800,170.530 94.515,170.683 94.100 C 171.014 93.203,171.594 92.814,172.611 92.806 C 173.057 92.803,173.730 92.440,174.107 92.000 C 174.507 91.533,175.287 91.200,175.982 91.200 C 176.734 91.200,177.319 90.925,177.571 90.453 C 177.811 90.005,178.610 89.605,179.573 89.451 C 180.581 89.289,181.333 88.899,181.601 88.397 C 181.900 87.839,182.439 87.600,183.400 87.600 C 184.329 87.600,184.901 87.359,185.171 86.855 C 185.418 86.392,186.177 86.028,187.171 85.895 C 188.052 85.776,189.253 85.302,189.840 84.840 C 190.551 84.280,191.486 84.000,192.640 84.000 C 193.962 84.000,194.473 83.811,194.800 83.200 C 195.155 82.537,195.638 82.400,197.614 82.400 C 199.487 82.400,200.177 82.223,200.821 81.579 C 201.419 80.981,202.300 80.716,204.071 80.602 C 205.819 80.489,206.746 80.215,207.376 79.623 C 208.133 78.911,208.767 78.800,212.072 78.800 C 215.427 78.800,216.031 78.691,217.035 77.901 L 218.178 77.002 246.389 76.865 C 270.871 76.746,274.689 76.648,275.277 76.123 C 275.892 75.573,275.965 73.688,276.077 55.249 L 276.200 34.979 277.100 33.836 C 277.595 33.207,278.000 32.343,278.000 31.915 C 278.000 31.102,280.036 28.800,280.755 28.800 C 280.984 28.800,281.351 28.466,281.569 28.058 C 282.564 26.199,291.704 26.338,293.516 28.239 C 294.020 28.768,294.779 29.200,295.202 29.200 C 295.625 29.200,296.165 29.560,296.400 30.000 C 296.635 30.440,297.083 30.800,297.394 30.800 C 297.706 30.800,298.104 31.044,298.280 31.342 C 298.456 31.639,299.050 32.118,299.600 32.405 C 300.150 32.692,300.835 33.258,301.123 33.663 C 301.410 34.069,301.983 34.400,302.396 34.400 C 302.808 34.400,303.260 34.760,303.400 35.200 C 303.540 35.640,303.938 36.000,304.285 36.000 C 304.632 36.000,305.295 36.374,305.758 36.831 C 306.221 37.288,307.320 38.191,308.200 38.837 C 310.948 40.856,311.628 41.379,312.395 42.070 C 312.805 42.438,313.558 42.962,314.070 43.233 C 314.581 43.505,315.235 44.058,315.523 44.463 C 315.810 44.869,316.395 45.200,316.823 45.200 C 317.250 45.200,317.600 45.458,317.600 45.773 C 317.600 46.088,317.966 46.462,318.413 46.604 C 319.155 46.840,319.884 47.420,322.214 49.628 C 322.662 50.053,323.330 50.400,323.700 50.400 C 324.070 50.400,324.565 50.760,324.800 51.200 C 325.035 51.640,325.426 52.000,325.668 52.000 C 325.910 52.000,326.524 52.405,327.033 52.900 C 329.220 55.030,329.848 55.527,330.663 55.771 C 331.138 55.914,331.627 56.294,331.750 56.615 C 331.874 56.937,332.235 57.200,332.553 57.200 C 332.871 57.200,334.080 58.100,335.239 59.200 C 336.399 60.300,337.674 61.200,338.074 61.200 C 338.473 61.200,338.800 61.467,338.800 61.792 C 338.800 62.118,339.255 62.499,339.811 62.638 C 340.366 62.778,341.003 63.231,341.225 63.646 C 341.447 64.061,341.893 64.400,342.217 64.400 C 342.540 64.400,343.197 64.850,343.675 65.400 C 344.153 65.950,344.872 66.400,345.272 66.400 C 345.672 66.400,346.000 66.674,346.000 67.010 C 346.000 67.345,346.455 67.793,347.010 68.004 C 347.566 68.215,348.119 68.644,348.239 68.958 C 348.359 69.271,348.895 69.637,349.429 69.772 C 349.963 69.906,350.400 70.263,350.400 70.565 C 350.400 71.170,351.245 71.600,352.433 71.600 C 352.855 71.600,353.200 71.864,353.200 72.186 C 353.200 72.508,353.574 72.972,354.030 73.216 C 354.900 73.682,355.355 74.046,357.514 76.007 C 358.236 76.663,359.085 77.200,359.400 77.200 C 359.714 77.200,360.165 77.560,360.400 78.000 C 360.635 78.440,361.032 78.800,361.281 78.800 C 361.529 78.800,362.018 79.061,362.366 79.380 C 365.048 81.835,365.805 82.400,366.413 82.400 C 366.794 82.400,367.201 82.760,367.316 83.200 C 367.431 83.640,367.838 84.000,368.220 84.000 C 368.603 84.000,369.295 84.362,369.758 84.804 C 371.957 86.902,373.366 88.000,373.859 88.000 C 374.157 88.000,374.400 88.270,374.400 88.600 C 374.400 88.930,374.670 89.200,375.000 89.200 C 375.330 89.200,375.946 89.546,376.370 89.970 C 376.793 90.393,377.558 90.962,378.070 91.233 C 378.581 91.505,379.235 92.058,379.523 92.463 C 379.810 92.869,380.374 93.200,380.776 93.200 C 381.178 93.200,381.601 93.560,381.716 94.000 C 381.831 94.440,382.204 94.800,382.544 94.800 C 382.885 94.800,383.667 95.249,384.282 95.797 C 384.897 96.345,385.811 97.155,386.314 97.597 C 386.817 98.039,387.486 98.400,387.800 98.400 C 388.115 98.400,388.565 98.760,388.800 99.200 C 389.035 99.640,389.426 100.000,389.668 100.000 C 389.910 100.000,390.512 100.405,391.005 100.900 C 392.887 102.788,394.434 104.000,394.964 104.000 C 395.266 104.000,395.625 104.445,395.761 104.988 C 395.898 105.532,396.367 106.168,396.805 106.403 C 397.333 106.685,397.600 107.240,397.600 108.054 C 397.600 109.609,398.718 112.000,399.446 112.000 C 399.826 112.000,400.000 111.497,400.000 110.400 C 400.000 109.520,399.811 108.800,399.580 108.800 C 399.348 108.800,398.878 108.127,398.534 107.303 C 397.422 104.642,394.390 101.897,385.880 95.849 C 384.603 94.942,382.042 93.030,380.188 91.600 C 377.115 89.230,374.604 87.337,370.494 84.294 C 368.774 83.020,368.295 82.658,364.925 80.088 C 360.603 76.791,353.964 71.821,353.066 71.211 C 352.590 70.887,351.262 69.897,350.115 69.011 C 348.968 68.125,346.939 66.590,345.607 65.600 C 344.274 64.610,342.105 62.990,340.786 62.000 C 339.467 61.010,337.298 59.390,335.966 58.400 C 334.634 57.410,332.251 55.606,330.672 54.392 C 329.092 53.177,326.810 51.470,325.600 50.598 C 324.390 49.725,323.220 48.872,323.000 48.701 C 322.780 48.530,321.880 47.859,321.000 47.209 C 319.103 45.808,318.577 45.411,315.308 42.908 C 313.937 41.859,311.729 40.190,310.400 39.200 C 309.071 38.210,306.863 36.550,305.492 35.512 C 304.121 34.474,302.640 33.352,302.200 33.018 C 300.079 31.412,298.304 30.111,296.993 29.200 C 296.200 28.650,295.312 27.981,295.018 27.714 C 292.196 25.142,286.544 24.537,282.600 26.383 " stroke="none" fill="#74bcf4" fill-rule="evenodd"></path></g></svg>